<svg width="146" height="29" viewBox="0 0 146 29" fill="none" xmlns="http://www.w3.org/2000/svg">
<path d="M16.201 0C7.75478 0 0.903809 6.85097 0.903809 15.2972V26.2237H5.27443V15.2972C5.27443 9.26575 10.1696 4.37062 16.201 4.37062C22.2324 4.37062 27.1276 9.26575 27.1276 15.2972V26.2237H31.4983V15.2972C31.4983 6.85097 24.6473 0 16.201 0Z" fill="#BBBBBB"/>
<path d="M22.757 26.2237V22.7273H9.64502V26.2237H22.757Z" fill="#BBBBBB"/>
<path d="M22.757 19.2308V15.7342H9.64502V19.2308H22.757Z" fill="#BBBBBB"/>
<path d="M10.3992 12.2378H21.9922C20.8996 10.1617 18.7143 8.74128 16.2011 8.74128C13.688 8.74128 11.5027 10.1617 10.3992 12.2378Z" fill="#BBBBBB"/>
<path d="M50.0408 22.913C53.2641 23.0224 56.3891 21.5583 58.334 19.0232L58.3558 18.9904L55.3183 16.5757L55.2964 16.6084C54.0616 18.2693 52.3353 19.1106 50.2921 19.0341C48.5765 18.9795 47.0249 18.2474 45.9214 16.9909C44.8398 15.7561 44.2824 14.1172 44.337 12.369C44.4025 10.6316 45.0801 9.04724 46.2492 7.89994C47.4402 6.74173 49.0354 6.12984 50.7619 6.19542C52.7723 6.26097 54.4223 7.21159 55.5587 8.93799L55.5804 8.97077L58.782 6.79637L58.76 6.76358C56.9791 4.04286 54.0508 2.41481 50.7509 2.30555C50.6307 2.30555 50.5106 2.29461 50.3904 2.29461C47.7898 2.29461 45.3424 3.26708 43.4519 5.06997C41.4743 6.93841 40.3379 9.48432 40.2395 12.2269C40.1412 15.0022 41.1028 17.6356 42.9385 19.6461C44.785 21.6565 47.309 22.8256 50.0408 22.913Z" fill="#BBBBBB"/>
<path fill-rule="evenodd" clip-rule="evenodd" d="M108.192 9.38595C106.695 8.0092 104.684 7.24435 102.543 7.24435C100.401 7.24435 98.3908 8.0092 96.8939 9.38595C95.3203 10.8283 94.4573 12.8606 94.4573 15.1006C94.4573 17.3296 95.3203 19.34 96.8939 20.7824C98.3908 22.1591 100.401 22.924 102.543 22.924C104.684 22.924 106.695 22.1701 108.192 20.7824C109.765 19.34 110.629 17.3187 110.629 15.1006C110.629 12.8606 109.765 10.8283 108.192 9.38595ZM102.543 19.2418C100.237 19.2418 98.5001 17.4607 98.5001 15.1006C98.5001 12.7186 100.237 10.9157 102.543 10.9157C104.848 10.9157 106.586 12.7077 106.586 15.1006C106.586 17.4607 104.848 19.2418 102.543 19.2418Z" fill="#BBBBBB"/>
<path fill-rule="evenodd" clip-rule="evenodd" d="M118.747 22.4104C119.555 22.7383 120.495 22.924 121.391 22.924C123.336 22.924 125.161 22.1809 126.516 20.8262C127.981 19.3729 128.757 17.3952 128.757 15.1006C128.757 11.2872 126.178 7.24435 121.391 7.24435C119.883 7.24435 117.72 7.81254 116.595 9.4078L116.289 9.84488V7.6377H112.311V27.8519H116.289V20.3562L116.595 20.7932C117.086 21.4818 117.829 22.0389 118.747 22.4104ZM120.572 10.9485C122.845 10.9485 124.68 12.806 124.68 15.0897C124.68 17.3952 122.877 19.1981 120.572 19.1981C118.573 19.1981 116.431 17.6246 116.431 15.0897C116.431 12.7732 118.255 10.9485 120.572 10.9485Z" fill="#BBBBBB"/>
<path fill-rule="evenodd" clip-rule="evenodd" d="M85.4319 11.0359C86.1203 11.0359 86.7868 11.2435 87.355 11.6368C87.5409 11.757 87.7157 11.91 87.8686 12.0849C88.4586 12.7076 88.7865 13.5272 88.7865 14.3903V22.6181H92.7637V14.3684C92.7855 11.8662 92.1738 9.97599 90.9608 8.75222C89.9664 7.74696 88.5789 7.23342 86.8416 7.23342C85.3664 7.23342 83.4105 7.72511 82.3943 9.73562L82.0666 10.3147V7.63771H78.0894V22.6289H82.0666V14.9367C82.0666 14.8929 82.0666 14.8602 82.0666 14.8165V14.7837V14.4013C82.0776 12.5437 83.5745 11.0359 85.4319 11.0359Z" fill="#BBBBBB"/>
<path d="M145.135 7.63773H141.157V15.6142H141.147C141.048 17.3733 139.573 18.7828 137.792 18.7828C137.387 18.7828 136.983 18.7064 136.601 18.5643C135.89 18.3458 135.301 17.8541 134.918 17.1766C134.602 16.6521 134.426 16.0512 134.426 15.4284V15.1334C134.426 15.1006 134.426 15.0569 134.426 15.0241V7.63773H130.449V15.4721C130.427 17.9743 131.039 19.8646 132.252 21.0883C133.247 22.0937 134.635 22.6071 136.372 22.6071C137.825 22.6071 139.726 22.3886 140.808 20.4983L141.005 20.1487C140.917 22.6837 139.311 24.5194 136.666 24.4866C135.847 24.5084 135.301 24.4646 134.35 24.2353C133.651 24.0714 132.963 23.7217 132.274 23.4048L130.875 26.8029C132.755 27.8847 135.027 28.3217 137.333 28.2672C141.628 28.2672 144.971 24.9674 145.102 19.8536V19.8318L145.135 7.63773Z" fill="#BBBBBB"/>
<path d="M71.5444 7.63762V9.30938V9.72458L71.3586 9.40772C70.8778 8.71935 70.0255 8.1621 69.1187 7.77965C68.3102 7.45185 67.3706 7.26611 66.4525 7.26611C64.5077 7.26611 62.683 8.00912 61.3281 9.364C59.8638 10.8173 59.0881 12.795 59.0881 15.0895C59.0881 17.3841 59.8638 19.3618 61.3281 20.815C62.694 22.1701 64.5077 22.913 66.4525 22.913C68.0807 22.913 70.2988 22.2575 71.3586 20.7822L71.5444 20.4763V20.8806V22.6179H75.5216V7.63762H71.5444ZM67.2722 19.2417C64.9885 19.2417 63.131 17.3841 63.131 15.1005C63.131 12.795 64.9557 10.9921 67.2722 10.9921C69.2716 10.9921 71.4132 12.5655 71.4132 15.1005C71.4132 17.4278 69.5995 19.2417 67.2722 19.2417Z" fill="#BBBBBB"/>
</svg>
