<svg width="197" height="90" viewBox="0 0 197 90" fill="none" xmlns="http://www.w3.org/2000/svg">
<path fill-rule="evenodd" clip-rule="evenodd" d="M0.378174 0H14.1183V13.7121H0.378174V0V0Z" fill="#BBBBBB"/>
<path fill-rule="evenodd" clip-rule="evenodd" d="M25.9028 0H39.643V13.7121H25.9028V0Z" fill="#BBBBBB"/>
<path fill-rule="evenodd" clip-rule="evenodd" d="M0.378174 25.4727H14.1183V39.1848H0.378174V25.4727V25.4727Z" fill="#BBBBBB"/>
<path fill-rule="evenodd" clip-rule="evenodd" d="M26.3146 89.0004H27.4468V82.7862H26.3146V89.0004ZM27.5497 80.1157H26.2632V81.3996H27.5497V80.1157Z" fill="#BBBBBB"/>
<path fill-rule="evenodd" clip-rule="evenodd" d="M29.5569 89.0003H30.689V86.1244C30.689 84.635 31.3066 83.5566 32.5931 83.5566C33.5709 83.6593 33.8796 84.3269 33.8796 85.7649V89.0003H35.0118V85.3027C35.0118 83.6593 34.3428 82.6321 32.696 82.6321C31.8726 82.6321 31.0493 83.0943 30.689 83.762H30.6376V82.7862H29.5569V89.0003Z" fill="#BBBBBB"/>
<path fill-rule="evenodd" clip-rule="evenodd" d="M44.7378 89.0003H45.8185V79.9103H44.6863V83.6593C44.3261 83.0944 43.7086 82.6322 42.6279 82.6322C40.8267 82.6322 39.9519 84.1215 39.9519 85.7649C39.9519 87.4596 40.7238 89.1544 42.5764 89.1544C43.7086 89.1544 44.429 88.5895 44.6863 88.1273H44.7378V89.0003ZM41.1355 85.8676C41.1355 84.7378 41.5987 83.5566 42.8337 83.5566C44.0688 83.5566 44.6863 84.7378 44.6863 85.919C44.6863 86.9461 44.1717 88.23 42.8852 88.23C41.6501 88.23 41.1355 86.8434 41.1355 85.8676Z" fill="#BBBBBB"/>
<path fill-rule="evenodd" clip-rule="evenodd" d="M52.5082 87.6137C52.2509 87.8191 51.376 88.23 50.6041 88.23C49.5234 88.23 48.5457 87.3569 48.5457 86.1244H52.9713C52.9713 84.1728 52.3023 82.6321 50.2439 82.6321C48.4942 82.6321 47.3621 83.9674 47.3621 85.7649C47.3621 87.8191 48.3398 89.1544 50.5527 89.1544C51.5819 89.1544 52.0965 88.8976 52.5082 88.7435V87.6137ZM48.5457 85.3027C48.6486 84.481 49.1117 83.5566 50.2439 83.5566C51.2217 83.5566 51.7877 84.3269 51.7877 85.3027H48.5457Z" fill="#BBBBBB"/>
<path fill-rule="evenodd" clip-rule="evenodd" d="M54.5154 89.0003H55.6475V86.1757C55.6475 84.635 56.3165 83.6593 57.3457 83.6593C57.5516 83.6593 57.7574 83.6593 57.9633 83.762V82.7349C57.7574 82.6835 57.5516 82.6321 57.2428 82.6321C56.5738 82.6321 55.9048 83.0943 55.5961 83.762V82.7862H54.5154V89.0003Z" fill="#BBBBBB"/>
<path fill-rule="evenodd" clip-rule="evenodd" d="M66.763 80.6806C66.1454 80.4752 65.4764 80.3725 64.9618 80.3725C63.418 80.3725 62.2344 81.1942 62.2344 82.6835C62.2344 85.3027 65.8881 84.7891 65.8881 86.6893C65.8881 87.6651 64.9104 88.0759 64.1899 88.0759C63.5724 88.0759 62.8519 87.8192 62.4402 87.6651L62.3373 88.7949C62.8519 88.949 63.4694 89.1544 64.0355 89.1544C65.7337 89.1544 67.1747 88.4354 67.1747 86.5866C67.1747 83.8134 63.5209 84.1729 63.5209 82.5808C63.5209 81.7078 64.2928 81.451 65.0133 81.451C65.6308 81.451 65.9396 81.5537 66.5571 81.8105L66.763 80.6806Z" fill="#BBBBBB"/>
<path fill-rule="evenodd" clip-rule="evenodd" d="M72.7327 82.8889C72.4239 82.7862 71.8064 82.6321 71.3432 82.6321C69.4392 82.6321 68.2041 84.0188 68.2041 85.8676C68.2041 87.6651 69.4906 89.1544 71.3432 89.1544C71.7549 89.1544 72.321 89.103 72.7841 88.8976L72.6812 87.8705C72.321 88.0759 71.8578 88.23 71.4462 88.23C70.0052 88.23 69.3877 86.9974 69.3877 85.8676C69.3877 84.7377 70.1082 83.5566 71.3947 83.5566C71.7549 83.5566 72.2181 83.6593 72.6298 83.8647L72.7327 82.8889Z" fill="#BBBBBB"/>
<path fill-rule="evenodd" clip-rule="evenodd" d="M74.0708 89.0003H75.2544V86.1244C75.2544 84.6351 75.8205 83.5566 77.107 83.5566C78.0848 83.6593 78.445 84.3269 78.445 85.7649V89.0003H79.5772V85.3027C79.5772 83.6593 78.8567 82.6322 77.2614 82.6322C76.3866 82.6322 75.6661 83.043 75.2544 83.7106V79.9103H74.0708V89.0003Z" fill="#BBBBBB"/>
<path fill-rule="evenodd" clip-rule="evenodd" d="M90.4868 82.7863H89.4061L87.8623 87.9219L86.3184 82.7863H84.9805L83.3852 87.9219H83.3337L81.9442 82.7863H80.6577L82.6647 89.0004H84.0027L85.5465 83.8134H85.598L87.1933 89.0004H88.5313L90.4868 82.7863Z" fill="#BBBBBB"/>
<path fill-rule="evenodd" clip-rule="evenodd" d="M96.3534 87.6137C96.0961 87.8191 95.2212 88.23 94.4493 88.23C93.3686 88.23 92.4423 87.3569 92.4423 86.1244H96.868C96.868 84.1728 96.199 82.6321 94.0891 82.6321C92.3394 82.6321 91.2073 83.9674 91.2073 85.7649C91.2073 87.8191 92.2365 89.1544 94.3979 89.1544C95.4271 89.1544 95.9417 88.8976 96.3534 88.7435V87.6137ZM92.4423 85.3027C92.4938 84.481 92.957 83.5566 94.0891 83.5566C95.0669 83.5566 95.6329 84.3269 95.6329 85.3027H92.4423Z" fill="#BBBBBB"/>
<path fill-rule="evenodd" clip-rule="evenodd" d="M98.5146 89.0004H99.6467V82.7862H98.5146V89.0004ZM99.7497 80.1157H98.4631V81.3996H99.7497V80.1157Z" fill="#BBBBBB"/>
<path fill-rule="evenodd" clip-rule="evenodd" d="M101.294 89.0004H106.337V88.0759H102.632L106.183 83.8134V82.7863H101.448V83.7107H104.896L101.294 87.9732V89.0004Z" fill="#BBBBBB"/>
<path fill-rule="evenodd" clip-rule="evenodd" d="M26.2117 73.2854H27.4467V69.4336H30.5859V68.3552H27.4467V65.8901H30.7403V64.8116H26.2117V73.2854Z" fill="#BBBBBB"/>
<path fill-rule="evenodd" clip-rule="evenodd" d="M32.2327 73.2854H33.4163V70.4608C33.4163 68.9201 34.0853 67.9443 35.063 67.9443C35.2689 67.9443 35.5262 67.9957 35.732 68.047V67.0713C35.4747 67.0199 35.3203 66.9686 34.9601 66.9686C34.2911 66.9686 33.6736 67.4308 33.3648 68.047H33.3134V67.1226H32.2327V73.2854Z" fill="#BBBBBB"/>
<path fill-rule="evenodd" clip-rule="evenodd" d="M41.753 71.8988C41.4442 72.1042 40.5694 72.515 39.7975 72.515C38.7168 72.515 37.7905 71.6933 37.7905 70.4608H42.2162C42.2162 68.4579 41.5472 66.9686 39.4887 66.9686C37.739 66.9686 36.5554 68.2525 36.5554 70.1013C36.5554 72.1042 37.5846 73.4395 39.7975 73.4395C40.7752 73.4395 41.2899 73.1827 41.753 73.0286V71.8988ZM37.7905 69.5877C37.842 68.8174 38.3051 67.893 39.4372 67.893C40.415 67.893 40.9811 68.6633 40.9811 69.5877H37.7905Z" fill="#BBBBBB"/>
<path fill-rule="evenodd" clip-rule="evenodd" d="M43.863 73.2854H45.0466V67.1226H43.863V73.2854ZM45.0981 64.4521H43.8115V65.736H45.0981V64.4521Z" fill="#BBBBBB"/>
<path fill-rule="evenodd" clip-rule="evenodd" d="M51.8395 71.8988C51.5822 72.1042 50.7073 72.515 49.9354 72.515C48.8547 72.515 47.9284 71.6933 47.9284 70.4608H52.3541C52.3541 68.4579 51.6851 66.9686 49.5752 66.9686C47.8255 66.9686 46.6934 68.2525 46.6934 70.1013C46.6934 72.1042 47.7226 73.4395 49.884 73.4395C50.9132 73.4395 51.4278 73.1827 51.8395 73.0286V71.8988ZM47.9284 69.5877C47.9799 68.8174 48.443 67.893 49.5752 67.893C50.553 67.893 51.119 68.6633 51.119 69.5877H47.9284Z" fill="#BBBBBB"/>
<path fill-rule="evenodd" clip-rule="evenodd" d="M57.3972 73.2854H62.1831V72.2069H58.6323V69.4336H61.8229V68.3552H58.6323V65.8901H62.1831V64.8116H57.3972V73.2854Z" fill="#BBBBBB"/>
<path fill-rule="evenodd" clip-rule="evenodd" d="M68.9762 67.1226H67.8441L66.0944 72.1555L64.3962 67.1226H63.1611L65.374 73.2853H66.7634L68.9762 67.1226Z" fill="#BBBBBB"/>
<path fill-rule="evenodd" clip-rule="evenodd" d="M70.4169 68.5093C70.8801 68.1498 71.5491 67.893 72.2181 67.893C73.3502 67.893 73.7619 68.4065 73.7619 69.485C73.2988 69.485 72.99 69.485 72.5268 69.485C71.3432 69.485 69.645 69.9472 69.645 71.4879C69.645 72.8745 70.5713 73.4395 71.9093 73.4395C72.99 73.4395 73.5561 72.8745 73.8648 72.515V73.2854H74.9455C74.8941 73.1313 74.8941 72.7718 74.8941 72.1042V69.5364C74.8941 67.8416 74.1736 66.9686 72.4239 66.9686C71.6005 66.9686 70.9315 67.2253 70.3655 67.5335L70.4169 68.5093ZM73.7619 70.8716C73.7619 71.7961 73.1444 72.515 72.0122 72.515C71.4976 72.515 70.8801 72.1555 70.8801 71.4879C70.8801 70.4094 72.4239 70.3067 73.0415 70.3067C73.2473 70.3067 73.5046 70.3581 73.7619 70.3581V70.8716Z" fill="#BBBBBB"/>
<path fill-rule="evenodd" clip-rule="evenodd" d="M76.7979 73.2854H77.9815V70.4094C77.9815 68.9201 78.5475 67.893 79.8341 67.893C80.8633 67.9443 81.1721 68.6633 81.1721 70.1013V73.2854H82.3042V69.6391C82.3042 67.9443 81.5837 66.9686 79.9884 66.9686C79.1136 66.9686 78.2902 67.3794 77.93 68.0984V67.1226H76.7979V73.2854Z" fill="#BBBBBB"/>
<path fill-rule="evenodd" clip-rule="evenodd" d="M89.715 67.1226H88.6857V68.047H88.6343C88.2741 67.3794 87.708 66.9686 86.5758 66.9686C84.7232 66.9686 83.8484 68.6633 83.8484 70.2554C83.8484 71.8474 84.7232 73.2854 86.4729 73.2854C87.2448 73.2854 88.0682 72.9772 88.5314 72.3096H88.5828V72.9259C88.5828 74.2612 87.8624 75.0829 86.6788 75.0829C85.8039 75.0829 85.2893 74.9288 84.4145 74.5179L84.3115 75.5451C85.2893 75.9046 85.8554 76.0073 86.5244 76.0073C88.7372 76.0073 89.715 74.9288 89.715 73.0286V67.1226ZM86.7817 72.361C85.701 72.361 85.032 71.3338 85.032 70.204C85.032 69.1255 85.5981 67.893 86.7817 67.893C87.9653 67.893 88.5828 68.9715 88.5828 70.2554C88.5828 71.4366 87.8624 72.361 86.7817 72.361Z" fill="#BBBBBB"/>
<path fill-rule="evenodd" clip-rule="evenodd" d="M96.4049 71.8988C96.1476 72.1042 95.2728 72.515 94.5008 72.515C93.4202 72.515 92.4424 71.6933 92.4424 70.4608H96.8681C96.8681 68.4579 96.1991 66.9686 94.1406 66.9686C92.3909 66.9686 91.2588 68.2525 91.2588 70.1013C91.2588 72.1042 92.2366 73.4395 94.4494 73.4395C95.4786 73.4395 95.9932 73.1827 96.4049 73.0286V71.8988ZM92.4424 69.5877C92.5453 68.8174 93.0085 67.893 94.1406 67.893C95.1184 67.893 95.6845 68.6633 95.6845 69.5877H92.4424Z" fill="#BBBBBB"/>
<path fill-rule="evenodd" clip-rule="evenodd" d="M98.5662 73.2853H99.6983V64.1953H98.5662V73.2853Z" fill="#BBBBBB"/>
<path fill-rule="evenodd" clip-rule="evenodd" d="M101.911 73.2854H103.095V67.1226H101.911V73.2854ZM103.146 64.4521H101.86V65.736H103.146V64.4521Z" fill="#BBBBBB"/>
<path fill-rule="evenodd" clip-rule="evenodd" d="M104.638 73.08C105.153 73.3881 105.771 73.4395 106.337 73.4395C107.469 73.4395 108.498 72.8232 108.498 71.4879C108.498 69.5364 105.822 69.8959 105.822 68.612C105.822 68.1498 106.337 67.893 106.903 67.893C107.16 67.893 107.88 68.047 108.138 68.2011L108.189 67.2253C107.778 67.0713 107.314 66.9686 106.8 66.9686C105.565 66.9686 104.587 67.5848 104.587 68.8687C104.587 70.6149 107.314 70.5121 107.314 71.642C107.314 72.3096 106.645 72.515 106.131 72.515C105.771 72.515 105.153 72.361 104.69 72.1042L104.638 73.08Z" fill="#BBBBBB"/>
<path fill-rule="evenodd" clip-rule="evenodd" d="M113.902 67.2253C113.593 67.0713 112.975 66.9686 112.512 66.9686C110.66 66.9686 109.373 68.3038 109.373 70.204C109.373 71.9501 110.66 73.4395 112.512 73.4395C112.924 73.4395 113.49 73.3881 113.953 73.1827L113.902 72.1555C113.541 72.4123 113.027 72.515 112.667 72.515C111.174 72.515 110.608 71.2825 110.608 70.204C110.608 69.0228 111.329 67.893 112.564 67.893C112.924 67.893 113.387 67.9443 113.799 68.1498L113.902 67.2253Z" fill="#BBBBBB"/>
<path fill-rule="evenodd" clip-rule="evenodd" d="M115.291 73.2853H116.423V70.4094C116.423 68.92 116.989 67.8929 118.327 67.8929C119.305 67.9443 119.614 68.6632 119.614 70.1012V73.2853H120.746V69.639C120.746 67.9443 120.026 66.9685 118.43 66.9685C117.556 66.9685 116.835 67.328 116.423 67.9956V64.1953H115.291V73.2853V73.2853Z" fill="#BBBBBB"/>
<path fill-rule="evenodd" clip-rule="evenodd" d="M127.436 71.8988C127.179 72.1042 126.304 72.515 125.532 72.515C124.451 72.515 123.473 71.6933 123.473 70.4608H127.899C127.899 68.4579 127.23 66.9686 125.172 66.9686C123.422 66.9686 122.29 68.2525 122.29 70.1013C122.29 72.1042 123.268 73.4395 125.48 73.4395C126.51 73.4395 127.024 73.1827 127.436 73.0286V71.8988ZM123.473 69.5877C123.576 68.8174 124.039 67.893 125.172 67.893C126.149 67.893 126.715 68.6633 126.715 69.5877H123.473Z" fill="#BBBBBB"/>
<path fill-rule="evenodd" clip-rule="evenodd" d="M139.478 65.1197C138.757 64.863 138.243 64.6575 136.956 64.6575C134.383 64.6575 132.479 66.4036 132.479 69.0228C132.479 71.6933 134.28 73.4394 136.956 73.4394C138.294 73.4394 139.117 73.234 139.581 73.08V68.6633H136.544V69.6391H138.346V72.2069C138.037 72.3096 137.831 72.361 136.956 72.361C135.206 72.361 133.766 71.0257 133.766 69.0742C133.766 67.174 135.104 65.736 137.059 65.736C138.14 65.736 138.757 65.9414 139.375 66.3523L139.478 65.1197Z" fill="#BBBBBB"/>
<path fill-rule="evenodd" clip-rule="evenodd" d="M146.374 71.8988C146.065 72.1042 145.19 72.515 144.418 72.515C143.337 72.515 142.411 71.6933 142.411 70.4608H146.837C146.837 68.4579 146.168 66.9686 144.109 66.9686C142.36 66.9686 141.176 68.2525 141.176 70.1013C141.176 72.1042 142.205 73.4395 144.418 73.4395C145.396 73.4395 145.91 73.1827 146.374 73.0286V71.8988ZM142.411 69.5877C142.463 68.8174 142.926 67.893 144.058 67.893C145.036 67.893 145.602 68.6633 145.602 69.5877H142.411Z" fill="#BBBBBB"/>
<path fill-rule="evenodd" clip-rule="evenodd" d="M148.329 73.2854H149.461V70.1527C149.461 69.0228 149.925 67.893 151.108 67.893C152.035 67.893 152.24 68.8174 152.24 69.5877V73.2854H153.373V70.1527C153.373 69.0228 153.836 67.893 154.968 67.893C155.894 67.893 156.1 68.8174 156.1 69.5877V73.2854H157.232V69.331C157.232 67.9957 156.666 66.9686 155.071 66.9686C154.505 66.9686 153.578 67.2767 153.167 68.1498C152.858 67.3281 152.137 66.9686 151.417 66.9686C150.491 66.9686 149.873 67.2767 149.41 67.9957V67.1226H148.329V73.2854Z" fill="#BBBBBB"/>
<path fill-rule="evenodd" clip-rule="evenodd" d="M163.922 71.8988C163.613 72.1042 162.738 72.515 162.018 72.515C160.937 72.515 159.959 71.6933 159.959 70.4608H164.385C164.385 68.4579 163.716 66.9686 161.658 66.9686C159.908 66.9686 158.724 68.2525 158.724 70.1013C158.724 72.1042 159.754 73.4395 161.966 73.4395C162.944 73.4395 163.459 73.1827 163.922 73.0286V71.8988ZM159.959 69.5877C160.062 68.8174 160.474 67.893 161.606 67.893C162.584 67.893 163.15 68.6633 163.15 69.5877H159.959Z" fill="#BBBBBB"/>
<path fill-rule="evenodd" clip-rule="evenodd" d="M166.032 73.2854H167.216V67.1226H166.032V73.2854ZM167.267 64.4521H165.98V65.736H167.267V64.4521Z" fill="#BBBBBB"/>
<path fill-rule="evenodd" clip-rule="evenodd" d="M169.274 73.2854H170.406V70.4094C170.406 68.9201 171.024 67.893 172.31 67.893C173.288 67.9443 173.597 68.6633 173.597 70.1013V73.2854H174.78V69.6391C174.78 67.9443 174.06 66.9686 172.465 66.9686C171.59 66.9686 170.766 67.3794 170.406 68.0984V67.1226H169.274V73.2854Z" fill="#BBBBBB"/>
<path fill-rule="evenodd" clip-rule="evenodd" d="M181.11 73.2853H182.191V64.1953H181.058V67.9443H181.007C180.647 67.3793 180.029 66.9685 178.948 66.9685C177.147 66.9685 176.272 68.4065 176.272 70.1012C176.272 71.796 177.096 73.4394 178.948 73.4394C180.029 73.4394 180.75 72.8745 181.058 72.4122H181.11V73.2853ZM177.508 70.1526C177.456 69.0227 177.971 67.8929 179.206 67.8929C180.441 67.8929 181.058 69.0741 181.058 70.2039C181.058 71.2311 180.492 72.515 179.206 72.515C177.971 72.515 177.456 71.1283 177.508 70.1526Z" fill="#BBBBBB"/>
<path fill-rule="evenodd" clip-rule="evenodd" d="M188.88 71.8988C188.572 72.1042 187.697 72.515 186.976 72.515C185.896 72.515 184.918 71.6933 184.918 70.4608H189.344C189.344 68.4579 188.675 66.9686 186.616 66.9686C184.866 66.9686 183.683 68.2525 183.683 70.1013C183.683 72.1042 184.712 73.4395 186.925 73.4395C187.954 73.4395 188.417 73.1827 188.88 73.0286V71.8988ZM184.918 69.5877C185.021 68.8174 185.484 67.893 186.565 67.893C187.594 67.893 188.109 68.6633 188.109 69.5877H184.918Z" fill="#BBBBBB"/>
<path fill-rule="evenodd" clip-rule="evenodd" d="M190.888 73.2854H192.02V70.4094C192.02 68.9201 192.586 67.893 193.872 67.893C194.902 67.9443 195.21 68.6633 195.21 70.1013V73.2854H196.343V69.6391C196.343 67.9443 195.622 66.9686 194.027 66.9686C193.152 66.9686 192.329 67.3794 192.02 68.0984H191.968V67.1226H190.888V73.2854Z" fill="#BBBBBB"/>
<path fill-rule="evenodd" clip-rule="evenodd" d="M26.1086 52.8969H33.4161V41.8039H43.9657V36.617H33.4161V30.6596H44.4288V25.4727H26.1086V52.8969Z" fill="#BBBBBB"/>
<path fill-rule="evenodd" clip-rule="evenodd" d="M48.7517 52.8969H68.5128V47.7099H56.0592V41.4958H67.3807V36.3088H56.0592V30.6596H68.0497V25.4727H48.7517V52.8969Z" fill="#BBBBBB"/>
<path fill-rule="evenodd" clip-rule="evenodd" d="M97.4856 36.8738H86.1127V42.0608H90.4354V47.4532C89.7664 47.7613 88.7886 47.9154 87.8109 47.9154C82.4589 47.9154 78.6508 44.6799 78.6508 39.2875C78.6508 32.9194 83.5396 30.4543 89.4576 30.4543C91.2073 30.4543 93.8833 30.8651 96.1476 32.2004L96.7651 26.243C94.0892 25.2159 90.281 25.0105 88.4284 25.0105C78.3935 25.0105 71.1375 28.9649 71.1375 39.2875C71.1375 49.6615 79.5771 53.3591 86.8846 53.3591C89.4062 53.3591 92.8541 53.2564 97.4856 52.0752V36.8738Z" fill="#BBBBBB"/>
</svg>
