<svg width="89" height="29" viewBox="0 0 89 29" fill="none" xmlns="http://www.w3.org/2000/svg">
<path d="M27.5936 1.56402V1.57299V1.58195V12.4735H27.5919C27.5883 12.8915 27.2483 13.2295 26.8272 13.2295C26.8254 13.2295 26.8254 13.2291 26.8244 13.2291V13.23H15.901C15.8903 13.2304 15.8799 13.2336 15.8693 13.2336C15.4465 13.2336 15.1029 12.8933 15.1029 12.4733V12.4322V12.425C15.4999 6.23395 20.4558 1.27764 26.6738 0.828821L26.8258 0.816177C27.2422 0.816177 27.5815 1.14359 27.5923 1.55459H27.594L27.5936 1.56402ZM27.5936 26.7071V26.7175H27.5919C27.5811 27.1282 27.2418 27.4555 26.8254 27.4555L26.6734 27.4433C20.4556 26.9941 15.4996 22.0378 15.1025 15.8468V15.8397V15.7982C15.1025 15.3783 15.4462 15.0379 15.8689 15.0379C15.8796 15.0379 15.89 15.0406 15.9007 15.0415H26.8242V15.0424H26.8268C27.2479 15.0424 27.5881 15.3804 27.5915 15.7981H27.5932V26.6896V26.6987L27.5936 26.7071Z" fill="#BBBBBB"/>
<path d="M13.3181 1.56402C13.3181 1.56671 13.3199 1.5694 13.3199 1.57299C13.3199 1.57568 13.3181 1.57837 13.3181 1.58195V12.4735H13.3163C13.3154 12.8915 12.973 13.2295 12.5519 13.2295L12.5501 13.2291V13.23H1.62724C1.61657 13.2304 1.6059 13.2336 1.59389 13.2336C1.17112 13.2336 0.829166 12.8933 0.829166 12.4733C0.829166 12.4567 0.827373 12.4485 0.829166 12.4322V12.425C1.22589 6.23395 6.18187 1.27764 12.3985 0.828821L12.5521 0.816177C12.9685 0.816177 13.3074 1.14359 13.3165 1.55459H13.3182L13.3181 1.56402ZM1.59669 27.4555C1.18027 27.4555 0.841317 27.128 0.830636 26.6898L0.832431 15.7984C0.833326 15.3807 1.17572 15.0427 1.59849 15.0414C1.59849 15.0414 12.543 15.0378 12.555 15.0378C12.9778 15.0378 13.3197 15.3781 13.3197 15.7981C13.3197 15.8147 13.3215 15.823 13.3197 15.8465C12.923 22.0376 7.96703 26.9937 1.75043 27.4429L1.59669 27.4555Z" fill="#BBBBBB"/>
<path d="M34.85 4.07845V6.73913H39.2446V8.73464H34.85V13.2073H32.3485V2.0753H39.7449V4.07845H34.85ZM47.894 4.93477V13.2073H45.6389L45.5696 12.3357C45.3028 12.6671 44.9822 12.9206 44.6076 13.0965C44.233 13.2723 43.8046 13.3603 43.3222 13.3603C42.455 13.3603 41.7753 13.1105 41.2827 12.611C40.7902 12.1115 40.5438 11.3367 40.5438 10.2867V4.93477H42.9451V10.302C42.9451 10.6843 43.0438 10.9684 43.2415 11.1545C43.4391 11.3405 43.7123 11.4335 44.0612 11.4335C44.7437 11.4335 45.2182 11.1991 45.485 10.7301V4.93477H47.894ZM56.0086 5.53112C56.4678 6.03063 56.6975 6.84872 56.6975 7.98536V13.2073H54.2883V7.97009C54.2883 7.49096 54.187 7.16091 53.9844 6.97997C53.7816 6.79903 53.4649 6.70856 53.0338 6.70856C52.4642 6.70856 52.0384 6.93791 51.7562 7.39666V13.2073H49.3626V4.93477H51.61L51.6946 5.89047C51.982 5.52857 52.327 5.25333 52.7298 5.06474C53.1325 4.87614 53.5803 4.78185 54.0727 4.78185C54.904 4.78185 55.5493 5.0316 56.0086 5.53112ZM65.4853 1.46365V13.2073H63.3227L63.2072 12.3128C62.6632 13.0111 61.968 13.3603 61.1214 13.3603C60.4441 13.3603 59.8618 13.1806 59.3743 12.8212C58.8868 12.4619 58.5161 11.9662 58.2621 11.3342C58.008 10.7021 57.881 9.98089 57.881 9.17045V9.00987C57.881 8.16887 58.008 7.4298 58.2621 6.79265C58.5161 6.15551 58.8868 5.66109 59.3743 5.30941C59.8618 4.9577 60.4492 4.78185 61.1367 4.78185C61.9168 4.78185 62.5633 5.07748 63.0763 5.66875V1.46365H65.4853ZM62.5491 11.2309C62.7724 11.0959 62.9481 10.9009 63.0763 10.6461V7.49604C62.8248 6.97105 62.3811 6.70856 61.7448 6.70856C61.2369 6.70856 60.866 6.91498 60.6325 7.32785C60.3991 7.74071 60.2825 8.30139 60.2825 9.00987V9.17045C60.2825 9.86366 60.3954 10.4141 60.621 10.8219C60.8467 11.2297 61.2162 11.4335 61.7294 11.4335C62.0526 11.4335 62.3259 11.366 62.5491 11.2309ZM69.332 1.91856C69.5784 2.14537 69.7015 2.43973 69.7015 2.80163C69.7015 3.15844 69.5784 3.45023 69.332 3.67707C69.0858 3.90387 68.7624 4.01729 68.3623 4.01729C67.962 4.01729 67.64 3.90387 67.3964 3.67707C67.1527 3.45023 67.0308 3.15844 67.0308 2.80163C67.0308 2.43973 67.1527 2.14537 67.3964 1.91856C67.64 1.69174 67.962 1.57834 68.3623 1.57834C68.7624 1.57834 69.0858 1.69174 69.332 1.91856ZM67.1692 13.2073V4.93477H69.5784V13.2073H67.1692ZM77.8545 5.53112C78.3137 6.03063 78.5432 6.84872 78.5432 7.98536V13.2073H76.1343V7.97009C76.1343 7.49096 76.033 7.16091 75.8301 6.97997C75.6275 6.79903 75.3107 6.70856 74.8797 6.70856C74.3102 6.70856 73.8843 6.93791 73.602 7.39666V13.2073H71.2085V4.93477H73.4559L73.5405 5.89047C73.8278 5.52857 74.1729 5.25333 74.5756 5.06474C74.9785 4.87614 75.4261 4.78185 75.9187 4.78185C76.75 4.78185 77.3953 5.0316 77.8545 5.53112ZM87.4928 4.93477V12.8939C87.4928 13.6432 87.3222 14.2866 86.981 14.8244C86.6399 15.3621 86.1601 15.7699 85.5419 16.0477C84.9234 16.3255 84.2039 16.4644 83.3828 16.4644C82.8133 16.4644 82.2374 16.3548 81.6549 16.1356C81.0726 15.9164 80.6147 15.6081 80.2812 15.2105L81.3202 13.7502C81.5612 14.0152 81.8487 14.2255 82.1822 14.3809C82.5158 14.5364 82.8826 14.6141 83.2829 14.6141C83.8575 14.6141 84.3026 14.4638 84.6181 14.163C84.9338 13.8623 85.0915 13.4367 85.0915 12.8862V12.5039C84.5734 13.0748 83.919 13.3603 83.129 13.3603C82.4465 13.3603 81.8501 13.1806 81.3394 12.8212C80.8289 12.4619 80.4363 11.9637 80.1618 11.3265C79.8873 10.6894 79.7501 9.97068 79.7501 9.17045V9.00987C79.7501 8.17395 79.8873 7.43744 80.1618 6.80031C80.4363 6.16317 80.8301 5.66747 81.3433 5.31321C81.8563 4.95897 82.4567 4.78185 83.1443 4.78185C84.0372 4.78185 84.7324 5.08512 85.2301 5.69168L85.3224 4.93477H87.4928ZM85.0915 10.776V7.36607C84.8145 6.92772 84.368 6.70856 83.7523 6.70856C83.234 6.70856 82.8378 6.92134 82.5631 7.34695C82.2887 7.77256 82.1514 8.32688 82.1514 9.00987V9.17045C82.1514 9.83816 82.2861 10.3823 82.5555 10.8028C82.8248 11.2233 83.2187 11.4335 83.737 11.4335C84.3527 11.4335 84.8042 11.2144 85.0915 10.776ZM40.6455 25.3147C40.2709 25.9033 39.7463 26.3608 39.0715 26.6871C38.3967 27.0132 37.6078 27.1763 36.7047 27.1763C35.7401 27.1763 34.9063 26.9584 34.2034 26.5227C33.5004 26.0869 32.9616 25.4637 32.587 24.6533C32.2124 23.8428 32.0251 22.8845 32.0251 21.7786V21.1364C32.0251 20.0405 32.2176 19.0847 32.6024 18.2692C32.9874 17.4537 33.5324 16.8267 34.238 16.3884C34.9436 15.95 35.7658 15.7308 36.7047 15.7308C37.6335 15.7308 38.4289 15.9003 39.0907 16.2393C39.7525 16.5782 40.2669 17.0472 40.6339 17.6461C41.0008 18.245 41.2201 18.9344 41.292 19.7142H38.7982C38.7571 19.0516 38.5777 18.561 38.2594 18.2424C37.9414 17.9239 37.4231 17.7646 36.7047 17.7646C35.971 17.7646 35.4297 18.0322 35.0808 18.5674C34.7318 19.1026 34.5574 19.9537 34.5574 21.1211V21.7786C34.5574 22.5737 34.6279 23.2159 34.7691 23.7052C34.9102 24.1946 35.1372 24.5565 35.4501 24.7909C35.7633 25.0253 36.1815 25.1425 36.7047 25.1425C37.3769 25.1425 37.8811 24.9898 38.2172 24.6839C38.5532 24.378 38.7418 23.9066 38.7829 23.2693H41.2765C41.2303 24.0443 41.0201 24.7259 40.6455 25.3147ZM44.7847 15.7347C45.0309 15.9615 45.154 16.2558 45.154 16.6177C45.154 16.9745 45.0309 17.2663 44.7847 17.4932C44.5383 17.72 44.2151 17.8334 43.8148 17.8334C43.4147 17.8334 43.0927 17.72 42.8489 17.4932C42.6052 17.2663 42.4833 16.9745 42.4833 16.6177C42.4833 16.2558 42.6052 15.9615 42.8489 15.7347C43.0927 15.5078 43.4147 15.3944 43.8148 15.3944C44.2151 15.3944 44.5383 15.5078 44.7847 15.7347ZM42.6219 27.0234V18.7509H45.0309V27.0234H42.6219ZM51.5868 18.6897L51.5562 20.9988C51.161 20.9579 50.8839 20.9375 50.7249 20.9375C50.3042 20.9375 49.9616 21.0039 49.6973 21.1364C49.433 21.2689 49.2395 21.4676 49.1162 21.7327V27.0234H46.7148V18.7509H48.9701L49.0469 19.7678C49.2573 19.3905 49.5177 19.1013 49.8281 18.9C50.1387 18.6986 50.4913 18.598 50.8865 18.598C51.1737 18.598 51.4072 18.6285 51.5868 18.6897ZM59.5205 24.1028C59.5205 24.6992 59.3666 25.2305 59.0586 25.697C58.7507 26.1633 58.3325 26.5265 57.804 26.7864C57.2757 27.0464 56.6855 27.1763 56.0339 27.1763C55.1975 27.1763 54.4882 26.9953 53.9057 26.6335C53.3233 26.2716 52.8873 25.7759 52.5973 25.1465C52.3073 24.517 52.1624 23.7971 52.1624 22.9866V22.7954C52.1624 21.9849 52.3073 21.2638 52.5973 20.6316C52.8873 19.9996 53.3222 19.5027 53.9019 19.1408C54.4817 18.7789 55.1899 18.598 56.0262 18.598C56.7138 18.598 57.3204 18.7292 57.8464 18.9917C58.3724 19.2542 58.7829 19.6339 59.0778 20.131C59.3729 20.6279 59.5205 21.2153 59.5205 21.8933H57.2653C57.26 21.4906 57.1461 21.1617 56.9229 20.9069C56.6996 20.6521 56.3828 20.5246 55.9722 20.5246C55.4284 20.5246 55.0577 20.7272 54.8602 21.1325C54.6625 21.5377 54.5638 22.0919 54.5638 22.7954V22.9866C54.5638 23.7052 54.6625 24.262 54.8602 24.6572C55.0577 25.0522 55.4335 25.2497 55.9877 25.2497C56.3726 25.2497 56.6804 25.1465 56.9113 24.9399C57.1422 24.7336 57.2602 24.4546 57.2653 24.1028H59.5205ZM60.7888 27.0234V15.2797H63.1978V27.0234H60.7888ZM72.2628 23.6671H67.0369C67.1291 24.1564 67.3422 24.5424 67.6757 24.8253C68.0091 25.1082 68.4351 25.2497 68.9533 25.2497C69.3536 25.2497 69.7229 25.1783 70.0615 25.0355C70.4002 24.8928 70.6902 24.6711 70.9313 24.3704L72.0628 25.7084C71.7702 26.1212 71.3418 26.4691 70.7774 26.7521C70.2129 27.035 69.5536 27.1763 68.7993 27.1763C67.9425 27.1763 67.1959 26.9967 66.5596 26.6374C65.9235 26.2779 65.436 25.7926 65.0973 25.1808C64.7586 24.5692 64.5892 23.8964 64.5892 23.1623V22.8718C64.5892 22.0513 64.7459 21.3186 65.0588 20.6736C65.3718 20.0289 65.8245 19.5218 66.4172 19.1523C67.01 18.7827 67.7168 18.598 68.5376 18.598C69.3228 18.598 69.995 18.7623 70.5541 19.0911C71.1135 19.4199 71.5382 19.8887 71.8279 20.4979C72.1179 21.107 72.2628 21.8243 72.2628 22.6501V23.6671ZM69.9076 21.8933C69.9076 21.4651 69.791 21.1299 69.5576 20.8878C69.3239 20.6458 68.979 20.5246 68.5223 20.5246C67.7064 20.5246 67.214 21.0445 67.0445 22.0843H69.9076V21.8933Z" fill="#BBBBBB"/>
</svg>
