<svg width="1116" height="90" viewBox="0 0 1116 90" fill="none" xmlns="http://www.w3.org/2000/svg">
<path d="M778.571 42.7919C779.349 40.9683 780.795 39.5227 782.618 38.7665C784.508 37.9881 786.644 37.9881 788.534 38.7665C789.446 39.1446 790.246 39.7006 790.958 40.39C791.648 41.0794 792.226 41.9023 792.604 42.7919C793.004 43.726 793.204 44.7268 793.204 45.7498V53.3559H790.202V45.7498C790.202 45.1493 790.091 44.5267 789.846 43.9706C789.112 42.2804 787.444 41.1684 785.576 41.1907C784.976 41.1907 784.353 41.3018 783.797 41.5465C783.241 41.7689 782.752 42.1025 782.329 42.525C781.906 42.9476 781.573 43.4369 781.35 43.9706C781.106 44.5267 780.995 45.1493 780.995 45.7498V53.3559H777.97V45.7498C777.97 44.7268 778.17 43.726 778.571 42.7919Z" fill="#BBBBBB"/>
<path d="M806.548 47.974L808.683 50.109L807.638 51.1543C804.68 54.1345 799.876 54.1345 796.919 51.1766L796.896 51.1543C796.162 50.4426 795.606 49.5753 795.228 48.6412C794.872 47.7293 794.695 46.7508 794.695 45.7945C794.695 44.8159 794.872 43.8596 795.228 42.9478C795.606 42.0137 796.162 41.1463 796.874 40.4347C797.586 39.7007 798.453 39.1447 799.387 38.7667C801.211 38.0327 803.279 38.0327 805.103 38.7667C806.059 39.1447 806.904 39.723 807.616 40.4347L808.683 41.4799L800.277 49.9089C802.034 50.7762 804.146 50.4204 805.525 49.0193L806.548 47.974ZM799.009 42.5252C797.608 43.9041 797.252 46.0169 798.119 47.7738L799.343 46.5284L801.122 44.7714C801.745 44.1487 802.345 43.5482 802.923 42.9922C803.502 42.4362 803.946 41.9914 804.258 41.6801C803.413 41.2575 802.456 41.1018 801.544 41.2353C800.566 41.3687 799.676 41.8358 799.009 42.5252Z" fill="#BBBBBB"/>
<path d="M816.824 38.1439C817.846 38.1439 818.847 38.3441 819.781 38.7444C821.583 39.5228 823.028 40.9684 823.807 42.7699C824.207 43.7039 824.407 44.7047 824.407 45.7278V53.3339H816.824C815.823 53.3339 814.822 53.1336 813.888 52.7333C812.064 51.955 810.596 50.4871 809.818 48.6635C809.017 46.7731 809.017 44.638 809.818 42.7699C810.196 41.8803 810.752 41.0574 811.464 40.3679C812.175 39.6785 812.998 39.1225 813.888 38.7444C814.8 38.3441 815.8 38.1439 816.824 38.1439ZM821.383 50.3092V45.7055C821.383 45.1051 821.271 44.4823 821.027 43.9263C820.56 42.8143 819.692 41.947 818.58 41.4799C818.024 41.2353 817.402 41.1241 816.801 41.1241C816.178 41.1241 815.578 41.2353 815 41.4799C813.888 41.947 813.02 42.8143 812.553 43.9263C812.309 44.4823 812.198 45.1051 812.198 45.7055C812.175 48.2409 814.221 50.287 816.757 50.3092C816.779 50.3092 816.801 50.3092 816.801 50.3092H821.383Z" fill="#BBBBBB"/>
<path d="M834.905 38.1439V41.1463H833.392C832.792 41.1463 832.169 41.2575 831.613 41.5022C830.501 41.9692 829.634 42.8366 829.167 43.9485C828.922 44.5046 828.811 45.1273 828.811 45.7278V53.3339H825.764V45.7055C825.764 44.6825 825.964 43.6817 826.364 42.7476C826.743 41.858 827.299 41.0351 828.01 40.3457C828.722 39.6562 829.545 39.1002 830.456 38.7222C831.391 38.3218 832.391 38.1217 833.392 38.1217H834.905V38.1439Z" fill="#BBBBBB"/>
<path d="M849.516 42.8144C849.138 41.9026 848.582 41.0797 847.893 40.3903C845.713 38.2108 842.399 37.5436 839.553 38.7445C837.729 39.5229 836.261 40.9908 835.483 42.8144C835.082 43.7485 834.882 44.7493 834.882 45.7501C834.882 45.9948 834.904 46.2394 834.927 46.4841V56.6923H837.862V51.7549C838.374 52.1553 838.952 52.4888 839.553 52.7558C841.443 53.5342 843.578 53.5342 845.468 52.7558C847.292 51.9995 848.738 50.554 849.516 48.7303C850.317 46.8399 850.317 44.7048 849.516 42.8144ZM846.781 47.5293C846.558 48.0631 846.225 48.5746 845.802 48.9749C845.379 49.3975 844.868 49.7311 844.312 49.9535C843.155 50.4205 841.865 50.4205 840.709 49.9535C840.153 49.7311 839.664 49.3975 839.241 48.9749C838.819 48.5523 838.485 48.0631 838.263 47.5293C838.018 46.9733 837.907 46.3506 837.907 45.7501C837.907 43.2148 839.953 41.1464 842.488 41.1464C842.511 41.1464 842.51 41.1464 842.533 41.1464C843.155 41.1464 843.756 41.2577 844.334 41.5023C846.024 42.214 847.159 43.9042 847.136 45.7501C847.136 46.3728 847.025 46.9733 846.781 47.5293Z" fill="#BBBBBB"/>
<path d="M866.085 45.7501C866.085 46.7731 865.885 47.7739 865.484 48.708C864.706 50.5317 863.261 51.9772 861.437 52.7333C859.547 53.5119 857.412 53.5119 855.521 52.7333C854.609 52.3553 853.786 51.7994 853.097 51.1099C852.407 50.4205 851.829 49.6199 851.451 48.708C850.65 46.8176 850.65 44.7048 851.451 42.8144C852.23 40.9907 853.675 39.5229 855.521 38.7445C858.368 37.5435 861.682 38.1885 863.861 40.3903C864.551 41.1019 865.106 41.9248 865.484 42.8144C865.885 43.7485 866.085 44.7493 866.085 45.7501ZM863.105 45.7501C863.127 43.8819 862.015 42.2139 860.28 41.5023C859.124 41.0352 857.834 41.0352 856.678 41.5023C856.122 41.7246 855.632 42.0583 855.187 42.4808C854.32 43.3482 853.853 44.5269 853.853 45.7501C853.853 46.3506 853.964 46.9733 854.209 47.5293C854.431 48.063 854.787 48.5746 855.187 48.9749C855.61 49.3975 856.122 49.731 856.678 49.9534C857.834 50.4205 859.124 50.4205 860.28 49.9534C861.392 49.4864 862.282 48.619 862.749 47.5071C862.994 46.9733 863.105 46.3728 863.105 45.7501Z" fill="#BBBBBB"/>
<path d="M882.009 34.8525H879.073V39.7452C878.562 39.3449 877.983 38.9891 877.383 38.7445C875.493 37.9661 873.358 37.9661 871.467 38.7445C869.643 39.5228 868.175 40.9907 867.397 42.8144C866.596 44.7048 866.596 46.8176 867.397 48.708C867.775 49.5976 868.353 50.4204 869.043 51.1099C869.732 51.7993 870.555 52.3553 871.467 52.7333C873.358 53.5119 875.493 53.5119 877.383 52.7333C879.206 51.9772 880.652 50.5316 881.431 48.708C881.831 47.7739 882.031 46.7731 882.031 45.75C882.031 45.6388 882.031 45.5276 882.009 45.4164H882.031L882.009 34.8525ZM878.695 47.5292C878.473 48.063 878.139 48.5745 877.717 48.9748C877.294 49.3974 876.782 49.731 876.226 49.9534C875.07 50.4204 873.78 50.4204 872.623 49.9534C872.067 49.731 871.578 49.3974 871.134 48.9748C870.711 48.5523 870.377 48.063 870.155 47.5292C869.91 46.9732 869.799 46.3505 869.799 45.75C869.799 43.2147 871.845 41.1464 874.38 41.1464C874.403 41.1464 874.403 41.1464 874.425 41.1464C875.048 41.1464 875.648 41.2576 876.226 41.5022C877.939 42.2139 879.051 43.8819 879.051 45.75C879.051 46.3728 878.94 46.9732 878.695 47.5292Z" fill="#BBBBBB"/>
<path fill-rule="evenodd" clip-rule="evenodd" d="M751.682 25C741.03 25 732.378 33.6514 732.378 44.3043C732.378 54.9573 741.03 63.6086 751.682 63.6086C762.336 63.6086 770.987 54.9573 770.987 44.3043C770.965 33.6514 762.336 25.0222 751.682 25ZM744.721 36.1646L745.544 34.4966C746.1 33.3623 747.19 32.7174 748.747 32.7174H757.376C757.776 32.6952 758.199 32.8063 758.532 33.051C758.777 33.2289 758.91 33.518 758.91 33.8294C758.91 34.0518 758.844 34.2964 758.755 34.4966H748.791C748.169 34.4966 747.702 34.541 747.19 35.4974L746.856 36.1646L740.607 49.1527H738.427L744.721 36.1646ZM737.96 51.5102C737.96 51.8215 738.094 52.1108 738.338 52.2885C738.672 52.5333 739.072 52.6443 739.495 52.5778H752.172C753.729 52.5778 754.818 51.9327 755.374 50.7985L755.419 50.6873C755.461 50.6455 755.485 50.595 755.508 50.5467C755.522 50.5179 755.536 50.4898 755.552 50.4649L760.957 39.2782H758.777L757.709 41.5244L757.354 42.2806L757.331 42.3473L754.04 49.175L753.706 49.8422C753.195 50.7985 752.728 50.843 752.105 50.843H740.829C740.818 50.843 740.807 50.8374 740.796 50.8319C740.785 50.8263 740.774 50.8207 740.763 50.8207H738.138C738.027 51.0431 737.96 51.2655 737.96 51.5102ZM757.865 53.7562C757.843 53.7897 757.821 53.8286 757.798 53.8674C757.776 53.9063 757.754 53.9452 757.732 53.9787L757.687 54.0897C757.131 55.2241 756.042 55.8689 754.485 55.8689H745.856C745.455 55.8912 745.033 55.7802 744.699 55.5354C744.454 55.3576 744.321 55.0683 744.321 54.757C744.321 54.5123 744.388 54.29 744.499 54.0677H747.123C747.134 54.0677 747.146 54.0731 747.157 54.0787C747.168 54.0843 747.179 54.0897 747.19 54.0897H754.529C755.085 54.0897 755.53 54.001 756.019 53.1114L756.353 52.444L762.625 39.3892H764.804L757.865 53.7562ZM751.482 37.5878H765.227C765.316 37.3876 765.382 37.143 765.405 36.9428C765.405 36.6315 765.271 36.3423 765.027 36.1644C764.693 35.9198 764.27 35.8086 763.87 35.8308H751.327C749.77 35.8308 748.68 36.4758 748.124 37.61L742.52 49.2193H744.655L745.922 46.6617L749.859 38.4996C750.304 37.7435 750.771 37.5878 751.482 37.5878Z" fill="#BBBBBB"/>
<path fill-rule="evenodd" clip-rule="evenodd" d="M919.378 0H933.118V13.7121H919.378V0Z" fill="#BBBBBB"/>
<path fill-rule="evenodd" clip-rule="evenodd" d="M944.903 0H958.643V13.7121H944.903V0Z" fill="#BBBBBB"/>
<path fill-rule="evenodd" clip-rule="evenodd" d="M919.378 25.4727H933.118V39.1848H919.378V25.4727Z" fill="#BBBBBB"/>
<path fill-rule="evenodd" clip-rule="evenodd" d="M945.315 89.0004H946.447V82.7862H945.315V89.0004ZM946.55 80.1157H945.263V81.3996H946.55V80.1157Z" fill="#BBBBBB"/>
<path fill-rule="evenodd" clip-rule="evenodd" d="M948.557 89.0003H949.689V86.1244C949.689 84.635 950.307 83.5566 951.593 83.5566C952.571 83.6593 952.88 84.3269 952.88 85.7649V89.0003H954.012V85.3027C954.012 83.6593 953.343 82.6321 951.696 82.6321C950.873 82.6321 950.049 83.0943 949.689 83.762H949.638V82.7862H948.557V89.0003Z" fill="#BBBBBB"/>
<path fill-rule="evenodd" clip-rule="evenodd" d="M963.738 89.0003H964.818V79.9103H963.686V83.6593C963.326 83.0944 962.709 82.6322 961.628 82.6322C959.827 82.6322 958.952 84.1215 958.952 85.7649C958.952 87.4596 959.724 89.1544 961.576 89.1544C962.709 89.1544 963.429 88.5895 963.686 88.1273H963.738V89.0003ZM960.136 85.8676C960.136 84.7378 960.599 83.5566 961.834 83.5566C963.069 83.5566 963.686 84.7378 963.686 85.919C963.686 86.9461 963.172 88.23 961.885 88.23C960.65 88.23 960.136 86.8434 960.136 85.8676Z" fill="#BBBBBB"/>
<path fill-rule="evenodd" clip-rule="evenodd" d="M971.508 87.6137C971.251 87.8191 970.376 88.23 969.604 88.23C968.523 88.23 967.546 87.3569 967.546 86.1244H971.971C971.971 84.1728 971.302 82.6321 969.244 82.6321C967.494 82.6321 966.362 83.9674 966.362 85.7649C966.362 87.8191 967.34 89.1544 969.553 89.1544C970.582 89.1544 971.096 88.8976 971.508 88.7435V87.6137ZM967.546 85.3027C967.649 84.481 968.112 83.5566 969.244 83.5566C970.222 83.5566 970.788 84.3269 970.788 85.3027H967.546Z" fill="#BBBBBB"/>
<path fill-rule="evenodd" clip-rule="evenodd" d="M973.515 89.0003H974.648V86.1757C974.648 84.635 975.317 83.6593 976.346 83.6593C976.552 83.6593 976.757 83.6593 976.963 83.762V82.7349C976.757 82.6835 976.552 82.6321 976.243 82.6321C975.574 82.6321 974.905 83.0943 974.596 83.762V82.7862H973.515V89.0003Z" fill="#BBBBBB"/>
<path fill-rule="evenodd" clip-rule="evenodd" d="M985.763 80.6806C985.145 80.4752 984.476 80.3725 983.962 80.3725C982.418 80.3725 981.234 81.1942 981.234 82.6835C981.234 85.3027 984.888 84.7891 984.888 86.6893C984.888 87.6651 983.91 88.0759 983.19 88.0759C982.572 88.0759 981.852 87.8192 981.44 87.6651L981.337 88.7949C981.852 88.949 982.469 89.1544 983.036 89.1544C984.734 89.1544 986.175 88.4354 986.175 86.5866C986.175 83.8134 982.521 84.1729 982.521 82.5808C982.521 81.7078 983.293 81.451 984.013 81.451C984.631 81.451 984.94 81.5537 985.557 81.8105L985.763 80.6806Z" fill="#BBBBBB"/>
<path fill-rule="evenodd" clip-rule="evenodd" d="M991.733 82.8889C991.424 82.7862 990.806 82.6321 990.343 82.6321C988.439 82.6321 987.204 84.0188 987.204 85.8676C987.204 87.6651 988.491 89.1544 990.343 89.1544C990.755 89.1544 991.321 89.103 991.784 88.8976L991.681 87.8705C991.321 88.0759 990.858 88.23 990.446 88.23C989.005 88.23 988.388 86.9974 988.388 85.8676C988.388 84.7377 989.108 83.5566 990.395 83.5566C990.755 83.5566 991.218 83.6593 991.63 83.8647L991.733 82.8889Z" fill="#BBBBBB"/>
<path fill-rule="evenodd" clip-rule="evenodd" d="M993.071 89.0003H994.254V86.1244C994.254 84.6351 994.82 83.5566 996.107 83.5566C997.085 83.6593 997.445 84.3269 997.445 85.7649V89.0003H998.577V85.3027C998.577 83.6593 997.857 82.6322 996.261 82.6322C995.387 82.6322 994.666 83.043 994.254 83.7106V79.9103H993.071V89.0003Z" fill="#BBBBBB"/>
<path fill-rule="evenodd" clip-rule="evenodd" d="M1009.49 82.7863H1008.41L1006.86 87.9219L1005.32 82.7863H1003.98L1002.39 87.9219H1002.33L1000.94 82.7863H999.658L1001.66 89.0004H1003L1004.55 83.8134H1004.6L1006.19 89.0004H1007.53L1009.49 82.7863Z" fill="#BBBBBB"/>
<path fill-rule="evenodd" clip-rule="evenodd" d="M1015.35 87.6137C1015.1 87.8191 1014.22 88.23 1013.45 88.23C1012.37 88.23 1011.44 87.3569 1011.44 86.1244H1015.87C1015.87 84.1728 1015.2 82.6321 1013.09 82.6321C1011.34 82.6321 1010.21 83.9674 1010.21 85.7649C1010.21 87.8191 1011.24 89.1544 1013.4 89.1544C1014.43 89.1544 1014.94 88.8976 1015.35 88.7435V87.6137ZM1011.44 85.3027C1011.49 84.481 1011.96 83.5566 1013.09 83.5566C1014.07 83.5566 1014.63 84.3269 1014.63 85.3027H1011.44Z" fill="#BBBBBB"/>
<path fill-rule="evenodd" clip-rule="evenodd" d="M1017.51 89.0004H1018.65V82.7862H1017.51V89.0004ZM1018.75 80.1157H1017.46V81.3996H1018.75V80.1157Z" fill="#BBBBBB"/>
<path fill-rule="evenodd" clip-rule="evenodd" d="M1020.29 89.0004H1025.34V88.0759H1021.63L1025.18 83.8134V82.7863H1020.45V83.7107H1023.9L1020.29 87.9732V89.0004Z" fill="#BBBBBB"/>
<path fill-rule="evenodd" clip-rule="evenodd" d="M945.212 73.2854H946.447V69.4336H949.586V68.3552H946.447V65.8901H949.74V64.8116H945.212V73.2854Z" fill="#BBBBBB"/>
<path fill-rule="evenodd" clip-rule="evenodd" d="M951.233 73.2854H952.416V70.4608C952.416 68.9201 953.085 67.9443 954.063 67.9443C954.269 67.9443 954.526 67.9957 954.732 68.047V67.0713C954.475 67.0199 954.32 66.9686 953.96 66.9686C953.291 66.9686 952.674 67.4308 952.365 68.047H952.313V67.1226H951.233V73.2854Z" fill="#BBBBBB"/>
<path fill-rule="evenodd" clip-rule="evenodd" d="M960.753 71.8988C960.444 72.1042 959.569 72.515 958.797 72.515C957.717 72.515 956.79 71.6933 956.79 70.4608H961.216C961.216 68.4579 960.547 66.9686 958.489 66.9686C956.739 66.9686 955.555 68.2525 955.555 70.1013C955.555 72.1042 956.585 73.4395 958.797 73.4395C959.775 73.4395 960.29 73.1827 960.753 73.0286V71.8988ZM956.79 69.5877C956.842 68.8174 957.305 67.893 958.437 67.893C959.415 67.893 959.981 68.6633 959.981 69.5877H956.79Z" fill="#BBBBBB"/>
<path fill-rule="evenodd" clip-rule="evenodd" d="M962.863 73.2854H964.047V67.1226H962.863V73.2854ZM964.098 64.4521H962.812V65.736H964.098V64.4521Z" fill="#BBBBBB"/>
<path fill-rule="evenodd" clip-rule="evenodd" d="M970.839 71.8988C970.582 72.1042 969.707 72.515 968.935 72.515C967.855 72.515 966.928 71.6933 966.928 70.4608H971.354C971.354 68.4579 970.685 66.9686 968.575 66.9686C966.826 66.9686 965.693 68.2525 965.693 70.1013C965.693 72.1042 966.723 73.4395 968.884 73.4395C969.913 73.4395 970.428 73.1827 970.839 73.0286V71.8988ZM966.928 69.5877C966.98 68.8174 967.443 67.893 968.575 67.893C969.553 67.893 970.119 68.6633 970.119 69.5877H966.928Z" fill="#BBBBBB"/>
<path fill-rule="evenodd" clip-rule="evenodd" d="M976.397 73.2854H981.183V72.2069H977.632V69.4336H980.823V68.3552H977.632V65.8901H981.183V64.8116H976.397V73.2854Z" fill="#BBBBBB"/>
<path fill-rule="evenodd" clip-rule="evenodd" d="M987.976 67.1226H986.844L985.094 72.1555L983.396 67.1226H982.161L984.374 73.2853H985.763L987.976 67.1226Z" fill="#BBBBBB"/>
<path fill-rule="evenodd" clip-rule="evenodd" d="M989.417 68.5093C989.88 68.1498 990.549 67.893 991.218 67.893C992.35 67.893 992.762 68.4065 992.762 69.485C992.299 69.485 991.99 69.485 991.527 69.485C990.343 69.485 988.645 69.9472 988.645 71.4879C988.645 72.8745 989.571 73.4395 990.909 73.4395C991.99 73.4395 992.556 72.8745 992.865 72.515V73.2854H993.946C993.894 73.1313 993.894 72.7718 993.894 72.1042V69.5364C993.894 67.8416 993.174 66.9686 991.424 66.9686C990.601 66.9686 989.932 67.2253 989.365 67.5335L989.417 68.5093ZM992.762 70.8716C992.762 71.7961 992.144 72.515 991.012 72.515C990.498 72.515 989.88 72.1555 989.88 71.4879C989.88 70.4094 991.424 70.3067 992.041 70.3067C992.247 70.3067 992.505 70.3581 992.762 70.3581V70.8716Z" fill="#BBBBBB"/>
<path fill-rule="evenodd" clip-rule="evenodd" d="M995.798 73.2854H996.981V70.4094C996.981 68.9201 997.548 67.893 998.834 67.893C999.863 67.9443 1000.17 68.6633 1000.17 70.1013V73.2854H1001.3V69.6391C1001.3 67.9443 1000.58 66.9686 998.988 66.9686C998.114 66.9686 997.29 67.3794 996.93 68.0984V67.1226H995.798V73.2854Z" fill="#BBBBBB"/>
<path fill-rule="evenodd" clip-rule="evenodd" d="M1008.71 67.1226H1007.69V68.047H1007.63C1007.27 67.3794 1006.71 66.9686 1005.58 66.9686C1003.72 66.9686 1002.85 68.6633 1002.85 70.2554C1002.85 71.8474 1003.72 73.2854 1005.47 73.2854C1006.24 73.2854 1007.07 72.9772 1007.53 72.3096H1007.58V72.9259C1007.58 74.2612 1006.86 75.0829 1005.68 75.0829C1004.8 75.0829 1004.29 74.9288 1003.41 74.5179L1003.31 75.5451C1004.29 75.9046 1004.86 76.0073 1005.52 76.0073C1007.74 76.0073 1008.71 74.9288 1008.71 73.0286V67.1226ZM1005.78 72.361C1004.7 72.361 1004.03 71.3338 1004.03 70.204C1004.03 69.1255 1004.6 67.893 1005.78 67.893C1006.97 67.893 1007.58 68.9715 1007.58 70.2554C1007.58 71.4366 1006.86 72.361 1005.78 72.361Z" fill="#BBBBBB"/>
<path fill-rule="evenodd" clip-rule="evenodd" d="M1015.4 71.8988C1015.15 72.1042 1014.27 72.515 1013.5 72.515C1012.42 72.515 1011.44 71.6933 1011.44 70.4608H1015.87C1015.87 68.4579 1015.2 66.9686 1013.14 66.9686C1011.39 66.9686 1010.26 68.2525 1010.26 70.1013C1010.26 72.1042 1011.24 73.4395 1013.45 73.4395C1014.48 73.4395 1014.99 73.1827 1015.4 73.0286V71.8988ZM1011.44 69.5877C1011.55 68.8174 1012.01 67.893 1013.14 67.893C1014.12 67.893 1014.68 68.6633 1014.68 69.5877H1011.44Z" fill="#BBBBBB"/>
<path fill-rule="evenodd" clip-rule="evenodd" d="M1017.57 73.2853H1018.7V64.1953H1017.57V73.2853Z" fill="#BBBBBB"/>
<path fill-rule="evenodd" clip-rule="evenodd" d="M1020.91 73.2854H1022.09V67.1226H1020.91V73.2854ZM1022.15 64.4521H1020.86V65.736H1022.15V64.4521Z" fill="#BBBBBB"/>
<path fill-rule="evenodd" clip-rule="evenodd" d="M1023.64 73.08C1024.15 73.3881 1024.77 73.4395 1025.34 73.4395C1026.47 73.4395 1027.5 72.8232 1027.5 71.4879C1027.5 69.5364 1024.82 69.8959 1024.82 68.612C1024.82 68.1498 1025.34 67.893 1025.9 67.893C1026.16 67.893 1026.88 68.047 1027.14 68.2011L1027.19 67.2253C1026.78 67.0713 1026.31 66.9686 1025.8 66.9686C1024.56 66.9686 1023.59 67.5848 1023.59 68.8687C1023.59 70.6149 1026.31 70.5121 1026.31 71.642C1026.31 72.3096 1025.65 72.515 1025.13 72.515C1024.77 72.515 1024.15 72.361 1023.69 72.1042L1023.64 73.08Z" fill="#BBBBBB"/>
<path fill-rule="evenodd" clip-rule="evenodd" d="M1032.9 67.2253C1032.59 67.0713 1031.98 66.9686 1031.51 66.9686C1029.66 66.9686 1028.37 68.3038 1028.37 70.204C1028.37 71.9501 1029.66 73.4395 1031.51 73.4395C1031.92 73.4395 1032.49 73.3881 1032.95 73.1827L1032.9 72.1555C1032.54 72.4123 1032.03 72.515 1031.67 72.515C1030.17 72.515 1029.61 71.2825 1029.61 70.204C1029.61 69.0228 1030.33 67.893 1031.56 67.893C1031.92 67.893 1032.39 67.9443 1032.8 68.1498L1032.9 67.2253Z" fill="#BBBBBB"/>
<path fill-rule="evenodd" clip-rule="evenodd" d="M1034.29 73.2853H1035.42V70.4094C1035.42 68.92 1035.99 67.8929 1037.33 67.8929C1038.31 67.9443 1038.61 68.6632 1038.61 70.1012V73.2853H1039.75V69.639C1039.75 67.9443 1039.03 66.9685 1037.43 66.9685C1036.56 66.9685 1035.84 67.328 1035.42 67.9956V64.1953H1034.29V73.2853Z" fill="#BBBBBB"/>
<path fill-rule="evenodd" clip-rule="evenodd" d="M1046.44 71.8988C1046.18 72.1042 1045.3 72.515 1044.53 72.515C1043.45 72.515 1042.47 71.6933 1042.47 70.4608H1046.9C1046.9 68.4579 1046.23 66.9686 1044.17 66.9686C1042.42 66.9686 1041.29 68.2525 1041.29 70.1013C1041.29 72.1042 1042.27 73.4395 1044.48 73.4395C1045.51 73.4395 1046.02 73.1827 1046.44 73.0286V71.8988ZM1042.47 69.5877C1042.58 68.8174 1043.04 67.893 1044.17 67.893C1045.15 67.893 1045.72 68.6633 1045.72 69.5877H1042.47Z" fill="#BBBBBB"/>
<path fill-rule="evenodd" clip-rule="evenodd" d="M1058.48 65.1197C1057.76 64.863 1057.24 64.6575 1055.96 64.6575C1053.38 64.6575 1051.48 66.4036 1051.48 69.0228C1051.48 71.6933 1053.28 73.4394 1055.96 73.4394C1057.29 73.4394 1058.12 73.234 1058.58 73.08V68.6633H1055.54V69.6391H1057.35V72.2069C1057.04 72.3096 1056.83 72.361 1055.96 72.361C1054.21 72.361 1052.77 71.0257 1052.77 69.0742C1052.77 67.174 1054.1 65.736 1056.06 65.736C1057.14 65.736 1057.76 65.9414 1058.37 66.3523L1058.48 65.1197Z" fill="#BBBBBB"/>
<path fill-rule="evenodd" clip-rule="evenodd" d="M1065.37 71.8988C1065.06 72.1042 1064.19 72.515 1063.42 72.515C1062.34 72.515 1061.41 71.6933 1061.41 70.4608H1065.84C1065.84 68.4579 1065.17 66.9686 1063.11 66.9686C1061.36 66.9686 1060.18 68.2525 1060.18 70.1013C1060.18 72.1042 1061.21 73.4395 1063.42 73.4395C1064.4 73.4395 1064.91 73.1827 1065.37 73.0286V71.8988ZM1061.41 69.5877C1061.46 68.8174 1061.93 67.893 1063.06 67.893C1064.04 67.893 1064.6 68.6633 1064.6 69.5877H1061.41Z" fill="#BBBBBB"/>
<path fill-rule="evenodd" clip-rule="evenodd" d="M1067.33 73.2854H1068.46V70.1527C1068.46 69.0228 1068.92 67.893 1070.11 67.893C1071.03 67.893 1071.24 68.8174 1071.24 69.5877V73.2854H1072.37V70.1527C1072.37 69.0228 1072.84 67.893 1073.97 67.893C1074.89 67.893 1075.1 68.8174 1075.1 69.5877V73.2854H1076.23V69.331C1076.23 67.9957 1075.67 66.9686 1074.07 66.9686C1073.5 66.9686 1072.58 67.2767 1072.17 68.1498C1071.86 67.3281 1071.14 66.9686 1070.42 66.9686C1069.49 66.9686 1068.87 67.2767 1068.41 67.9957V67.1226H1067.33V73.2854Z" fill="#BBBBBB"/>
<path fill-rule="evenodd" clip-rule="evenodd" d="M1082.92 71.8988C1082.61 72.1042 1081.74 72.515 1081.02 72.515C1079.94 72.515 1078.96 71.6933 1078.96 70.4608H1083.39C1083.39 68.4579 1082.72 66.9686 1080.66 66.9686C1078.91 66.9686 1077.72 68.2525 1077.72 70.1013C1077.72 72.1042 1078.75 73.4395 1080.97 73.4395C1081.94 73.4395 1082.46 73.1827 1082.92 73.0286V71.8988ZM1078.96 69.5877C1079.06 68.8174 1079.47 67.893 1080.61 67.893C1081.58 67.893 1082.15 68.6633 1082.15 69.5877H1078.96Z" fill="#BBBBBB"/>
<path fill-rule="evenodd" clip-rule="evenodd" d="M1085.03 73.2854H1086.22V67.1226H1085.03V73.2854ZM1086.27 64.4521H1084.98V65.736H1086.27V64.4521Z" fill="#BBBBBB"/>
<path fill-rule="evenodd" clip-rule="evenodd" d="M1088.27 73.2854H1089.41V70.4094C1089.41 68.9201 1090.02 67.893 1091.31 67.893C1092.29 67.9443 1092.6 68.6633 1092.6 70.1013V73.2854H1093.78V69.6391C1093.78 67.9443 1093.06 66.9686 1091.46 66.9686C1090.59 66.9686 1089.77 67.3794 1089.41 68.0984V67.1226H1088.27V73.2854Z" fill="#BBBBBB"/>
<path fill-rule="evenodd" clip-rule="evenodd" d="M1100.11 73.2853H1101.19V64.1953H1100.06V67.9443H1100.01C1099.65 67.3793 1099.03 66.9685 1097.95 66.9685C1096.15 66.9685 1095.27 68.4065 1095.27 70.1012C1095.27 71.796 1096.1 73.4394 1097.95 73.4394C1099.03 73.4394 1099.75 72.8745 1100.06 72.4122H1100.11V73.2853ZM1096.51 70.1526C1096.46 69.0227 1096.97 67.8929 1098.21 67.8929C1099.44 67.8929 1100.06 69.0741 1100.06 70.2039C1100.06 71.2311 1099.49 72.515 1098.21 72.515C1096.97 72.515 1096.46 71.1283 1096.51 70.1526Z" fill="#BBBBBB"/>
<path fill-rule="evenodd" clip-rule="evenodd" d="M1107.88 71.8988C1107.57 72.1042 1106.7 72.515 1105.98 72.515C1104.9 72.515 1103.92 71.6933 1103.92 70.4608H1108.34C1108.34 68.4579 1107.67 66.9686 1105.62 66.9686C1103.87 66.9686 1102.68 68.2525 1102.68 70.1013C1102.68 72.1042 1103.71 73.4395 1105.92 73.4395C1106.95 73.4395 1107.42 73.1827 1107.88 73.0286V71.8988ZM1103.92 69.5877C1104.02 68.8174 1104.48 67.893 1105.56 67.893C1106.59 67.893 1107.11 68.6633 1107.11 69.5877H1103.92Z" fill="#BBBBBB"/>
<path fill-rule="evenodd" clip-rule="evenodd" d="M1109.89 73.2854H1111.02V70.4094C1111.02 68.9201 1111.59 67.893 1112.87 67.893C1113.9 67.9443 1114.21 68.6633 1114.21 70.1013V73.2854H1115.34V69.6391C1115.34 67.9443 1114.62 66.9686 1113.03 66.9686C1112.15 66.9686 1111.33 67.3794 1111.02 68.0984H1110.97V67.1226H1109.89V73.2854Z" fill="#BBBBBB"/>
<path fill-rule="evenodd" clip-rule="evenodd" d="M945.109 52.8969H952.416V41.8039H962.966V36.617H952.416V30.6596H963.429V25.4727H945.109V52.8969Z" fill="#BBBBBB"/>
<path fill-rule="evenodd" clip-rule="evenodd" d="M967.752 52.8969H987.513V47.7099H975.059V41.4958H986.381V36.3088H975.059V30.6596H987.05V25.4727H967.752V52.8969Z" fill="#BBBBBB"/>
<path fill-rule="evenodd" clip-rule="evenodd" d="M1016.49 36.8738H1005.11V42.0608H1009.44V47.4532C1008.77 47.7613 1007.79 47.9154 1006.81 47.9154C1001.46 47.9154 997.651 44.6799 997.651 39.2875C997.651 32.9194 1002.54 30.4543 1008.46 30.4543C1010.21 30.4543 1012.88 30.8651 1015.15 32.2004L1015.77 26.243C1013.09 25.2159 1009.28 25.0105 1007.43 25.0105C997.393 25.0105 990.137 28.9649 990.137 39.2875C990.137 49.6615 998.577 53.3591 1005.88 53.3591C1008.41 53.3591 1011.85 53.2564 1016.49 52.0752V36.8738Z" fill="#BBBBBB"/>
<path d="M22.8814 45.932H-0.000244141V57.4316H22.8814V45.932Z" fill="#BBBBBB"/>
<path d="M22.8814 30.8357H-0.000244141V42.0969H22.8814V30.8357Z" fill="#BBBBBB"/>
<path d="M45.7629 57.4316V45.9319H32.0655V57.4316H27.4741V30.8357H32.0655V42.0956H45.7629V30.8357H50.3557V57.4316H45.7629Z" fill="#BBBBBB"/>
<path d="M66.0374 58.2717C58.3302 58.2717 53.9827 53.0008 53.9827 47.0118V41.2215C53.9827 35.1915 58.3355 30 66.0374 30C73.7391 30 78.0921 35.1915 78.0921 41.2215V47.0118C78.0921 53.0008 73.7391 58.2717 66.0374 58.2717ZM73.465 41.1831C73.465 37.2302 70.9095 33.9953 66.0374 33.9953C61.165 33.9953 58.6098 37.2302 58.6098 41.1831V47.0528C58.5607 48.0321 58.7209 49.0107 59.0796 49.9233C59.4383 50.8359 59.9873 51.6614 60.6901 52.3452C61.3928 53.0291 62.2331 53.5554 63.1553 53.889C64.0772 54.2228 65.0597 54.3561 66.0374 54.2803C67.0149 54.3561 67.9976 54.2228 68.9195 53.889C69.8415 53.5554 70.6818 53.0291 71.3847 52.3452C72.0873 51.6614 72.6363 50.8359 72.995 49.9233C73.3537 49.0107 73.5139 48.0321 73.465 47.0528V41.1831Z" fill="#BBBBBB"/>
<path d="M81.7153 57.4316V30.8357H86.3067V53.4376H101.681V57.4302L81.7153 57.4316Z" fill="#BBBBBB"/>
<path d="M110.943 34.8296V57.4316H106.352V34.8296H97.2869V30.837H120.008V34.8296H110.943Z" fill="#BBBBBB"/>
<path d="M128.632 53.439H144.047V57.4316H121.724V55.8341L137.497 34.8297H122.483V30.837H144.326V32.4346L128.632 53.439Z" fill="#BBBBBB"/>
<path d="M173.637 57.4316V36.7862L172.319 40.1801L164.654 57.4316H161.343L153.751 40.1748L152.433 36.7809V57.4263H148.119V30.8357H154.509L161.896 48.3217L163.134 51.5962L164.371 48.3614L171.675 30.8357H178.034V57.4302L173.637 57.4316Z" fill="#BBBBBB"/>
<path d="M201.671 57.4316L199.076 50.7234H187.855L185.338 57.4316H180.628L191.33 30.837H195.642L206.505 57.4316H201.671ZM193.366 36.308L189.213 47.1295H197.638L193.366 36.308Z" fill="#BBBBBB"/>
<path d="M228.188 57.4316L215.734 41.6187L213.532 38.5852V57.433H209.059V30.8357H213.096L225.196 46.7678L227.351 49.7629V30.8357H231.824V57.4302L228.188 57.4316Z" fill="#BBBBBB"/>
<path d="M640.594 31.564V31.573V31.582V42.4735H640.592C640.588 42.8915 640.248 43.2295 639.827 43.2295C639.825 43.2295 639.825 43.2291 639.824 43.2291V43.23H628.901C628.89 43.2304 628.88 43.2336 628.869 43.2336C628.446 43.2336 628.103 42.8933 628.103 42.4733V42.4322V42.425C628.5 36.2339 633.456 31.2776 639.674 30.8288L639.826 30.8162C640.242 30.8162 640.581 31.1436 640.592 31.5546H640.594L640.594 31.564ZM640.594 56.7071V56.7175H640.592C640.581 57.1282 640.242 57.4555 639.825 57.4555L639.673 57.4433C633.456 56.9941 628.5 52.0378 628.103 45.8468V45.8397V45.7982C628.103 45.3783 628.446 45.0379 628.869 45.0379C628.88 45.0379 628.89 45.0406 628.901 45.0415H639.824V45.0424H639.827C640.248 45.0424 640.588 45.3804 640.591 45.7981H640.593V56.6896V56.6987L640.594 56.7071Z" fill="#BBBBBB"/>
<path d="M626.318 31.564C626.318 31.5667 626.32 31.5694 626.32 31.573C626.32 31.5757 626.318 31.5784 626.318 31.582V42.4735H626.316C626.315 42.8915 625.973 43.2295 625.552 43.2295L625.55 43.2291V43.23H614.627C614.617 43.2304 614.606 43.2336 614.594 43.2336C614.171 43.2336 613.829 42.8933 613.829 42.4733C613.829 42.4567 613.827 42.4485 613.829 42.4322V42.425C614.226 36.2339 619.182 31.2776 625.398 30.8288L625.552 30.8162C625.969 30.8162 626.307 31.1436 626.316 31.5546H626.318L626.318 31.564ZM614.597 57.4555C614.18 57.4555 613.841 57.128 613.831 56.6898L613.832 45.7984C613.833 45.3807 614.176 45.0427 614.598 45.0414C614.598 45.0414 625.543 45.0378 625.555 45.0378C625.978 45.0378 626.32 45.3781 626.32 45.7981C626.32 45.8147 626.322 45.823 626.32 45.8465C625.923 52.0376 620.967 56.9937 614.75 57.4429L614.597 57.4555Z" fill="#BBBBBB"/>
<path d="M647.85 34.0784V36.7391H652.245V38.7346H647.85V43.2073H645.349V32.0753H652.745V34.0784H647.85ZM660.894 34.9348V43.2073H658.639L658.57 42.3357C658.303 42.6671 657.982 42.9206 657.608 43.0965C657.233 43.2723 656.805 43.3603 656.322 43.3603C655.455 43.3603 654.775 43.1105 654.283 42.611C653.79 42.1115 653.544 41.3367 653.544 40.2867V34.9348H655.945V40.302C655.945 40.6843 656.044 40.9684 656.242 41.1545C656.439 41.3405 656.712 41.4335 657.061 41.4335C657.744 41.4335 658.218 41.1991 658.485 40.7301V34.9348H660.894ZM669.009 35.5311C669.468 36.0306 669.697 36.8487 669.697 37.9854V43.2073H667.288V37.9701C667.288 37.491 667.187 37.1609 666.984 36.98C666.782 36.799 666.465 36.7086 666.034 36.7086C665.464 36.7086 665.038 36.9379 664.756 37.3967V43.2073H662.363V34.9348H664.61L664.695 35.8905C664.982 35.5286 665.327 35.2533 665.73 35.0647C666.133 34.8761 666.58 34.7818 667.073 34.7818C667.904 34.7818 668.549 35.0316 669.009 35.5311ZM678.485 31.4636V43.2073H676.323L676.207 42.3128C675.663 43.0111 674.968 43.3603 674.121 43.3603C673.444 43.3603 672.862 43.1806 672.374 42.8212C671.887 42.4619 671.516 41.9662 671.262 41.3342C671.008 40.7021 670.881 39.9809 670.881 39.1705V39.0099C670.881 38.1689 671.008 37.4298 671.262 36.7926C671.516 36.1555 671.887 35.6611 672.374 35.3094C672.862 34.9577 673.449 34.7818 674.137 34.7818C674.917 34.7818 675.563 35.0775 676.076 35.6688V31.4636H678.485ZM675.549 41.2309C675.772 41.0959 675.948 40.9009 676.076 40.6461V37.496C675.825 36.9711 675.381 36.7086 674.745 36.7086C674.237 36.7086 673.866 36.915 673.633 37.3278C673.399 37.7407 673.282 38.3014 673.282 39.0099V39.1705C673.282 39.8637 673.395 40.4141 673.621 40.8219C673.847 41.2297 674.216 41.4335 674.729 41.4335C675.053 41.4335 675.326 41.366 675.549 41.2309ZM682.332 31.9186C682.578 32.1454 682.701 32.4397 682.701 32.8016C682.701 33.1584 682.578 33.4502 682.332 33.6771C682.086 33.9039 681.762 34.0173 681.362 34.0173C680.962 34.0173 680.64 33.9039 680.396 33.6771C680.153 33.4502 680.031 33.1584 680.031 32.8016C680.031 32.4397 680.153 32.1454 680.396 31.9186C680.64 31.6917 680.962 31.5783 681.362 31.5783C681.762 31.5783 682.086 31.6917 682.332 31.9186ZM680.169 43.2073V34.9348H682.578V43.2073H680.169ZM690.855 35.5311C691.314 36.0306 691.543 36.8487 691.543 37.9854V43.2073H689.134V37.9701C689.134 37.491 689.033 37.1609 688.83 36.98C688.628 36.799 688.311 36.7086 687.88 36.7086C687.31 36.7086 686.884 36.9379 686.602 37.3967V43.2073H684.209V34.9348H686.456L686.541 35.8905C686.828 35.5286 687.173 35.2533 687.576 35.0647C687.978 34.8761 688.426 34.7818 688.919 34.7818C689.75 34.7818 690.395 35.0316 690.855 35.5311ZM700.493 34.9348V42.8939C700.493 43.6432 700.322 44.2866 699.981 44.8244C699.64 45.3621 699.16 45.7699 698.542 46.0477C697.923 46.3255 697.204 46.4644 696.383 46.4644C695.813 46.4644 695.237 46.3548 694.655 46.1356C694.073 45.9164 693.615 45.6081 693.281 45.2105L694.32 43.7502C694.561 44.0152 694.849 44.2255 695.182 44.3809C695.516 44.5364 695.883 44.6141 696.283 44.6141C696.858 44.6141 697.303 44.4638 697.618 44.163C697.934 43.8623 698.091 43.4367 698.091 42.8862V42.5039C697.573 43.0748 696.919 43.3603 696.129 43.3603C695.447 43.3603 694.85 43.1806 694.339 42.8212C693.829 42.4619 693.436 41.9637 693.162 41.3265C692.887 40.6894 692.75 39.9707 692.75 39.1705V39.0099C692.75 38.174 692.887 37.4374 693.162 36.8003C693.436 36.1632 693.83 35.6675 694.343 35.3132C694.856 34.959 695.457 34.7818 696.144 34.7818C697.037 34.7818 697.732 35.0851 698.23 35.6917L698.322 34.9348H700.493ZM698.091 40.776V37.3661C697.814 36.9277 697.368 36.7086 696.752 36.7086C696.234 36.7086 695.838 36.9213 695.563 37.3469C695.289 37.7726 695.151 38.3269 695.151 39.0099V39.1705C695.151 39.8382 695.286 40.3823 695.555 40.8028C695.825 41.2233 696.219 41.4335 696.737 41.4335C697.353 41.4335 697.804 41.2144 698.091 40.776ZM653.645 55.3147C653.271 55.9033 652.746 56.3608 652.071 56.6871C651.397 57.0132 650.608 57.1763 649.705 57.1763C648.74 57.1763 647.906 56.9584 647.203 56.5227C646.5 56.0869 645.962 55.4637 645.587 54.6533C645.212 53.8428 645.025 52.8845 645.025 51.7786V51.1364C645.025 50.0405 645.218 49.0847 645.602 48.2692C645.987 47.4537 646.532 46.8267 647.238 46.3884C647.944 45.95 648.766 45.7308 649.705 45.7308C650.634 45.7308 651.429 45.9003 652.091 46.2393C652.753 46.5782 653.267 47.0472 653.634 47.6461C654.001 48.245 654.22 48.9344 654.292 49.7142H651.798C651.757 49.0516 651.578 48.561 651.259 48.2424C650.941 47.9239 650.423 47.7646 649.705 47.7646C648.971 47.7646 648.43 48.0322 648.081 48.5674C647.732 49.1026 647.557 49.9537 647.557 51.1211V51.7786C647.557 52.5737 647.628 53.2159 647.769 53.7052C647.91 54.1946 648.137 54.5565 648.45 54.7909C648.763 55.0253 649.181 55.1425 649.705 55.1425C650.377 55.1425 650.881 54.9898 651.217 54.6839C651.553 54.378 651.742 53.9066 651.783 53.2693H654.276C654.23 54.0443 654.02 54.7259 653.645 55.3147ZM657.785 45.7347C658.031 45.9615 658.154 46.2558 658.154 46.6177C658.154 46.9745 658.031 47.2663 657.785 47.4932C657.538 47.72 657.215 47.8334 656.815 47.8334C656.415 47.8334 656.093 47.72 655.849 47.4932C655.605 47.2663 655.483 46.9745 655.483 46.6177C655.483 46.2558 655.605 45.9615 655.849 45.7347C656.093 45.5078 656.415 45.3944 656.815 45.3944C657.215 45.3944 657.538 45.5078 657.785 45.7347ZM655.622 57.0234V48.7509H658.031V57.0234H655.622ZM664.587 48.6897L664.556 50.9988C664.161 50.9579 663.884 50.9375 663.725 50.9375C663.304 50.9375 662.962 51.0039 662.697 51.1364C662.433 51.2689 662.239 51.4676 662.116 51.7327V57.0234H659.715V48.7509H661.97L662.047 49.7678C662.257 49.3905 662.518 49.1013 662.828 48.9C663.139 48.6986 663.491 48.598 663.886 48.598C664.174 48.598 664.407 48.6285 664.587 48.6897ZM672.521 54.1028C672.521 54.6992 672.367 55.2305 672.059 55.697C671.751 56.1633 671.333 56.5265 670.804 56.7864C670.276 57.0464 669.686 57.1763 669.034 57.1763C668.198 57.1763 667.488 56.9953 666.906 56.6335C666.323 56.2716 665.887 55.7759 665.597 55.1465C665.307 54.517 665.162 53.7971 665.162 52.9866V52.7954C665.162 51.9849 665.307 51.2638 665.597 50.6316C665.887 49.9996 666.322 49.5027 666.902 49.1408C667.482 48.7789 668.19 48.598 669.026 48.598C669.714 48.598 670.32 48.7292 670.846 48.9917C671.372 49.2542 671.783 49.6339 672.078 50.131C672.373 50.6279 672.521 51.2153 672.521 51.8933H670.265C670.26 51.4906 670.146 51.1617 669.923 50.9069C669.7 50.6521 669.383 50.5246 668.972 50.5246C668.428 50.5246 668.058 50.7272 667.86 51.1325C667.663 51.5377 667.564 52.0919 667.564 52.7954V52.9866C667.564 53.7052 667.663 54.262 667.86 54.6572C668.058 55.0522 668.434 55.2497 668.988 55.2497C669.373 55.2497 669.68 55.1465 669.911 54.9399C670.142 54.7336 670.26 54.4546 670.265 54.1028H672.521ZM673.789 57.0234V45.2797H676.198V57.0234H673.789ZM685.263 53.6671H680.037C680.129 54.1564 680.342 54.5424 680.676 54.8253C681.009 55.1082 681.435 55.2497 681.953 55.2497C682.354 55.2497 682.723 55.1783 683.062 55.0355C683.4 54.8928 683.69 54.6711 683.931 54.3704L685.063 55.7084C684.77 56.1212 684.342 56.4691 683.777 56.7521C683.213 57.035 682.554 57.1763 681.799 57.1763C680.943 57.1763 680.196 56.9967 679.56 56.6374C678.923 56.2779 678.436 55.7926 678.097 55.1808C677.759 54.5693 677.589 53.8964 677.589 53.1623V52.8718C677.589 52.0513 677.746 51.3186 678.059 50.6736C678.372 50.0289 678.825 49.5218 679.417 49.1523C680.01 48.7827 680.717 48.598 681.538 48.598C682.323 48.598 682.995 48.7623 683.554 49.0911C684.113 49.4199 684.538 49.8887 684.828 50.4979C685.118 51.107 685.263 51.8243 685.263 52.6501V53.6671ZM682.908 51.8933C682.908 51.4651 682.791 51.1299 682.558 50.8878C682.324 50.6458 681.979 50.5246 681.522 50.5246C680.706 50.5246 680.214 51.0445 680.045 52.0843H682.908V51.8933Z" fill="#BBBBBB"/>
<path d="M440.201 30C431.755 30 424.904 36.851 424.904 45.2972V56.2237H429.274V45.2972C429.274 39.2657 434.17 34.3706 440.201 34.3706C446.232 34.3706 451.128 39.2657 451.128 45.2972V56.2237H455.498V45.2972C455.498 36.851 448.647 30 440.201 30Z" fill="#BBBBBB"/>
<path d="M446.757 56.2237V52.7273H433.645V56.2237H446.757Z" fill="#BBBBBB"/>
<path d="M446.757 49.2308V45.7342H433.645V49.2308H446.757Z" fill="#BBBBBB"/>
<path d="M434.399 42.2378H445.992C444.9 40.1617 442.714 38.7413 440.201 38.7413C437.688 38.7413 435.503 40.1617 434.399 42.2378Z" fill="#BBBBBB"/>
<path d="M474.041 52.913C477.264 53.0224 480.389 51.5583 482.334 49.0232L482.356 48.9904L479.318 46.5757L479.296 46.6084C478.062 48.2693 476.335 49.1106 474.292 49.0341C472.577 48.9795 471.025 48.2474 469.921 46.9909C468.84 45.7561 468.282 44.1172 468.337 42.369C468.403 40.6316 469.08 39.0472 470.249 37.8999C471.44 36.7417 473.035 36.1298 474.762 36.1954C476.772 36.261 478.422 37.2116 479.559 38.938L479.58 38.9708L482.782 36.7964L482.76 36.7636C480.979 34.0429 478.051 32.4148 474.751 32.3055C474.631 32.3055 474.511 32.2946 474.39 32.2946C471.79 32.2946 469.342 33.2671 467.452 35.07C465.474 36.9384 464.338 39.4843 464.24 42.2269C464.141 45.0022 465.103 47.6356 466.938 49.6461C468.785 51.6565 471.309 52.8256 474.041 52.913Z" fill="#BBBBBB"/>
<path fill-rule="evenodd" clip-rule="evenodd" d="M532.192 39.386C530.695 38.0092 528.684 37.2444 526.543 37.2444C524.401 37.2444 522.391 38.0092 520.894 39.386C519.32 40.8283 518.457 42.8606 518.457 45.1006C518.457 47.3296 519.32 49.34 520.894 50.7824C522.391 52.1591 524.401 52.924 526.543 52.924C528.684 52.924 530.695 52.1701 532.192 50.7824C533.765 49.34 534.629 47.3187 534.629 45.1006C534.629 42.8606 533.765 40.8283 532.192 39.386ZM526.543 49.2418C524.237 49.2418 522.5 47.4607 522.5 45.1006C522.5 42.7186 524.237 40.9157 526.543 40.9157C528.848 40.9157 530.586 42.7077 530.586 45.1006C530.586 47.4607 528.848 49.2418 526.543 49.2418Z" fill="#BBBBBB"/>
<path fill-rule="evenodd" clip-rule="evenodd" d="M542.747 52.4104C543.555 52.7383 544.495 52.924 545.391 52.924C547.336 52.924 549.161 52.1809 550.516 50.8262C551.981 49.3729 552.757 47.3952 552.757 45.1006C552.757 41.2872 550.178 37.2444 545.391 37.2444C543.883 37.2444 541.72 37.8125 540.595 39.4078L540.289 39.8449V37.6377H536.311V57.8519H540.289V50.3562L540.595 50.7932C541.086 51.4818 541.829 52.0389 542.747 52.4104ZM544.572 40.9485C546.845 40.9485 548.68 42.806 548.68 45.0897C548.68 47.3952 546.877 49.1981 544.572 49.1981C542.573 49.1981 540.431 47.6246 540.431 45.0897C540.431 42.7732 542.255 40.9485 544.572 40.9485Z" fill="#BBBBBB"/>
<path fill-rule="evenodd" clip-rule="evenodd" d="M509.432 41.0359C510.12 41.0359 510.787 41.2435 511.355 41.6368C511.541 41.757 511.716 41.91 511.869 42.0849C512.459 42.7076 512.786 43.5272 512.786 44.3903V52.6181H516.764V44.3684C516.786 41.8662 516.174 39.976 514.961 38.7522C513.966 37.747 512.579 37.2334 510.842 37.2334C509.366 37.2334 507.411 37.7251 506.394 39.7356L506.067 40.3147V37.6377H502.089V52.6289H506.067V44.9367C506.067 44.8929 506.067 44.8602 506.067 44.8165V44.7837V44.4013C506.078 42.5437 507.574 41.0359 509.432 41.0359Z" fill="#BBBBBB"/>
<path d="M569.135 37.6377H565.157V45.6142H565.147C565.048 47.3733 563.573 48.7828 561.792 48.7828C561.387 48.7828 560.983 48.7064 560.601 48.5643C559.89 48.3458 559.301 47.8541 558.918 47.1766C558.602 46.6521 558.426 46.0512 558.426 45.4284V45.1334C558.426 45.1006 558.426 45.0569 558.426 45.0241V37.6377H554.449V45.4721C554.427 47.9743 555.039 49.8646 556.252 51.0883C557.247 52.0937 558.635 52.6071 560.372 52.6071C561.825 52.6071 563.726 52.3886 564.808 50.4983L565.005 50.1487C564.917 52.6837 563.311 54.5194 560.666 54.4866C559.847 54.5084 559.301 54.4646 558.35 54.2353C557.651 54.0714 556.963 53.7217 556.274 53.4048L554.875 56.8029C556.755 57.8847 559.027 58.3217 561.333 58.2672C565.628 58.2672 568.971 54.9674 569.102 49.8536V49.8318L569.135 37.6377Z" fill="#BBBBBB"/>
<path d="M495.544 37.6376V39.3094V39.7246L495.359 39.4077C494.878 38.7193 494.026 38.1621 493.119 37.7796C492.31 37.4519 491.371 37.2661 490.453 37.2661C488.508 37.2661 486.683 38.0091 485.328 39.364C483.864 40.8173 483.088 42.795 483.088 45.0895C483.088 47.3841 483.864 49.3618 485.328 50.815C486.694 52.1701 488.508 52.913 490.453 52.913C492.081 52.913 494.299 52.2575 495.359 50.7822L495.544 50.4763V50.8806V52.6179H499.522V37.6376H495.544ZM491.272 49.2417C488.988 49.2417 487.131 47.3841 487.131 45.1005C487.131 42.795 488.956 40.9921 491.272 40.9921C493.272 40.9921 495.413 42.5655 495.413 45.1005C495.413 47.4278 493.6 49.2417 491.272 49.2417Z" fill="#BBBBBB"/>
<path d="M290.085 56.4493C288.512 56.7258 286.91 56.8086 285.254 57.0293L280.201 42.2309V57.6644C278.627 57.8299 277.192 58.0508 275.701 58.2717V30H279.898L285.64 46.0411V30H290.085V56.4493ZM298.782 40.3534C300.494 40.3534 303.117 40.2706 304.69 40.2706V44.6879C302.73 44.6879 300.439 44.6879 298.782 44.7708V51.3418C301.377 51.1763 303.973 50.9552 306.595 50.8723V55.1239L294.365 56.0904V30H306.595V34.4174H298.782V40.3534ZM323.023 34.4176H318.44V54.7377C316.949 54.7377 315.458 54.7377 314.022 54.7929V34.4176H309.439V30H323.023L323.023 34.4176ZM330.201 40.0498H336.248V44.4671H330.201V54.4894H325.866V30H338.208V34.4174H330.201V40.0498ZM345.386 50.624C347.899 50.679 350.438 50.8725 352.896 51.0104V55.3727C348.948 55.1241 345 54.8759 340.969 54.7929V30H345.386V50.624ZM356.623 55.6764C358.031 55.7594 359.522 55.8423 360.957 56.0076V30H356.623V55.6764ZM380.312 30L374.707 43.4457L380.312 58.2717C378.655 58.0508 376.999 57.7471 375.342 57.471L372.167 49.2989L368.937 56.8086C367.335 56.5322 365.789 56.4493 364.188 56.2285L369.876 43.2799L364.74 30H369.489L372.388 37.4269L375.48 30H380.312Z" fill="#BBBBBB"/>
</svg>
