<svg width="232" height="29" viewBox="0 0 232 29" fill="none" xmlns="http://www.w3.org/2000/svg">
<path d="M22.8814 15.932H-0.000244141V27.4316H22.8814V15.932Z" fill="#BBBBBB"/>
<path d="M22.8814 0.83567H-0.000244141V12.0969H22.8814V0.83567Z" fill="#BBBBBB"/>
<path d="M45.7629 27.4316V15.9319H32.0655V27.4316H27.4741V0.83567H32.0655V12.0956H45.7629V0.83567H50.3557V27.4316H45.7629Z" fill="#BBBBBB"/>
<path d="M66.0374 28.2717C58.3302 28.2717 53.9827 23.0008 53.9827 17.0118V11.2215C53.9827 5.19148 58.3355 1.90735e-05 66.0374 1.90735e-05C73.7391 1.90735e-05 78.0921 5.19148 78.0921 11.2215V17.0118C78.0921 23.0008 73.7391 28.2717 66.0374 28.2717ZM73.465 11.1831C73.465 7.23021 70.9095 3.9953 66.0374 3.9953C61.165 3.9953 58.6098 7.23021 58.6098 11.1831V17.0528C58.5607 18.0321 58.7209 19.0107 59.0796 19.9233C59.4383 20.8359 59.9873 21.6614 60.6901 22.3452C61.3928 23.0291 62.2331 23.5554 63.1553 23.889C64.0772 24.2228 65.0597 24.3561 66.0374 24.2803C67.0149 24.3561 67.9976 24.2228 68.9195 23.889C69.8415 23.5554 70.6818 23.0291 71.3847 22.3452C72.0873 21.6614 72.6363 20.8359 72.995 19.9233C73.3537 19.0107 73.5139 18.0321 73.465 17.0528V11.1831Z" fill="#BBBBBB"/>
<path d="M81.7153 27.4316V0.83567H86.3067V23.4376H101.681V27.4302L81.7153 27.4316Z" fill="#BBBBBB"/>
<path d="M110.943 4.82963V27.4316H106.352V4.82963H97.2869V0.837017H120.008V4.82963H110.943Z" fill="#BBBBBB"/>
<path d="M128.632 23.439H144.047V27.4316H121.724V25.8341L137.497 4.82967H122.483V0.837017H144.326V2.43459L128.632 23.439Z" fill="#BBBBBB"/>
<path d="M173.637 27.4316V6.78622L172.319 10.1801L164.654 27.4316H161.343L153.751 10.1748L152.433 6.78092V27.4263H148.119V0.83567H154.509L161.896 18.3217L163.134 21.5962L164.371 18.3614L171.675 0.83567H178.034V27.4302L173.637 27.4316Z" fill="#BBBBBB"/>
<path d="M201.671 27.4316L199.076 20.7234H187.855L185.338 27.4316H180.628L191.33 0.837017H195.642L206.505 27.4316H201.671ZM193.366 6.30802L189.213 17.1295H197.638L193.366 6.30802Z" fill="#BBBBBB"/>
<path d="M228.188 27.4316L215.734 11.6187L213.532 8.58516V27.433H209.059V0.83567H213.096L225.196 16.7678L227.351 19.7629V0.83567H231.824V27.4302L228.188 27.4316Z" fill="#BBBBBB"/>
</svg>
