<svg width="151" height="39" viewBox="0 0 151 39" fill="none" xmlns="http://www.w3.org/2000/svg">
<path d="M46.5705 17.7919C47.3489 15.9683 48.7946 14.5227 50.618 13.7665C52.5085 12.9881 54.6435 12.9881 56.534 13.7665C57.4458 14.1446 58.2464 14.7006 58.958 15.39C59.6476 16.0794 60.2259 16.9023 60.604 17.7919C61.0043 18.726 61.2043 19.7268 61.2043 20.7498V28.3559H58.2019V20.7498C58.2019 20.1493 58.0907 19.5267 57.8461 18.9706C57.1123 17.2804 55.4441 16.1684 53.5761 16.1907C52.9756 16.1907 52.3527 16.3018 51.7969 16.5465C51.2409 16.7689 50.7515 17.1025 50.329 17.525C49.9064 17.9476 49.5729 18.4369 49.3504 18.9706C49.1058 19.5267 48.9946 20.1493 48.9946 20.7498V28.3559H45.97V20.7498C45.97 19.7268 46.1703 18.726 46.5705 17.7919Z" fill="#BBBBBB"/>
<path d="M74.5485 22.974L76.6835 25.109L75.6381 26.1543C72.6803 29.1345 67.8764 29.1345 64.9186 26.1766L64.8963 26.1543C64.1622 25.4426 63.6064 24.5753 63.2284 23.6412C62.8723 22.7293 62.6946 21.7508 62.6946 20.7945C62.6946 19.8159 62.8723 18.8596 63.2284 17.9477C63.6064 17.0137 64.1622 16.1463 64.8741 15.4347C65.5857 14.7007 66.453 14.1447 67.3871 13.7667C69.2109 13.0327 71.2791 13.0327 73.1028 13.7667C74.0592 14.1447 74.9043 14.723 75.6159 15.4347L76.6835 16.4799L68.2767 24.9089C70.0337 25.7762 72.1465 25.4204 73.5254 24.0193L74.5485 22.974ZM67.0091 17.5252C65.6079 18.9041 65.2521 21.0169 66.1195 22.7738L67.3426 21.5284L69.1218 19.7714C69.7447 19.1487 70.345 18.5482 70.9233 17.9922C71.5016 17.4362 71.9464 16.9914 72.2577 16.6801C71.4126 16.2575 70.4562 16.1018 69.5444 16.2353C68.5658 16.3687 67.6762 16.8358 67.0091 17.5252Z" fill="#BBBBBB"/>
<path d="M84.8236 13.1439C85.8464 13.1439 86.8473 13.3441 87.7814 13.7444C89.5829 14.5228 91.0283 15.9684 91.8069 17.7699C92.2072 18.7039 92.4072 19.7047 92.4072 20.7278V28.3339H84.8236C83.8227 28.3339 82.8218 28.1336 81.8877 27.7333C80.064 26.955 78.5963 25.4871 77.8177 23.6635C77.0171 21.7731 77.0171 19.638 77.8177 17.7699C78.196 16.8803 78.7518 16.0574 79.4637 15.3679C80.1753 14.6785 80.9981 14.1225 81.8877 13.7444C82.7996 13.3441 83.8005 13.1439 84.8236 13.1439ZM89.3826 25.3092V20.7055C89.3826 20.1051 89.2713 19.4823 89.0268 18.9263C88.5598 17.8143 87.6924 16.947 86.5803 16.4799C86.0245 16.2353 85.4016 16.1241 84.8013 16.1241C84.1785 16.1241 83.5779 16.2353 82.9999 16.4799C81.8877 16.947 81.0204 17.8143 80.5533 18.9263C80.3088 19.4823 80.1975 20.1051 80.1975 20.7055C80.1753 23.2409 82.2213 25.287 84.7568 25.3092C84.7791 25.3092 84.8013 25.3092 84.8013 25.3092H89.3826Z" fill="#BBBBBB"/>
<path d="M102.905 13.1439V16.1463H101.392C100.792 16.1463 100.169 16.2575 99.6131 16.5022C98.501 16.9692 97.6336 17.8366 97.1666 18.9485C96.922 19.5046 96.8108 20.1273 96.8108 20.7278V28.3339H93.7639V20.7055C93.7639 19.6825 93.9642 18.6817 94.3645 17.7476C94.7425 16.858 95.2986 16.0351 96.0102 15.3457C96.7218 14.6562 97.5446 14.1002 98.4565 13.7222C99.3906 13.3218 100.391 13.1217 101.392 13.1217H102.905V13.1439Z" fill="#BBBBBB"/>
<path d="M117.516 17.8144C117.138 16.9026 116.582 16.0797 115.893 15.3903C113.713 13.2108 110.399 12.5436 107.553 13.7445C105.729 14.5229 104.261 15.9908 103.483 17.8144C103.082 18.7485 102.882 19.7493 102.882 20.7501C102.882 20.9948 102.904 21.2394 102.927 21.4841V31.6923H105.862V26.7549C106.374 27.1553 106.952 27.4888 107.553 27.7558C109.443 28.5342 111.578 28.5342 113.468 27.7558C115.292 26.9995 116.738 25.554 117.516 23.7303C118.317 21.8399 118.317 19.7048 117.516 17.8144ZM114.781 22.5293C114.558 23.0631 114.225 23.5746 113.802 23.9749C113.379 24.3975 112.868 24.7311 112.312 24.9535C111.155 25.4205 109.865 25.4205 108.709 24.9535C108.153 24.7311 107.664 24.3975 107.241 23.9749C106.819 23.5523 106.485 23.0631 106.263 22.5293C106.018 21.9733 105.907 21.3506 105.907 20.7501C105.907 18.2148 107.953 16.1464 110.488 16.1464C110.511 16.1464 110.51 16.1464 110.533 16.1464C111.155 16.1464 111.756 16.2577 112.334 16.5023C114.024 17.214 115.159 18.9042 115.136 20.7501C115.136 21.3728 115.025 21.9733 114.781 22.5293Z" fill="#BBBBBB"/>
<path d="M134.085 20.7501C134.085 21.7731 133.885 22.7739 133.484 23.708C132.706 25.5317 131.261 26.9772 129.437 27.7333C127.547 28.5119 125.412 28.5119 123.521 27.7333C122.609 27.3553 121.786 26.7994 121.097 26.1099C120.407 25.4205 119.829 24.6199 119.451 23.708C118.65 21.8176 118.65 19.7048 119.451 17.8144C120.23 15.9907 121.675 14.5229 123.521 13.7445C126.368 12.5435 129.682 13.1885 131.861 15.3903C132.551 16.1019 133.106 16.9248 133.484 17.8144C133.885 18.7485 134.085 19.7493 134.085 20.7501ZM131.105 20.7501C131.127 18.8819 130.015 17.2139 128.28 16.5023C127.124 16.0352 125.834 16.0352 124.678 16.5023C124.122 16.7246 123.632 17.0583 123.187 17.4808C122.32 18.3482 121.853 19.5269 121.853 20.7501C121.853 21.3506 121.964 21.9733 122.209 22.5293C122.431 23.063 122.787 23.5746 123.187 23.9749C123.61 24.3975 124.122 24.731 124.678 24.9534C125.834 25.4205 127.124 25.4205 128.28 24.9534C129.392 24.4864 130.282 23.619 130.749 22.5071C130.994 21.9733 131.105 21.3728 131.105 20.7501Z" fill="#BBBBBB"/>
<path d="M150.009 9.85246H147.073V14.7452C146.562 14.3449 145.983 13.9891 145.383 13.7445C143.493 12.9661 141.358 12.9661 139.467 13.7445C137.643 14.5228 136.175 15.9907 135.397 17.8144C134.596 19.7048 134.596 21.8176 135.397 23.708C135.775 24.5976 136.353 25.4204 137.043 26.1099C137.732 26.7993 138.555 27.3553 139.467 27.7333C141.358 28.5119 143.493 28.5119 145.383 27.7333C147.206 26.9772 148.652 25.5316 149.431 23.708C149.831 22.7739 150.031 21.7731 150.031 20.75C150.031 20.6388 150.031 20.5276 150.009 20.4164H150.031L150.009 9.85246ZM146.695 22.5292C146.473 23.063 146.139 23.5745 145.717 23.9748C145.294 24.3974 144.782 24.731 144.226 24.9534C143.07 25.4204 141.78 25.4204 140.623 24.9534C140.067 24.731 139.578 24.3974 139.134 23.9748C138.711 23.5523 138.377 23.063 138.155 22.5292C137.91 21.9732 137.799 21.3505 137.799 20.75C137.799 18.2147 139.845 16.1464 142.38 16.1464C142.403 16.1464 142.403 16.1464 142.425 16.1464C143.048 16.1464 143.648 16.2576 144.226 16.5022C145.939 17.2139 147.051 18.8819 147.051 20.75C147.051 21.3728 146.94 21.9732 146.695 22.5292Z" fill="#BBBBBB"/>
<path fill-rule="evenodd" clip-rule="evenodd" d="M19.6825 0C9.02953 0 0.378174 8.65136 0.378174 19.3043C0.378174 29.9573 9.02953 38.6086 19.6825 38.6086C30.3355 38.6086 38.9868 29.9573 38.9868 19.3043C38.9645 8.65136 30.3355 0.02224 19.6825 0ZM12.7213 11.1646L13.5442 9.49659C14.1002 8.36233 15.19 7.71738 16.7468 7.71738H25.3759C25.7762 7.69515 26.1988 7.80634 26.5324 8.05097C26.777 8.22889 26.9105 8.51802 26.9105 8.82939C26.9105 9.05179 26.8437 9.29642 26.7548 9.49659H16.7913C16.1686 9.49659 15.7015 9.54105 15.19 10.4974L14.8564 11.1646L8.60696 24.1527H6.42745L12.7213 11.1646ZM5.96042 26.5102C5.96042 26.8215 6.09383 27.1108 6.33849 27.2885C6.67207 27.5333 7.0724 27.6443 7.49497 27.5778H20.1718C21.7285 27.5778 22.8183 26.9327 23.3743 25.7985L23.4188 25.6873C23.4606 25.6455 23.4849 25.595 23.5082 25.5467C23.5221 25.5179 23.5356 25.4898 23.5522 25.4649L28.9566 14.2782H26.777L25.7095 16.5244L25.3537 17.2806L25.3314 17.3473L22.0399 24.175L21.7063 24.8422C21.1948 25.7985 20.7278 25.843 20.105 25.843H8.82936C8.81823 25.843 8.80713 25.8374 8.796 25.8319C8.78488 25.8263 8.77375 25.8207 8.76265 25.8207H6.13831C6.02712 26.0431 5.96042 26.2655 5.96042 26.5102ZM25.8652 28.7562C25.843 28.7897 25.8207 28.8286 25.7985 28.8674C25.7762 28.9063 25.754 28.9452 25.7318 28.9787L25.6873 29.0897C25.1313 30.2241 24.0415 30.8689 22.4847 30.8689H13.8556C13.4553 30.8912 13.0327 30.7802 12.6991 30.5354C12.4545 30.3576 12.3211 30.0683 12.3211 29.757C12.3211 29.5123 12.3878 29.29 12.499 29.0677H15.1233C15.1344 29.0677 15.1455 29.0731 15.1567 29.0787C15.1678 29.0843 15.1789 29.0897 15.19 29.0897H22.5292C23.0852 29.0897 23.53 29.001 24.0193 28.1114L24.3529 27.444L30.6245 14.3892H32.804L25.8652 28.7562ZM19.4823 12.5878H33.2266C33.3156 12.3876 33.3824 12.143 33.4046 11.9428C33.4046 11.6315 33.2711 11.3423 33.0266 11.1644C32.6928 10.9198 32.2702 10.8086 31.8699 10.8308H19.3266C17.7698 10.8308 16.6801 11.4758 16.1241 12.61L10.5196 24.2193H12.6546L13.9223 21.6617L17.8588 13.4996C18.3036 12.7435 18.7706 12.5878 19.4823 12.5878Z" fill="#BBBBBB"/>
</svg>
