<svg width="106" height="29" viewBox="0 0 106 29" fill="none" xmlns="http://www.w3.org/2000/svg">
<path d="M15.0852 26.4493C13.5115 26.7258 11.9102 26.8086 10.2537 27.0293L5.20113 12.2309V27.6644C3.62748 27.8299 2.19184 28.0508 0.700928 28.2717V0H4.89762L10.6402 16.0411V0H15.0852V26.4493ZM23.7822 10.3534C25.494 10.3534 28.1168 10.2706 29.6904 10.2706V14.6879C27.7302 14.6879 25.4386 14.6879 23.7822 14.7708V21.3418C26.3775 21.1763 28.9728 20.9552 31.5954 20.8723V25.1239L19.3646 26.0904V0H31.5954V4.41745H23.7822V10.3534ZM48.0228 4.41757H43.4396V24.7377C41.9489 24.7377 40.458 24.7377 39.0224 24.7929V4.41757H34.4394V0H48.023L48.0228 4.41757ZM55.2011 10.0498H61.2477V14.4671H55.2011V24.4894H50.8663V0H63.2078V4.41745H55.2011V10.0498ZM70.3861 20.624C72.8985 20.679 75.4385 20.8725 77.8958 21.0104V25.3727C73.9477 25.1241 69.9997 24.8759 65.9688 24.7929V0H70.3861V20.624ZM81.6229 25.6764C83.031 25.7594 84.5219 25.8423 85.9575 26.0076V0H81.6229V25.6764ZM105.312 0L99.707 13.4457L105.312 28.2717C103.655 28.0508 101.999 27.7471 100.342 27.471L97.167 19.2989L93.937 26.8086C92.3353 26.5322 90.7892 26.4493 89.1883 26.2285L94.8756 13.2799L89.7402 0H94.4889L97.3877 7.42685L100.48 0H105.312Z" fill="#BBBBBB"/>
</svg>
