<svg width="544" height="380" viewBox="0 0 544 380" fill="none" xmlns="http://www.w3.org/2000/svg">
<path d="M489.3 353.881H453.28V354.139H489.3V353.881Z" fill="#13158f"/>
<path d="M360.227 356.678H350.776V356.936H360.227V356.678Z" fill="#EBEBEB"/>
<path d="M452.192 344.338H431.322V344.596H452.192V344.338Z" fill="#EBEBEB"/>
<path d="M104.026 346.066H57.054V346.323H104.026V346.066Z" fill="#EBEBEB"/>
<path d="M120.601 346.066H113.717V346.323H120.601V346.066Z" fill="#EBEBEB"/>
<path d="M244.867 350.405H142.983V350.663H244.867V350.405Z" fill="#EBEBEB"/>
<path d="M259.278 291.471H49.2672C47.6202 291.471 46.0406 290.852 44.876 289.751C43.7114 288.65 43.0571 287.156 43.0571 285.599V6.47372C43.0715 4.92533 43.7321 3.44497 44.8951 2.35488C46.0582 1.26478 47.6296 0.6532 49.2672 0.653259H259.278C260.094 0.653259 260.901 0.805139 261.655 1.10023C262.408 1.39532 263.093 1.82784 263.669 2.37309C264.246 2.91835 264.703 3.56566 265.015 4.27807C265.327 4.99048 265.488 5.75403 265.488 6.52514V285.599C265.488 286.37 265.327 287.133 265.015 287.846C264.703 288.558 264.246 289.206 263.669 289.751C263.093 290.296 262.408 290.729 261.655 291.024C260.901 291.319 260.094 291.471 259.278 291.471ZM49.2672 0.85893C47.6932 0.861648 46.1844 1.45408 45.0714 2.50647C43.9584 3.55885 43.3319 4.98542 43.329 6.47372V285.599C43.3319 287.087 43.9584 288.514 45.0714 289.566C46.1844 290.618 47.6932 291.211 49.2672 291.214H259.278C260.852 291.211 262.361 290.618 263.474 289.566C264.587 288.514 265.213 287.087 265.216 285.599V6.47372C265.213 4.98542 264.587 3.55885 263.474 2.50647C262.361 1.45408 260.852 0.861648 259.278 0.85893H49.2672Z" fill="#EBEBEB"/>
<path d="M494.521 291.471H284.51C282.863 291.471 281.283 290.852 280.119 289.751C278.954 288.65 278.3 287.156 278.3 285.599V6.47372C278.314 4.92533 278.975 3.44497 280.138 2.35488C281.301 1.26478 282.872 0.6532 284.51 0.653259H494.521C496.168 0.653259 497.747 1.2719 498.912 2.37309C500.077 3.47428 500.731 4.96782 500.731 6.52514V285.599C500.731 287.156 500.077 288.65 498.912 289.751C497.747 290.852 496.168 291.471 494.521 291.471ZM284.51 0.85893C282.936 0.861648 281.427 1.45408 280.314 2.50647C279.201 3.55885 278.575 4.98542 278.572 6.47372V285.599C278.575 287.087 279.201 288.514 280.314 289.566C281.427 290.618 282.936 291.211 284.51 291.214H494.521C496.095 291.211 497.603 290.618 498.716 289.566C499.829 288.514 500.456 287.087 500.459 285.599V6.47372C500.456 4.98542 499.829 3.55885 498.716 2.50647C497.603 1.45408 496.095 0.861648 494.521 0.85893H284.51Z" fill="#EBEBEB"/>
<path d="M543.788 337.335H0V337.593H543.788V337.335Z" fill="#EBEBEB"/>
<path d="M321.574 331.309H410.19V253.237H321.574V331.309Z" fill="#E6E6E6"/>
<path d="M396.095 337.51H407.406V333.777H396.095V337.51Z" fill="#E0E0E0"/>
<path d="M141.646 330.558H321.585V253.237H141.646V330.558Z" fill="#E6E6E6"/>
<path d="M111.585 337.51H139.21V247.488H111.585L111.585 337.51Z" fill="#E6E6E6"/>
<path d="M234.797 326.949H312.808V259.396H234.797V326.949Z" fill="#F5F5F5"/>
<path d="M323.749 326.949H401.761V259.396H323.749V326.949Z" fill="#F5F5F5"/>
<path d="M144.996 326.949H223.007V259.396H144.996V326.949Z" fill="#F5F5F5"/>
<path d="M139.079 247.457V337.479H145.104V335.34H407.384V337.479H413.42V247.457H139.079ZM407.384 288.221H324.5V255.921H407.384V288.221ZM324.5 326.949V293.065H407.384V326.949H324.5ZM234.797 255.921H318.464V326.949H234.797V255.921ZM145.104 293.065H228.771V326.949H145.104V293.065ZM145.104 255.921H228.771V288.252H145.104V255.921Z" fill="#F0F0F0"/>
<path d="M356.224 268.323H369.275C369.609 268.324 369.94 268.263 370.248 268.143C370.557 268.023 370.838 267.847 371.074 267.624C371.311 267.402 371.498 267.137 371.626 266.846C371.754 266.554 371.82 266.242 371.82 265.926C371.82 265.611 371.754 265.299 371.626 265.007C371.498 264.716 371.311 264.451 371.074 264.229C370.838 264.006 370.557 263.83 370.248 263.71C369.94 263.59 369.609 263.529 369.275 263.53H356.224C355.552 263.53 354.908 263.783 354.433 264.232C353.957 264.682 353.69 265.291 353.69 265.926C353.69 266.562 353.957 267.171 354.433 267.621C354.908 268.07 355.552 268.323 356.224 268.323Z" fill="#E6E6E6"/>
<path d="M246.02 298.073V285.733C246.02 285.097 245.753 284.488 245.278 284.038C244.803 283.589 244.158 283.337 243.486 283.337C243.153 283.335 242.822 283.396 242.513 283.516C242.205 283.636 241.924 283.812 241.687 284.035C241.451 284.257 241.263 284.522 241.135 284.813C241.007 285.105 240.941 285.417 240.941 285.733V298.073C240.941 298.388 241.007 298.701 241.135 298.992C241.263 299.283 241.451 299.548 241.687 299.771C241.924 299.993 242.205 300.17 242.513 300.289C242.822 300.409 243.153 300.47 243.486 300.469C244.158 300.469 244.803 300.216 245.278 299.767C245.753 299.318 246.02 298.708 246.02 298.073Z" fill="#E6E6E6"/>
<path d="M356.225 302.988H369.275C369.609 302.99 369.94 302.929 370.248 302.809C370.557 302.689 370.838 302.513 371.074 302.29C371.311 302.067 371.498 301.803 371.626 301.511C371.754 301.22 371.82 300.908 371.82 300.592C371.82 299.954 371.552 299.342 371.075 298.891C370.598 298.439 369.95 298.186 369.275 298.186H356.225C355.891 298.186 355.56 298.248 355.252 298.369C354.944 298.49 354.664 298.668 354.429 298.891C354.193 299.115 354.007 299.38 353.88 299.672C353.754 299.964 353.689 300.277 353.69 300.592C353.69 301.228 353.957 301.837 354.433 302.286C354.908 302.736 355.552 302.988 356.225 302.988Z" fill="#E6E6E6"/>
<path d="M177.481 268.323H190.532C191.204 268.323 191.849 268.07 192.324 267.621C192.799 267.171 193.066 266.562 193.066 265.926C193.066 265.291 192.799 264.682 192.324 264.232C191.849 263.783 191.204 263.53 190.532 263.53H177.481C176.809 263.53 176.165 263.783 175.689 264.232C175.214 264.682 174.947 265.291 174.947 265.926C174.947 266.562 175.214 267.171 175.689 267.621C176.165 268.07 176.809 268.323 177.481 268.323Z" fill="#E6E6E6"/>
<path d="M177.481 302.988H190.532C191.204 302.988 191.849 302.736 192.324 302.286C192.799 301.837 193.066 301.228 193.066 300.592C193.068 300.277 193.003 299.964 192.877 299.672C192.75 299.38 192.563 299.115 192.328 298.891C192.093 298.668 191.813 298.49 191.505 298.369C191.196 298.248 190.866 298.186 190.532 298.186H177.481C177.148 298.186 176.817 298.248 176.509 298.369C176.201 298.49 175.921 298.668 175.686 298.891C175.45 299.115 175.264 299.38 175.137 299.672C175.01 299.964 174.946 300.277 174.947 300.592C174.947 301.228 175.214 301.837 175.689 302.286C176.165 302.736 176.809 302.988 177.481 302.988Z" fill="#E6E6E6"/>
<path d="M77.1527 335.731H102.95L102.95 107.705H77.1527L77.1527 335.731Z" fill="#E0E0E0"/>
<path d="M57.054 105.71V337.726H77.1415V105.71H57.054Z" fill="#E6E6E6"/>
<path d="M101.982 105.71V337.726H122.08V105.71H101.982Z" fill="#E6E6E6"/>
<path d="M74.7383 105.71V337.726H125.485V105.71H74.7383ZM120.721 109.71V151.307H79.5562V109.71H120.721ZM79.5562 242.521V200.914H120.721V242.521H79.5562ZM120.667 246.522V288.129H79.5562V246.522H120.667ZM79.5562 196.914V155.317H120.721V196.914H79.5562ZM79.5562 333.684V292.129H120.721V333.726L79.5562 333.684Z" fill="#F5F5F5"/>
<path d="M99.8285 119.407H93.8359V151.687H99.8285V119.407Z" fill="#EBEBEB"/>
<path d="M93.836 119.407H89.2029V151.687H93.836V119.407Z" fill="#E6E6E6"/>
<path d="M109.095 120.178H99.8284V151.697H109.095V120.178Z" fill="#E0E0E0"/>
<path d="M113.728 120.178H109.095V151.697H113.728V120.178Z" fill="#EBEBEB"/>
<path d="M86.1032 120.178H79.9258V151.697H86.1032V120.178Z" fill="#EBEBEB"/>
<path d="M89.2027 120.178H86.114V151.697H89.2027V120.178Z" fill="#FAFAFA"/>
<path d="M93.8358 196.904H99.8284V164.624H93.8358V196.904Z" fill="#E6E6E6"/>
<path d="M99.8284 196.904H104.461V164.624H99.8284V196.904Z" fill="#EBEBEB"/>
<path d="M84.5698 196.893H93.8359V165.374H84.5698V196.893Z" fill="#EBEBEB"/>
<path d="M79.9365 196.893H84.5696V165.374H79.9365V196.893Z" fill="#E0E0E0"/>
<path d="M107.561 196.893H113.739V165.374H107.561V196.893Z" fill="#EBEBEB"/>
<path d="M104.462 196.893H107.55V165.374H104.462V196.893Z" fill="#F0F0F0"/>
<path d="M93.8358 242.902H99.8284V210.622H93.8358V242.902Z" fill="#E6E6E6"/>
<path d="M99.8284 242.902H104.461V210.622H99.8284V242.902Z" fill="#EBEBEB"/>
<path d="M84.5698 242.902H93.8359V211.383H84.5698V242.902Z" fill="#EBEBEB"/>
<path d="M79.9365 242.902H84.5696V211.383H79.9365V242.902Z" fill="#E0E0E0"/>
<path d="M107.561 242.902H113.739V211.383H107.561V242.902Z" fill="#EBEBEB"/>
<path d="M104.462 242.902H107.55V211.383H104.462V242.902Z" fill="#F0F0F0"/>
<path d="M99.8285 256.63H93.8359V288.91H99.8285V256.63Z" fill="#EBEBEB"/>
<path d="M93.836 256.63H89.2029V288.91H93.836V256.63Z" fill="#E6E6E6"/>
<path d="M109.095 256.63H99.8284V288.149H109.095V256.63Z" fill="#E0E0E0"/>
<path d="M113.728 256.63H109.095V288.149H113.728V256.63Z" fill="#EBEBEB"/>
<path d="M86.1032 256.63H79.9258V288.149H86.1032V256.63Z" fill="#EBEBEB"/>
<path d="M89.2027 256.63H86.114V288.149H89.2027V256.63Z" fill="#FAFAFA"/>
<path d="M93.8358 334.908H99.8284V302.628H93.8358V334.908Z" fill="#E6E6E6"/>
<path d="M99.8284 334.908H104.461V302.628H99.8284V334.908Z" fill="#EBEBEB"/>
<path d="M84.5698 334.147H93.8359V302.628H84.5698V334.147Z" fill="#EBEBEB"/>
<path d="M79.9365 334.147H84.5696V302.628H79.9365V334.147Z" fill="#E0E0E0"/>
<path d="M107.561 334.147H113.739V302.628H107.561V334.147Z" fill="#FAFAFA"/>
<path d="M104.462 334.147H107.55V302.628H104.462V334.147Z" fill="#F0F0F0"/>
<path d="M444.688 289.517C444.579 289.63 445.167 290.391 442.796 290.062C436.977 289.229 426.819 286.977 424.002 281.331C419.967 273.238 432.475 276.189 432.04 272.076C431.604 267.963 417.379 268.652 415.867 262.584C414.356 256.517 424.013 259.407 424.133 256.414C424.252 253.422 413.137 255.293 410.93 248.753C408.722 242.213 417.129 247.025 416.172 244.3C415.215 241.575 405.796 229.266 410.908 227.847C416.02 226.428 424.655 239.056 427.983 240.845C431.311 242.634 434.269 232.32 438.239 236.67C442.208 241.02 435.911 256.26 440.969 259.222C444.742 261.422 443.677 255.355 448.647 256.486C455.412 258.029 453.138 280.58 444.688 289.517Z" fill="#EBEBEB"/>
<path d="M426.699 256.466C428.416 256.578 430.11 256.907 431.735 257.443C430.666 255.905 429.469 254.451 428.157 253.093C428.076 253.014 428.031 252.909 428.031 252.8C428.031 252.69 428.076 252.585 428.157 252.507C428.238 252.431 428.347 252.389 428.461 252.389C428.575 252.389 428.684 252.431 428.766 252.507C431.584 255.491 433.995 258.797 435.944 262.348C436.95 255.672 435.967 248.863 433.105 242.686C433.072 242.613 433.071 242.531 433.1 242.456C433.13 242.382 433.188 242.322 433.264 242.287C433.34 242.253 433.426 242.247 433.506 242.272C433.586 242.296 433.653 242.349 433.692 242.418C433.692 242.521 438.674 252.26 436.433 263.212C437.031 264.291 437.63 265.433 438.228 266.667C440.312 271.08 441.962 275.665 443.154 280.365C445.302 276.52 446.478 272.258 446.591 267.911C446.591 267.871 446.6 267.832 446.616 267.795C446.633 267.758 446.657 267.724 446.687 267.697C446.718 267.669 446.754 267.647 446.793 267.633C446.833 267.618 446.875 267.612 446.917 267.613C446.96 267.613 447.002 267.621 447.041 267.637C447.08 267.652 447.115 267.675 447.144 267.704C447.174 267.733 447.197 267.767 447.212 267.804C447.227 267.842 447.234 267.881 447.233 267.922C447.133 272.591 445.807 277.164 443.372 281.228C445.574 290.452 446.307 299.935 445.547 309.364C445.536 309.472 445.481 309.572 445.394 309.643C445.307 309.714 445.194 309.75 445.079 309.745H445.025C444.922 309.725 444.831 309.67 444.769 309.59C444.706 309.51 444.678 309.411 444.688 309.313C445.707 297.35 444.188 285.316 440.218 273.917C438.443 271.966 436.012 270.652 433.334 270.194C433.249 270.181 433.173 270.138 433.122 270.072C433.071 270.007 433.049 269.925 433.062 269.845C433.068 269.805 433.083 269.767 433.105 269.733C433.128 269.7 433.157 269.67 433.191 269.647C433.226 269.624 433.265 269.608 433.306 269.599C433.347 269.591 433.39 269.59 433.431 269.598C435.788 269.976 437.974 271.003 439.718 272.549C437.849 267.58 435.378 262.831 432.355 258.399C430.533 257.673 428.596 257.242 426.623 257.124C426.573 257.12 426.525 257.105 426.481 257.081C426.438 257.057 426.401 257.024 426.372 256.985C426.344 256.945 426.326 256.9 426.318 256.853C426.311 256.806 426.315 256.758 426.33 256.712C426.336 256.673 426.351 256.635 426.373 256.601C426.396 256.567 426.425 256.538 426.459 256.515C426.494 256.492 426.533 256.476 426.574 256.467C426.615 256.459 426.658 256.458 426.699 256.466Z" fill="#F5F5F5"/>
<path d="M452.16 292.643C456.999 292.725 465.265 288.478 468.473 284.344C471.682 280.21 462.502 282.75 463.449 279.449C464.395 276.148 475.825 278.585 477.935 273.865C480.045 269.145 471.801 270.235 472.127 267.819C472.454 265.402 481.002 265.896 483.743 260.877C486.483 255.859 478.968 258.666 480.154 256.589C481.339 254.512 490.747 245.75 486.81 243.93C482.873 242.11 474.031 251.221 471.073 252.239C468.114 253.257 467.429 246.964 463.579 249.977C459.729 252.99 462.611 266.153 458.076 267.891C454.704 269.186 456.14 263.15 452.257 264.672C445.504 267.335 450.191 292.602 452.16 292.643Z" fill="#E0E0E0"/>
<g opacity="0.3">
<path d="M452.16 292.643C456.999 292.725 465.265 288.478 468.473 284.344C471.682 280.21 462.502 282.75 463.449 279.449C464.395 276.148 475.825 278.585 477.935 273.865C480.045 269.145 471.801 270.235 472.127 267.819C472.454 265.402 481.002 265.896 483.743 260.877C486.483 255.859 478.968 258.666 480.154 256.589C481.339 254.512 490.747 245.75 486.81 243.93C482.873 242.11 474.031 251.221 471.073 252.239C468.114 253.257 467.429 246.964 463.579 249.977C459.729 252.99 462.611 266.153 458.076 267.891C454.704 269.186 456.14 263.15 452.257 264.672C445.504 267.335 450.191 292.602 452.16 292.643Z" fill="#EBEBEB"/>
</g>
<path d="M453.758 287.141C453.72 287.133 453.685 287.117 453.655 287.094C453.624 287.071 453.6 287.041 453.584 287.008C451.727 283.171 450.976 278.939 451.409 274.739C451.412 274.699 451.423 274.659 451.442 274.623C451.461 274.586 451.488 274.554 451.52 274.527C451.552 274.5 451.59 274.48 451.631 274.467C451.671 274.454 451.714 274.449 451.757 274.452C451.843 274.459 451.922 274.498 451.978 274.559C452.035 274.62 452.065 274.699 452.062 274.781C451.69 278.764 452.363 282.773 454.019 286.452C456.018 281.34 458.486 276.402 461.393 271.696C461.016 265.421 462.588 259.18 465.917 253.741C465.969 253.685 466.04 253.648 466.117 253.637C466.195 253.627 466.274 253.643 466.34 253.683C466.406 253.723 466.454 253.784 466.476 253.855C466.499 253.926 466.493 254.002 466.461 254.07C463.379 259.136 461.829 264.906 461.98 270.749C465.461 265.103 469.613 259.851 474.357 255.098C474.438 255.023 474.548 254.98 474.661 254.98C474.775 254.98 474.885 255.023 474.966 255.098C475.007 255.135 475.039 255.18 475.061 255.23C475.084 255.279 475.095 255.332 475.095 255.386C475.095 255.44 475.084 255.493 475.061 255.542C475.039 255.592 475.007 255.636 474.966 255.674C471.451 259.17 468.277 262.96 465.482 266.996C468.409 265.958 471.514 265.438 474.64 265.464C474.725 265.469 474.806 265.505 474.864 265.564C474.923 265.623 474.955 265.701 474.955 265.783C474.952 265.863 474.917 265.938 474.856 265.994C474.795 266.05 474.714 266.081 474.629 266.081C471.271 266.048 467.941 266.66 464.841 267.88C462.93 270.649 461.169 273.508 459.566 276.447C460.868 275.594 462.35 275.018 463.911 274.759C465.471 274.5 467.072 274.563 468.604 274.945C468.645 274.955 468.683 274.972 468.717 274.996C468.751 275.02 468.78 275.05 468.801 275.084C468.822 275.119 468.836 275.157 468.841 275.197C468.847 275.237 468.843 275.277 468.832 275.315C468.823 275.355 468.806 275.392 468.781 275.425C468.756 275.458 468.724 275.486 468.687 275.506C468.65 275.526 468.609 275.539 468.567 275.543C468.524 275.548 468.481 275.544 468.441 275.531C466.781 275.124 465.041 275.11 463.375 275.493C461.709 275.875 460.169 276.64 458.892 277.722C453.286 288.156 450.086 299.597 449.506 311.287C449.5 311.393 449.452 311.492 449.371 311.565C449.29 311.637 449.183 311.678 449.071 311.678C449.014 311.677 448.958 311.664 448.907 311.642C448.855 311.62 448.809 311.589 448.77 311.549C448.732 311.51 448.702 311.464 448.682 311.414C448.663 311.363 448.655 311.31 448.658 311.256C449.045 303.019 450.765 294.886 453.758 287.141Z" fill="#F5F5F5"/>
<path d="M438.532 337.366C433.91 329.139 430.919 317.272 430.919 312.069C430.94 309.939 431.457 307.84 432.433 305.921C433.408 304.001 434.819 302.309 436.564 300.962H460.24C461.984 302.309 463.393 304.002 464.366 305.922C465.34 307.841 465.855 309.94 465.874 312.069C465.874 317.272 462.84 329.149 458.261 337.366H438.532Z" fill="#F0F0F0"/>
<path d="M398.053 177.673C398.053 177.406 398.053 177.139 398.053 176.882L399.695 176.018C399.565 175.285 399.361 174.565 399.086 173.869H397.204C396.97 173.386 396.69 172.925 396.367 172.491L397.335 170.979C396.838 170.396 396.276 169.865 395.66 169.395L394.061 170.311C393.602 170.005 393.114 169.74 392.604 169.519V167.74C391.867 167.479 391.106 167.286 390.331 167.164L389.417 168.717C389.145 168.717 388.863 168.717 388.58 168.717C388.297 168.717 388.014 168.717 387.742 168.717L386.829 167.164C386.053 167.286 385.292 167.479 384.556 167.74V169.519C384.046 169.74 383.558 170.005 383.098 170.311L381.489 169.395C380.878 169.868 380.321 170.399 379.825 170.979L380.793 172.491C380.466 172.922 380.185 173.384 379.955 173.869H378.074C377.794 174.563 377.589 175.284 377.465 176.018L379.107 176.882C379.107 177.139 379.107 177.406 379.107 177.673C379.107 177.941 379.107 178.208 379.107 178.465L377.465 179.329C377.589 180.063 377.794 180.784 378.074 181.478H379.955C380.185 181.963 380.466 182.425 380.793 182.856L379.825 184.378C380.324 184.953 380.881 185.48 381.489 185.952L383.098 185.036C383.555 185.346 384.043 185.611 384.556 185.828V187.607C385.291 187.872 386.052 188.065 386.829 188.183L387.742 186.63C388.014 186.63 388.297 186.63 388.58 186.63C388.863 186.63 389.145 186.63 389.417 186.63L390.331 188.183C391.107 188.065 391.869 187.872 392.604 187.607V185.828C393.116 185.611 393.605 185.346 394.061 185.036L395.66 185.952C396.274 185.483 396.835 184.956 397.335 184.378L396.367 182.856C396.69 182.422 396.97 181.961 397.204 181.478H399.086C399.361 180.782 399.565 180.062 399.695 179.329L398.053 178.465C398.053 178.208 398.053 177.941 398.053 177.673ZM388.58 183.761C387.306 183.761 386.062 183.404 385.003 182.735C383.944 182.066 383.119 181.116 382.632 180.003C382.144 178.891 382.017 177.667 382.265 176.486C382.514 175.305 383.127 174.22 384.027 173.369C384.928 172.517 386.075 171.938 387.324 171.703C388.573 171.468 389.867 171.588 391.044 172.049C392.22 172.51 393.226 173.29 393.933 174.291C394.641 175.292 395.018 176.469 395.018 177.673C395.018 178.476 394.85 179.271 394.524 180.013C394.198 180.754 393.72 181.427 393.117 181.993C392.515 182.559 391.8 183.006 391.014 183.31C390.227 183.613 389.386 183.767 388.536 183.761H388.58Z" fill="#F0F0F0"/>
<path d="M385.676 199.649C385.676 199.248 385.676 198.857 385.622 198.467L388.069 197.171C387.892 196.081 387.594 195.013 387.177 193.983L384.382 194.035C384.023 193.317 383.601 192.629 383.12 191.978L384.567 189.705C383.825 188.837 382.986 188.048 382.065 187.35L379.662 188.708C378.975 188.253 378.247 187.858 377.487 187.525V184.872C376.387 184.472 375.246 184.183 374.083 184.008L372.723 186.332C371.888 186.25 371.046 186.25 370.211 186.332L368.851 184.008C367.688 184.183 366.547 184.472 365.447 184.872V187.525C364.687 187.858 363.959 188.253 363.272 188.708L360.858 187.35C359.943 188.051 359.108 188.84 358.367 189.705L359.814 191.978C359.333 192.629 358.91 193.317 358.552 194.035L355.746 193.983C355.325 195.023 355.019 196.102 354.833 197.202L357.29 198.498C357.29 198.888 357.236 199.279 357.236 199.68C357.236 200.081 357.236 200.472 357.29 200.863L354.833 202.158C355.019 203.258 355.325 204.337 355.746 205.377L358.552 205.326C358.908 206.045 359.33 206.733 359.814 207.382L358.367 209.655C359.108 210.52 359.943 211.31 360.858 212.01L363.272 210.653C363.956 211.111 364.684 211.507 365.447 211.835V214.488C366.547 214.888 367.688 215.177 368.851 215.352L370.211 213.028C371.046 213.11 371.888 213.11 372.723 213.028L374.083 215.352C375.246 215.177 376.387 214.888 377.487 214.488V211.835C378.249 211.507 378.978 211.111 379.662 210.653L382.065 212.01C382.986 211.312 383.825 210.523 384.567 209.655L383.099 207.352C383.582 206.702 384.004 206.014 384.36 205.295L387.155 205.346C387.581 204.308 387.888 203.228 388.069 202.128L385.622 200.832C385.654 200.441 385.676 200.05 385.676 199.649ZM371.538 204.935C370.432 204.935 369.351 204.625 368.432 204.044C367.513 203.463 366.796 202.638 366.373 201.672C365.95 200.706 365.839 199.643 366.055 198.618C366.271 197.593 366.803 196.651 367.585 195.912C368.367 195.173 369.363 194.669 370.447 194.465C371.531 194.261 372.655 194.366 373.677 194.766C374.698 195.166 375.571 195.843 376.186 196.713C376.8 197.582 377.128 198.604 377.128 199.649C377.128 200.347 376.982 201.038 376.698 201.682C376.415 202.326 375.999 202.91 375.475 203.401C374.951 203.893 374.33 204.281 373.647 204.545C372.964 204.808 372.232 204.94 371.494 204.935H371.538Z" fill="#F0F0F0"/>
<path d="M165.485 158.886H152.674C151.579 158.886 150.495 159.09 149.483 159.486C148.472 159.883 147.553 160.464 146.779 161.196C146.005 161.929 145.392 162.798 144.974 163.755C144.556 164.712 144.342 165.738 144.343 166.773V178.877C144.343 180.967 145.22 182.971 146.782 184.45C148.344 185.929 150.463 186.761 152.674 186.764H165.485C167.696 186.761 169.815 185.929 171.377 184.45C172.939 182.971 173.816 180.967 173.816 178.877V166.773C173.818 165.738 173.603 164.712 173.185 163.755C172.767 162.798 172.154 161.929 171.38 161.196C170.606 160.464 169.688 159.883 168.676 159.486C167.665 159.09 166.58 158.886 165.485 158.886ZM159.08 181.509C159.08 181.509 152.152 174.372 152.152 170.753C152.152 169.015 152.882 167.349 154.181 166.121C155.48 164.892 157.242 164.202 159.08 164.202C160.917 164.202 162.679 164.892 163.978 166.121C165.278 167.349 166.008 169.015 166.008 170.753C166.008 174.342 159.08 181.478 159.08 181.478V181.509Z" fill="#F0F0F0"/>
<path d="M159.08 167.74C158.453 167.74 157.841 167.915 157.32 168.245C156.8 168.574 156.394 169.042 156.155 169.589C155.915 170.137 155.853 170.739 155.976 171.32C156.099 171.901 156.402 172.434 156.846 172.852C157.289 173.27 157.854 173.554 158.469 173.668C159.084 173.783 159.72 173.722 160.298 173.494C160.876 173.266 161.37 172.881 161.716 172.387C162.063 171.894 162.247 171.314 162.244 170.722C162.244 170.329 162.163 169.941 162.003 169.578C161.844 169.216 161.611 168.887 161.317 168.609C161.023 168.332 160.674 168.113 160.29 167.964C159.906 167.814 159.495 167.738 159.08 167.74Z" fill="#F0F0F0"/>
<path d="M424.154 68.5244H410.636C409.625 68.523 408.624 68.7101 407.69 69.0749C406.756 69.4396 405.907 69.975 405.192 70.6502C404.477 71.3255 403.909 72.1274 403.522 73.0102C403.135 73.8929 402.936 74.8392 402.936 75.7948V88.5875C402.936 89.5431 403.135 90.4894 403.522 91.3722C403.909 92.2549 404.477 93.0569 405.192 93.7321C405.907 94.4074 406.756 94.9427 407.69 95.3075C408.624 95.6722 409.625 95.8593 410.636 95.8579H424.154C425.165 95.8593 426.165 95.6722 427.099 95.3073C428.032 94.9424 428.88 94.4069 429.595 93.7315C430.309 93.0561 430.875 92.2541 431.261 91.3714C431.647 90.4887 431.845 89.5426 431.844 88.5875V75.7228C431.826 73.8063 431.008 71.9739 429.568 70.6254C428.127 69.2768 426.181 68.5216 424.154 68.5244ZM425.96 77.8721C425.605 78.2963 425.192 78.6734 424.731 78.993C424.712 78.9999 424.696 79.013 424.686 79.0299C424.676 79.0468 424.673 79.0665 424.676 79.0856C424.691 79.5635 424.662 80.0418 424.589 80.515C424.477 81.5068 424.198 82.4754 423.763 83.384C423.315 84.3087 422.713 85.1594 421.979 85.9035C420.722 87.1566 419.091 88.0176 417.303 88.3716C416.673 88.5031 416.033 88.5789 415.389 88.5978C413.471 88.6391 411.582 88.1533 409.951 87.1992H409.864C411.662 87.3732 413.465 86.9076 414.921 85.8932C414.207 85.8771 413.516 85.6532 412.942 85.252C412.368 84.8508 411.938 84.2918 411.713 83.6514C412.197 83.7489 412.697 83.7489 413.181 83.6514C412.72 83.5597 412.283 83.3802 411.898 83.1238C411.513 82.8675 411.187 82.5396 410.94 82.1603C410.6 81.6491 410.419 81.0574 410.418 80.4533C410.878 80.6865 411.387 80.82 411.908 80.844C411.2 80.3754 410.701 79.6759 410.505 78.8799C410.294 78.0898 410.415 77.253 410.842 76.5455C411.715 77.5391 412.795 78.3516 414.016 78.932C415.236 79.5124 416.57 79.8483 417.933 79.9185C417.929 79.7963 417.907 79.6753 417.868 79.5586C417.756 78.8224 417.922 78.0725 418.336 77.4402C418.588 77.0592 418.925 76.7347 419.323 76.4896C419.721 76.2445 420.171 76.0846 420.642 76.0211C421.176 75.9324 421.725 75.9675 422.242 76.1233C422.759 76.2791 423.229 76.551 423.611 76.9157C423.634 76.9414 423.666 76.96 423.7 76.9691C423.735 76.9783 423.772 76.9776 423.806 76.9672C424.497 76.8275 425.161 76.5882 425.775 76.2576C425.529 76.9424 425.051 77.5315 424.415 77.9338C425.069 77.8615 425.707 77.6951 426.308 77.4402L425.96 77.8721Z" fill="#F0F0F0"/>
<path d="M140.721 60.133H126.246C121.699 60.133 118.013 63.6183 118.013 67.9176V81.605C118.013 85.9043 121.699 89.3896 126.246 89.3896H140.721C145.268 89.3896 148.954 85.9043 148.954 81.605V67.9176C148.954 63.6183 145.268 60.133 140.721 60.133Z" fill="#F0F0F0"/>
<path d="M136.947 70.1081V74.2215C136.947 74.6266 136.863 75.0278 136.699 75.4021C136.535 75.7764 136.295 76.1164 135.992 76.4029C135.689 76.6894 135.329 76.9166 134.933 77.0717C134.537 77.2267 134.113 77.3065 133.685 77.3065H129.519L124.766 81.8004V77.3065C123.901 77.3065 123.071 76.9815 122.459 76.4029C121.847 75.8244 121.504 75.0397 121.504 74.2215V70.1081C121.504 69.2899 121.847 68.5052 122.459 67.9266C123.071 67.348 123.901 67.023 124.766 67.023H133.685C134.55 67.023 135.38 67.348 135.992 67.9266C136.603 68.5052 136.947 69.2899 136.947 70.1081Z" fill="white"/>
<path d="M145.463 76.3296V79.4969C145.463 80.1269 145.198 80.7311 144.727 81.1766C144.256 81.6221 143.617 81.8724 142.951 81.8724V85.3276L139.296 81.8929H136.099C135.433 81.8929 134.794 81.6427 134.323 81.1972C133.851 80.7517 133.587 80.1475 133.587 79.5174V76.3501C133.585 76.0373 133.649 75.7273 133.775 75.4379C133.9 75.1485 134.085 74.8854 134.319 74.6638C134.552 74.4421 134.83 74.2662 135.135 74.1462C135.441 74.0261 135.768 73.9644 136.099 73.9644H142.951C143.615 73.9643 144.253 74.2132 144.723 74.6565C145.194 75.0997 145.46 75.7013 145.463 76.3296Z" fill="white"/>
<path d="M133.5 70.366H125.43C125.332 70.366 125.238 70.3291 125.169 70.2635C125.099 70.1978 125.06 70.1088 125.06 70.0159C125.06 69.9231 125.099 69.834 125.169 69.7684C125.238 69.7027 125.332 69.6658 125.43 69.6658H133.5C133.598 69.6658 133.692 69.7027 133.761 69.7684C133.831 69.834 133.87 69.9231 133.87 70.0159C133.87 70.1088 133.831 70.1978 133.761 70.2635C133.692 70.3291 133.598 70.366 133.5 70.366Z" fill="#EBEBEB"/>
<path d="M133.5 72.1451H125.43C125.332 72.1451 125.238 72.1082 125.169 72.0425C125.099 71.9769 125.06 71.8878 125.06 71.795C125.06 71.7021 125.099 71.6131 125.169 71.5474C125.238 71.4818 125.332 71.4449 125.43 71.4449H133.5C133.598 71.4449 133.692 71.4818 133.761 71.5474C133.831 71.6131 133.87 71.7021 133.87 71.795C133.87 71.8878 133.831 71.9769 133.761 72.0425C133.692 72.1082 133.598 72.1451 133.5 72.1451Z" fill="#EBEBEB"/>
<path d="M131.249 73.9241H125.43C125.332 73.9241 125.238 73.8872 125.169 73.8216C125.099 73.7559 125.06 73.6669 125.06 73.574C125.06 73.4812 125.099 73.3921 125.169 73.3265C125.238 73.2608 125.332 73.2239 125.43 73.2239H131.249C131.347 73.2239 131.441 73.2608 131.51 73.3265C131.579 73.3921 131.618 73.4812 131.618 73.574C131.618 73.6669 131.579 73.7559 131.51 73.8216C131.441 73.8872 131.347 73.9241 131.249 73.9241Z" fill="#EBEBEB"/>
<path d="M271.894 379.816C388.354 379.816 482.764 374.604 482.764 368.175C482.764 361.746 388.354 356.534 271.894 356.534C155.434 356.534 61.0239 361.746 61.0239 368.175C61.0239 374.604 155.434 379.816 271.894 379.816Z" fill="#F5F5F5"/>
<path d="M321.814 124.662H320.726V113.628C320.723 111.503 319.83 109.466 318.242 107.963C316.654 106.459 314.501 105.612 312.254 105.607H290.774C288.237 105.604 285.804 104.65 284.01 102.953C282.216 101.257 281.206 98.9565 281.204 96.5572V88.063H282.291V96.5778C282.294 98.7043 283.189 100.743 284.779 102.247C286.369 103.75 288.525 104.596 290.774 104.599H312.254C314.79 104.602 317.222 105.556 319.014 107.253C320.807 108.95 321.814 111.25 321.814 113.648V124.662Z" fill="black"/>
<path d="M329.535 124.878H315.397C314.026 124.878 312.711 125.392 311.74 126.308C310.77 127.224 310.223 128.466 310.22 129.763V143.131C310.223 144.428 310.77 145.67 311.74 146.586C312.711 147.502 314.026 148.016 315.397 148.016H329.535C330.906 148.016 332.222 147.502 333.192 146.586C334.163 145.67 334.709 144.428 334.712 143.131V129.763C334.709 128.466 334.163 127.224 333.192 126.308C332.222 125.392 330.906 124.878 329.535 124.878Z" fill="#407BFF"/>
<g opacity="0.4">
<path d="M329.535 124.878H315.397C314.026 124.878 312.711 125.392 311.74 126.308C310.77 127.224 310.223 128.466 310.22 129.763V143.131C310.223 144.428 310.77 145.67 311.74 146.586C312.711 147.502 314.026 148.016 315.397 148.016H329.535C330.906 148.016 332.222 147.502 333.192 146.586C334.163 145.67 334.709 144.428 334.712 143.131V129.763C334.709 128.466 334.163 127.224 333.192 126.308C332.222 125.392 330.906 124.878 329.535 124.878Z" fill="white"/>
</g>
<path d="M322.357 127.058C320.433 127.056 318.552 127.594 316.951 128.603C315.351 129.613 314.103 131.048 313.366 132.729C312.628 134.409 312.435 136.258 312.81 138.043C313.185 139.827 314.111 141.466 315.471 142.752C316.832 144.039 318.565 144.914 320.452 145.269C322.339 145.623 324.295 145.44 326.072 144.743C327.849 144.046 329.368 142.866 330.435 141.353C331.503 139.839 332.072 138.06 332.069 136.241C332.064 133.807 331.039 131.475 329.218 129.754C327.398 128.033 324.931 127.063 322.357 127.058ZM320.813 128.086C319.868 128.977 319.101 130.022 318.551 131.171H315.473C316.794 129.552 318.705 128.456 320.835 128.097L320.813 128.086ZM314.81 132.035H318.138C317.657 133.215 317.367 134.456 317.278 135.717V135.933H313.635C313.684 134.566 314.088 133.231 314.81 132.046V132.035ZM315.005 140.725C314.208 139.559 313.733 138.222 313.624 136.838H317.3C317.441 138.18 317.808 139.492 318.388 140.725H315.005ZM315.723 141.63H318.844C319.44 142.693 320.236 143.645 321.194 144.437C319.068 144.174 317.12 143.178 315.723 141.64V141.63ZM321.879 143.8C321.118 143.179 320.468 142.446 319.954 141.63H321.922L321.879 143.8ZM321.879 140.715H319.432C318.81 139.492 318.416 138.177 318.268 136.827H321.922L321.879 140.715ZM321.879 135.922H318.235C318.299 134.581 318.615 133.261 319.171 132.025H321.922L321.879 135.922ZM321.879 131.12H319.617C320.176 130.081 320.945 129.156 321.879 128.395V131.12ZM331.112 135.922H327.458V135.706C327.374 134.445 327.085 133.203 326.599 132.025H329.927C330.663 133.216 331.071 134.564 331.112 135.943V135.922ZM329.242 131.12H326.175C325.617 129.972 324.847 128.928 323.902 128.035C326.028 128.407 327.932 129.514 329.242 131.141V131.12ZM322.836 128.405C323.772 129.16 324.541 130.082 325.098 131.12H322.836V128.405ZM322.836 132.025H325.544C326.102 133.261 326.422 134.58 326.49 135.922H322.836V132.025ZM322.836 136.827H326.447C326.303 138.178 325.909 139.494 325.283 140.715H322.836V136.827ZM322.836 143.789V141.64H324.761C324.253 142.461 323.602 143.194 322.836 143.81V143.789ZM323.521 144.427C324.478 143.634 325.275 142.683 325.87 141.619H328.992C327.6 143.169 325.651 144.176 323.521 144.447V144.427ZM329.709 140.715H326.338C326.917 139.482 327.284 138.17 327.425 136.827H331.101C330.996 138.221 330.517 139.565 329.709 140.735V140.715Z" fill="white"/>
<path d="M365.697 107.602H364.61V96.5675C364.61 94.4429 363.717 92.4053 362.128 90.903C360.539 89.4007 358.385 88.5567 356.138 88.5567H304.88V87.5283H356.138C358.672 87.531 361.102 88.4843 362.894 90.1788C364.686 91.8734 365.694 94.171 365.697 96.5675V107.602Z" fill="black"/>
<path d="M369.21 99.6011H355.072C353.701 99.6011 352.386 100.115 351.415 101.031C350.445 101.947 349.898 103.189 349.895 104.486V117.854C349.898 119.151 350.445 120.393 351.415 121.309C352.386 122.225 353.701 122.739 355.072 122.739H369.21C370.581 122.739 371.897 122.225 372.867 121.309C373.838 120.393 374.384 119.151 374.387 117.854V104.517C374.39 103.872 374.258 103.233 373.999 102.637C373.741 102.041 373.36 101.499 372.879 101.042C372.398 100.585 371.826 100.223 371.197 99.9757C370.567 99.7284 369.892 99.6011 369.21 99.6011Z" fill="#407BFF"/>
<g opacity="0.4">
<path d="M369.21 99.6011H355.072C353.701 99.6011 352.386 100.115 351.415 101.031C350.445 101.947 349.898 103.189 349.895 104.486V117.854C349.898 119.151 350.445 120.393 351.415 121.309C352.386 122.225 353.701 122.739 355.072 122.739H369.21C370.581 122.739 371.897 122.225 372.867 121.309C373.838 120.393 374.384 119.151 374.387 117.854V104.517C374.39 103.872 374.258 103.233 373.999 102.637C373.741 102.041 373.36 101.499 372.879 101.042C372.398 100.585 371.826 100.223 371.197 99.9757C370.567 99.7284 369.892 99.6011 369.21 99.6011Z" fill="white"/>
</g>
<path opacity="0.9" d="M363.794 104.784C362.996 104.03 361.988 103.505 360.887 103.273C359.786 103.041 358.638 103.11 357.576 103.472C356.515 103.835 355.585 104.476 354.896 105.32C354.206 106.164 353.784 107.176 353.681 108.238C353.577 109.3 353.796 110.369 354.311 111.318C354.827 112.267 355.617 113.057 356.59 113.597C357.563 114.136 358.679 114.403 359.807 114.364C360.934 114.326 362.027 113.985 362.957 113.381C363.001 113.639 363.13 113.876 363.326 114.06L367.013 117.546C367.137 117.663 367.283 117.755 367.445 117.819C367.606 117.882 367.779 117.914 367.954 117.914C368.129 117.914 368.302 117.882 368.463 117.819C368.624 117.755 368.771 117.663 368.895 117.546C369.018 117.429 369.116 117.29 369.183 117.138C369.25 116.985 369.284 116.822 369.284 116.656C369.284 116.491 369.25 116.328 369.183 116.175C369.116 116.022 369.018 115.884 368.895 115.767L365.208 112.281C365.011 112.093 364.755 111.971 364.479 111.931C365.265 110.851 365.627 109.546 365.502 108.241C365.377 106.935 364.772 105.712 363.794 104.784ZM362.532 111.53C361.95 112.082 361.208 112.458 360.4 112.611C359.591 112.763 358.753 112.686 357.992 112.388C357.23 112.09 356.579 111.585 356.121 110.937C355.663 110.29 355.418 109.528 355.418 108.748C355.418 107.969 355.663 107.207 356.121 106.559C356.579 105.911 357.23 105.406 357.992 105.109C358.753 104.811 359.591 104.733 360.4 104.886C361.208 105.039 361.95 105.415 362.532 105.967C362.919 106.332 363.227 106.765 363.436 107.242C363.646 107.72 363.753 108.232 363.753 108.748C363.753 109.265 363.646 109.777 363.436 110.254C363.227 110.732 362.919 111.165 362.532 111.53Z" fill="white"/>
<path d="M369.264 70.0052H303.662V71.0336H369.264V70.0052Z" fill="black"/>
<path d="M379.64 52.3587H365.556C364.877 52.3587 364.204 52.4854 363.576 52.7315C362.949 52.9776 362.379 53.3383 361.899 53.793C361.419 54.2477 361.039 54.7874 360.78 55.3812C360.521 55.975 360.388 56.6113 360.39 57.2537V70.5811C360.388 71.2234 360.521 71.8597 360.78 72.4535C361.039 73.0473 361.419 73.587 361.899 74.0417C362.379 74.4964 362.949 74.8571 363.576 75.1032C364.204 75.3493 364.877 75.476 365.556 75.476H379.64C381.013 75.476 382.33 74.9603 383.301 74.0423C384.271 73.1243 384.817 71.8793 384.817 70.5811V57.2125C384.805 55.9214 384.255 54.6869 383.285 53.7778C382.316 52.8687 381.005 52.3587 379.64 52.3587Z" fill="#407BFF"/>
<g opacity="0.4">
<path d="M379.64 52.3587H365.556C364.877 52.3587 364.204 52.4854 363.576 52.7315C362.949 52.9776 362.379 53.3383 361.899 53.793C361.419 54.2477 361.039 54.7874 360.78 55.3812C360.521 55.975 360.388 56.6113 360.39 57.2537V70.5811C360.388 71.2234 360.521 71.8597 360.78 72.4535C361.039 73.0473 361.419 73.587 361.899 74.0417C362.379 74.4964 362.949 74.8571 363.576 75.1032C364.204 75.3493 364.877 75.476 365.556 75.476H379.64C381.013 75.476 382.33 74.9603 383.301 74.0423C384.271 73.1243 384.817 71.8793 384.817 70.5811V57.2125C384.805 55.9214 384.255 54.6869 383.285 53.7778C382.316 52.8687 381.005 52.3587 379.64 52.3587Z" fill="white"/>
</g>
<g opacity="0.5">
<path d="M369.166 70.5194C369.166 70.8631 369.059 71.1991 368.857 71.4849C368.655 71.7707 368.368 71.9935 368.032 72.125C367.696 72.2565 367.326 72.291 366.97 72.2239C366.613 72.1568 366.286 71.9913 366.029 71.7483C365.772 71.5052 365.597 71.1955 365.526 70.8584C365.455 70.5213 365.491 70.1719 365.63 69.8543C365.769 69.5367 366.005 69.2653 366.307 69.0744C366.61 68.8834 366.965 68.7815 367.328 68.7815C367.57 68.7801 367.81 68.8241 368.034 68.911C368.257 68.9978 368.46 69.1258 368.631 69.2874C368.802 69.4491 368.938 69.6412 369.03 69.8527C369.121 70.0642 369.168 70.2908 369.166 70.5194Z" fill="white"/>
<path d="M376.301 70.5194C376.301 70.8631 376.193 71.1991 375.991 71.4849C375.79 71.7707 375.502 71.9935 375.167 72.125C374.831 72.2566 374.461 72.291 374.105 72.2239C373.748 72.1569 373.421 71.9913 373.164 71.7483C372.907 71.5052 372.731 71.1956 372.661 70.8585C372.59 70.5213 372.626 70.1719 372.765 69.8543C372.904 69.5368 373.14 69.2653 373.442 69.0744C373.744 68.8834 374.1 68.7815 374.463 68.7815C374.705 68.7801 374.945 68.8241 375.168 68.911C375.392 68.9979 375.595 69.1258 375.766 69.2875C375.937 69.4491 376.072 69.6413 376.164 69.8527C376.256 70.0642 376.303 70.2908 376.301 70.5194Z" fill="white"/>
</g>
<path d="M375.997 67.8971H365.317C365.212 67.8953 365.111 67.8626 365.027 67.8036C364.943 67.7446 364.881 67.6622 364.849 67.568L362.609 60.5444C362.586 60.4751 362.58 60.4015 362.594 60.3299C362.607 60.2583 362.638 60.1908 362.685 60.133C362.73 60.0756 362.79 60.0289 362.858 59.9968C362.925 59.9647 363 59.9479 363.076 59.9479H378.237C378.315 59.9479 378.391 59.9646 378.461 59.9966C378.531 60.0287 378.592 60.0753 378.64 60.133C378.684 60.1919 378.714 60.2593 378.727 60.3305C378.74 60.4017 378.736 60.4748 378.716 60.5444L376.464 67.568C376.434 67.663 376.372 67.7463 376.288 67.8056C376.204 67.8648 376.102 67.8969 375.997 67.8971ZM365.687 66.9716H375.638L377.585 60.8734H363.729L365.687 66.9716Z" fill="white"/>
<path d="M378.237 60.8734H378.107C378.044 60.8569 377.986 60.8288 377.935 60.7908C377.885 60.7528 377.842 60.7056 377.811 60.6521C377.78 60.5985 377.76 60.5396 377.753 60.4787C377.746 60.4179 377.751 60.3563 377.77 60.2976L378.629 57.4696C378.742 57.0994 378.979 56.7739 379.305 56.542C379.63 56.3102 380.027 56.1846 380.434 56.1842H382.131C382.261 56.1842 382.385 56.2329 382.477 56.3197C382.569 56.4065 382.62 56.5242 382.62 56.6469C382.62 56.7697 382.569 56.8874 382.477 56.9741C382.385 57.0609 382.261 57.1097 382.131 57.1097H380.434C380.24 57.1114 380.051 57.1723 379.896 57.2835C379.742 57.3946 379.629 57.5501 379.575 57.7267L378.716 60.5547C378.682 60.6486 378.617 60.7299 378.531 60.7871C378.445 60.8444 378.342 60.8746 378.237 60.8734Z" fill="white"/>
<path d="M323.01 56.2665H301.672V55.2381H323.01C325.257 55.2381 327.412 54.3941 329.001 52.8918C330.589 51.3895 331.482 49.3519 331.482 47.2273V36.1931H332.57V47.2273C332.567 49.6238 331.559 51.9213 329.766 53.6159C327.974 55.3105 325.544 56.2637 323.01 56.2665Z" fill="black"/>
<path d="M339.552 18.5774H324.587C321.944 18.5774 319.802 20.6032 319.802 23.1021V37.2522C319.802 39.7512 321.944 41.777 324.587 41.777H339.552C342.195 41.777 344.337 39.7512 344.337 37.2522V23.1021C344.337 20.6032 342.195 18.5774 339.552 18.5774Z" fill="#407BFF"/>
<g opacity="0.4">
<path d="M339.552 18.5774H324.587C321.944 18.5774 319.802 20.6032 319.802 23.1021V37.2522C319.802 39.7512 321.944 41.777 324.587 41.777H339.552C342.195 41.777 344.337 39.7512 344.337 37.2522V23.1021C344.337 20.6032 342.195 18.5774 339.552 18.5774Z" fill="white"/>
</g>
<path d="M341.368 32.6041C341.368 32.8509 341.368 33.725 341.314 33.9718H332.929V30.1875H334.07L331.71 27.9457L329.34 30.1875H330.481V33.9718H322.607C322.607 33.8484 322.607 33.0874 322.607 32.9435C322.608 31.9542 322.998 31.0007 323.702 30.2687C324.406 29.5368 325.373 29.0789 326.414 28.9843V28.8301C326.405 27.7117 326.82 26.6274 327.585 25.7743C328.35 24.9213 329.413 24.3562 330.582 24.1818C331.75 24.0074 332.946 24.2354 333.951 24.8243C334.957 25.4131 335.705 26.3237 336.061 27.3904C336.356 27.3964 336.651 27.4239 336.942 27.4726C338.201 27.6978 339.335 28.3361 340.145 29.2749C340.955 30.2137 341.388 31.3928 341.368 32.6041Z" fill="white"/>
<path d="M273.689 29.9202H272.601V51.0528H273.689V29.9202Z" fill="black"/>
<path d="M280.192 9.76447H266.108C264.735 9.76447 263.418 10.2802 262.447 11.1982C261.477 12.1161 260.931 13.3612 260.931 14.6594V27.9765C260.931 29.2748 261.477 30.5198 262.447 31.4378C263.418 32.3558 264.735 32.8715 266.108 32.8715H280.192C280.871 32.8715 281.544 32.7448 282.172 32.4987C282.799 32.2526 283.369 31.8919 283.849 31.4372C284.329 30.9825 284.709 30.4428 284.968 29.849C285.227 29.2552 285.36 28.6189 285.358 27.9765V14.6594C285.36 14.0171 285.227 13.3808 284.968 12.787C284.709 12.1931 284.329 11.6535 283.849 11.1988C283.369 10.7441 282.799 10.3834 282.172 10.1373C281.544 9.89115 280.871 9.76446 280.192 9.76447Z" fill="#407BFF"/>
<g opacity="0.4">
<path d="M280.192 9.76447H266.108C264.735 9.76447 263.418 10.2802 262.447 11.1982C261.477 12.1161 260.931 13.3612 260.931 14.6594V27.9765C260.931 29.2748 261.477 30.5198 262.447 31.4378C263.418 32.3558 264.735 32.8715 266.108 32.8715H280.192C280.871 32.8715 281.544 32.7448 282.172 32.4987C282.799 32.2526 283.369 31.8919 283.849 31.4372C284.329 30.9825 284.709 30.4428 284.968 29.849C285.227 29.2552 285.36 28.6189 285.358 27.9765V14.6594C285.36 14.0171 285.227 13.3808 284.968 12.787C284.709 12.1931 284.329 11.6535 283.849 11.1988C283.369 10.7441 282.799 10.3834 282.172 10.1373C281.544 9.89115 280.871 9.76446 280.192 9.76447Z" fill="white"/>
</g>
<path d="M275.407 22.8348C275.407 22.6806 275.407 22.5263 275.407 22.3823L276.396 22.0121C276.388 21.5857 276.33 21.1615 276.222 20.7473L275.135 20.6341C275.043 20.3466 274.922 20.0678 274.776 19.8012L275.439 19.0094C275.203 18.6427 274.93 18.2983 274.624 17.981L273.645 18.3821C273.408 18.1769 273.154 17.9912 272.884 17.8268L273.036 16.7984C272.645 16.5884 272.228 16.4227 271.796 16.3048L271.165 17.1172L270.806 17.1069H270.339L269.936 16.1608C269.489 16.1744 269.045 16.2295 268.609 16.3254L268.49 17.3537C268.181 17.4426 267.883 17.5597 267.598 17.7034L266.761 17.0658C266.37 17.2896 266.006 17.5515 265.673 17.8473L266.097 18.7728C265.884 18.9974 265.692 19.2382 265.521 19.4927L264.433 19.3384C264.223 19.7126 264.052 20.1052 263.922 20.5107L264.781 21.1175C264.781 21.2614 264.716 21.4054 264.694 21.5597C264.683 21.7103 264.683 21.8615 264.694 22.0121L263.694 22.3823C263.702 22.8088 263.76 23.233 263.868 23.6472L264.955 23.7603C265.052 24.0462 265.172 24.3247 265.314 24.5933L264.651 25.3851C264.887 25.7518 265.16 26.0962 265.466 26.4135L266.456 26.0124C266.687 26.2198 266.938 26.4058 267.206 26.5677L267.054 27.5961C267.447 27.8009 267.863 27.963 268.294 28.0794L268.925 27.267L269.403 27.3493H269.882L270.273 28.2851C270.721 28.2772 271.166 28.2221 271.6 28.1205L271.72 27.0922C272.028 27.0033 272.327 26.8862 272.612 26.7426L273.449 27.3698C273.842 27.1533 274.207 26.8945 274.537 26.5986L274.113 25.6731C274.326 25.4491 274.519 25.2082 274.689 24.9532L275.777 25.1075C275.987 24.7333 276.158 24.3407 276.288 23.9352L275.429 23.3284C275.352 23.133 275.385 22.9788 275.407 22.8348ZM269.719 24.1614C269.288 24.1158 268.881 23.9494 268.551 23.6836C268.22 23.4178 267.982 23.0647 267.865 22.6697C267.749 22.2746 267.76 21.8557 267.897 21.4666C268.034 21.0776 268.291 20.7362 268.635 20.4864C268.979 20.2366 269.394 20.0897 269.827 20.0646C270.26 20.0395 270.691 20.1373 271.065 20.3456C271.439 20.5538 271.738 20.8629 271.924 21.2332C272.111 21.6034 272.176 22.0179 272.111 22.4235C272.028 22.9495 271.732 23.4244 271.286 23.7484C270.839 24.0725 270.278 24.2205 269.719 24.1614Z" fill="#407BFF"/>
<path d="M275.407 22.8348C275.407 22.6806 275.407 22.5263 275.407 22.3823L276.396 22.0121C276.388 21.5857 276.33 21.1615 276.222 20.7473L275.135 20.6341C275.043 20.3466 274.922 20.0678 274.776 19.8012L275.439 19.0094C275.203 18.6427 274.93 18.2983 274.624 17.981L273.645 18.3821C273.408 18.1769 273.154 17.9912 272.884 17.8268L273.036 16.7984C272.645 16.5884 272.228 16.4227 271.796 16.3048L271.165 17.1172L270.806 17.1069H270.339L269.936 16.1608C269.489 16.1744 269.045 16.2295 268.609 16.3254L268.49 17.3537C268.181 17.4426 267.883 17.5597 267.598 17.7034L266.761 17.0658C266.37 17.2896 266.006 17.5515 265.673 17.8473L266.097 18.7728C265.884 18.9974 265.692 19.2382 265.521 19.4927L264.433 19.3384C264.223 19.7126 264.052 20.1052 263.922 20.5107L264.781 21.1175C264.781 21.2614 264.716 21.4054 264.694 21.5597C264.683 21.7103 264.683 21.8615 264.694 22.0121L263.694 22.3823C263.702 22.8088 263.76 23.233 263.868 23.6472L264.955 23.7603C265.052 24.0462 265.172 24.3247 265.314 24.5933L264.651 25.3851C264.887 25.7518 265.16 26.0962 265.466 26.4135L266.456 26.0124C266.687 26.2198 266.938 26.4058 267.206 26.5677L267.054 27.5961C267.447 27.8009 267.863 27.963 268.294 28.0794L268.925 27.267L269.403 27.3493H269.882L270.273 28.2851C270.721 28.2772 271.166 28.2221 271.6 28.1205L271.72 27.0922C272.028 27.0033 272.327 26.8862 272.612 26.7426L273.449 27.3698C273.842 27.1533 274.207 26.8945 274.537 26.5986L274.113 25.6731C274.326 25.4491 274.519 25.2082 274.689 24.9532L275.777 25.1075C275.987 24.7333 276.158 24.3407 276.288 23.9352L275.429 23.3284C275.352 23.133 275.385 22.9788 275.407 22.8348ZM269.719 24.1614C269.288 24.1158 268.881 23.9494 268.551 23.6836C268.22 23.4178 267.982 23.0647 267.865 22.6697C267.749 22.2746 267.76 21.8557 267.897 21.4666C268.034 21.0776 268.291 20.7362 268.635 20.4864C268.979 20.2366 269.394 20.0897 269.827 20.0646C270.26 20.0395 270.691 20.1373 271.065 20.3456C271.439 20.5538 271.738 20.8629 271.924 21.2332C272.111 21.6034 272.176 22.0179 272.111 22.4235C272.028 22.9495 271.732 23.4244 271.286 23.7484C270.839 24.0725 270.278 24.2205 269.719 24.1614Z" fill="white"/>
<g opacity="0.5">
<path d="M279.866 19.6983C279.243 19.7003 278.637 19.5036 278.146 19.1401C277.656 18.7766 277.309 18.2674 277.162 17.6946C277.015 17.1219 277.076 16.5191 277.336 15.9833C277.596 15.4476 278.039 15.0102 278.594 14.7417V16.3973C278.597 16.718 278.734 17.0245 278.974 17.2509C279.211 17.4746 279.532 17.6004 279.866 17.6005C280.204 17.6005 280.527 17.4738 280.766 17.2481C281.004 17.0225 281.139 16.7164 281.139 16.3973V14.7417C281.693 15.0102 282.136 15.4476 282.396 15.9833C282.656 16.5191 282.717 17.1219 282.57 17.6946C282.423 18.2674 282.076 18.7766 281.586 19.1401C281.095 19.5036 280.489 19.7003 279.866 19.6983Z" fill="white"/>
<path d="M278.605 26.249V18.9682C278.603 18.8107 278.635 18.6545 278.697 18.5086C278.76 18.3627 278.853 18.23 278.97 18.1181C279.087 18.0062 279.227 17.9174 279.381 17.8569C279.535 17.7963 279.7 17.7651 279.866 17.7651C280.033 17.7651 280.198 17.7963 280.351 17.8569C280.505 17.9174 280.645 18.0062 280.762 18.1181C280.879 18.23 280.972 18.3627 281.035 18.5086C281.098 18.6545 281.129 18.8107 281.128 18.9682V26.249C281.128 26.4056 281.095 26.5607 281.032 26.7055C280.968 26.8502 280.875 26.9817 280.758 27.0925C280.641 27.2032 280.502 27.2911 280.349 27.351C280.196 27.411 280.032 27.4419 279.866 27.4419C279.7 27.4419 279.536 27.411 279.383 27.351C279.23 27.2911 279.091 27.2032 278.974 27.0925C278.857 26.9817 278.764 26.8502 278.701 26.7055C278.637 26.5607 278.605 26.4056 278.605 26.249Z" fill="white"/>
</g>
<path d="M225.987 124.662H224.9V113.628C224.903 111.229 225.912 108.928 227.706 107.232C229.5 105.535 231.933 104.581 234.47 104.578H255.939C258.188 104.576 260.344 103.73 261.934 102.226C263.525 100.722 264.419 98.6837 264.422 96.5572V88.063H265.51V96.5778C265.507 98.977 264.498 101.277 262.703 102.974C260.909 104.67 258.476 105.625 255.939 105.627H234.47C232.221 105.63 230.065 106.476 228.475 107.98C226.885 109.483 225.99 111.522 225.987 113.648V124.662Z" fill="black"/>
<path d="M231.947 123.366H217.809C216.436 123.366 215.119 123.882 214.148 124.8C213.177 125.718 212.632 126.963 212.632 128.261V141.537C212.632 142.18 212.766 142.816 213.026 143.409C213.286 144.002 213.668 144.541 214.149 144.995C214.63 145.449 215.2 145.808 215.828 146.053C216.456 146.298 217.129 146.423 217.809 146.422H231.947C233.314 146.417 234.622 145.899 235.586 144.984C236.55 144.069 237.091 142.829 237.091 141.537V128.261C237.091 126.968 236.551 125.728 235.587 124.811C234.623 123.894 233.315 123.374 231.947 123.366Z" fill="#407BFF"/>
<g opacity="0.4">
<path d="M231.947 123.366H217.809C216.436 123.366 215.119 123.882 214.148 124.8C213.177 125.718 212.632 126.963 212.632 128.261V141.537C212.632 142.18 212.766 142.816 213.026 143.409C213.286 144.002 213.668 144.541 214.149 144.995C214.63 145.449 215.2 145.808 215.828 146.053C216.456 146.298 217.129 146.423 217.809 146.422H231.947C233.314 146.417 234.622 145.899 235.586 144.984C236.55 144.069 237.091 142.829 237.091 141.537V128.261C237.091 126.968 236.551 125.728 235.587 124.811C234.623 123.894 233.315 123.374 231.947 123.366Z" fill="white"/>
</g>
<path d="M233.666 140.447C233.666 140.742 233.573 141.03 233.4 141.276C233.227 141.521 232.98 141.712 232.692 141.825C232.404 141.938 232.087 141.967 231.781 141.91C231.475 141.852 231.194 141.71 230.974 141.502C230.753 141.293 230.603 141.027 230.542 140.738C230.481 140.449 230.512 140.149 230.632 139.877C230.751 139.604 230.953 139.371 231.213 139.207C231.472 139.044 231.777 138.956 232.089 138.956C232.507 138.956 232.908 139.113 233.204 139.393C233.5 139.672 233.666 140.052 233.666 140.447Z" fill="white"/>
<path d="M226.683 140.447C226.683 140.742 226.591 141.03 226.418 141.276C226.244 141.521 225.998 141.712 225.71 141.825C225.422 141.938 225.105 141.967 224.799 141.91C224.493 141.852 224.212 141.71 223.991 141.502C223.771 141.293 223.62 141.027 223.56 140.738C223.499 140.449 223.53 140.149 223.649 139.877C223.769 139.604 223.971 139.371 224.23 139.207C224.489 139.044 224.794 138.956 225.106 138.956C225.525 138.956 225.926 139.113 226.221 139.393C226.517 139.672 226.683 140.052 226.683 140.447Z" fill="white"/>
<path d="M219.69 140.447C219.692 140.745 219.601 141.036 219.428 141.284C219.255 141.532 219.007 141.726 218.717 141.842C218.428 141.957 218.108 141.988 217.799 141.931C217.49 141.875 217.207 141.732 216.983 141.523C216.76 141.313 216.608 141.046 216.546 140.754C216.484 140.463 216.514 140.16 216.634 139.885C216.754 139.61 216.958 139.375 217.219 139.21C217.48 139.044 217.788 138.956 218.102 138.956C218.31 138.955 218.516 138.992 218.709 139.067C218.902 139.141 219.077 139.251 219.224 139.389C219.372 139.528 219.489 139.693 219.569 139.874C219.649 140.056 219.69 140.251 219.69 140.447Z" fill="white"/>
<path d="M232.448 143.429H217.689C216.876 143.429 216.096 143.124 215.521 142.58C214.945 142.036 214.622 141.299 214.622 140.529V140.365C214.622 139.596 214.945 138.858 215.521 138.314C216.096 137.771 216.876 137.465 217.689 137.465H232.448C233.261 137.465 234.041 137.771 234.616 138.314C235.192 138.858 235.515 139.596 235.515 140.365V140.509C235.518 140.891 235.44 141.271 235.287 141.625C235.135 141.979 234.909 142.301 234.624 142.573C234.339 142.844 234 143.06 233.626 143.207C233.253 143.354 232.852 143.429 232.448 143.429ZM217.689 138.391C217.135 138.391 216.604 138.599 216.213 138.969C215.821 139.339 215.601 139.841 215.601 140.365V140.509C215.601 141.033 215.821 141.535 216.213 141.905C216.604 142.275 217.135 142.483 217.689 142.483H232.448C233.001 142.483 233.533 142.275 233.924 141.905C234.316 141.535 234.536 141.033 234.536 140.509V140.344C234.536 139.821 234.316 139.319 233.924 138.948C233.533 138.578 233.001 138.37 232.448 138.37L217.689 138.391Z" fill="white"/>
<path d="M232.306 138.36C232.047 138.36 231.798 138.262 231.614 138.089C231.43 137.915 231.327 137.68 231.327 137.434V134.503L225.128 128.385L221.572 129.485C221.327 129.554 221.064 129.53 220.838 129.418C220.612 129.306 220.441 129.115 220.362 128.886C220.282 128.657 220.301 128.407 220.413 128.191C220.525 127.974 220.723 127.808 220.963 127.727L225.096 126.441C225.27 126.385 225.459 126.378 225.638 126.42C225.817 126.462 225.98 126.551 226.107 126.678L233.057 133.485C233.23 133.657 233.328 133.885 233.328 134.123V137.424C233.33 137.55 233.304 137.675 233.253 137.791C233.202 137.907 233.126 138.012 233.031 138.1C232.935 138.188 232.821 138.256 232.697 138.3C232.572 138.345 232.439 138.365 232.306 138.36Z" fill="white"/>
<path d="M220.952 131.377C220.822 131.377 220.698 131.328 220.606 131.242C220.514 131.155 220.462 131.037 220.462 130.914V128.611C220.462 128.488 220.514 128.37 220.606 128.284C220.698 128.197 220.822 128.148 220.952 128.148C221.082 128.148 221.206 128.197 221.298 128.284C221.39 128.37 221.441 128.488 221.441 128.611V130.914C221.441 131.037 221.39 131.155 221.298 131.242C221.206 131.328 221.082 131.377 220.952 131.377Z" fill="white"/>
<path d="M220.191 133.115C220.126 133.116 220.062 133.105 220.002 133.082C219.942 133.059 219.888 133.025 219.843 132.981C219.553 132.709 219.389 132.339 219.386 131.953C219.419 131.58 219.598 131.233 219.889 130.98C220.181 130.726 220.562 130.586 220.957 130.586C221.353 130.586 221.734 130.726 222.025 130.98C222.316 131.233 222.496 131.58 222.529 131.953C222.531 132.333 222.384 132.699 222.116 132.981C222.072 133.027 222.019 133.063 221.961 133.089C221.902 133.115 221.839 133.13 221.774 133.133C221.644 133.139 221.516 133.095 221.42 133.012C221.323 132.929 221.265 132.813 221.259 132.69C221.253 132.566 221.299 132.445 221.387 132.354C221.44 132.304 221.481 132.245 221.509 132.18C221.537 132.114 221.551 132.044 221.55 131.974C221.547 131.825 221.483 131.684 221.371 131.58C221.259 131.476 221.109 131.418 220.952 131.418C220.796 131.418 220.647 131.477 220.537 131.581C220.426 131.685 220.365 131.826 220.365 131.974C220.366 132.123 220.428 132.267 220.539 132.375C220.628 132.461 220.678 132.577 220.678 132.699C220.678 132.82 220.628 132.936 220.539 133.023C220.44 133.095 220.315 133.128 220.191 133.115Z" fill="white"/>
<path d="M225.726 127.367C225.728 127.441 225.707 127.513 225.666 127.576C225.624 127.638 225.564 127.687 225.492 127.717C225.421 127.746 225.342 127.755 225.265 127.742C225.189 127.729 225.118 127.695 225.062 127.643C225.006 127.592 224.968 127.526 224.952 127.454C224.936 127.381 224.943 127.306 224.972 127.238C225.001 127.17 225.052 127.111 225.116 127.07C225.181 127.029 225.257 127.007 225.335 127.007C225.437 127.007 225.535 127.044 225.608 127.112C225.681 127.179 225.723 127.271 225.726 127.367Z" fill="#407BFF"/>
<path d="M232.622 134.175C232.622 134.248 232.599 134.32 232.556 134.381C232.513 134.442 232.452 134.489 232.38 134.517C232.308 134.545 232.23 134.553 232.154 134.538C232.078 134.524 232.008 134.489 231.953 134.437C231.899 134.385 231.861 134.319 231.846 134.247C231.831 134.175 231.839 134.101 231.868 134.033C231.898 133.965 231.948 133.907 232.013 133.867C232.077 133.826 232.153 133.804 232.23 133.804C232.282 133.804 232.332 133.814 232.38 133.832C232.427 133.851 232.471 133.878 232.507 133.913C232.543 133.947 232.572 133.988 232.592 134.033C232.612 134.078 232.622 134.126 232.622 134.175Z" fill="#407BFF"/>
<path opacity="0.4" d="M222.442 134.143H219.473V136.951H222.442V134.143Z" fill="white"/>
<path d="M234.916 56.2665H213.546C211.009 56.2665 208.576 55.3144 206.782 53.6196C204.987 51.9247 203.978 49.6255 203.975 47.2273V36.1931H205.062V47.2273C205.065 49.3528 205.96 51.3904 207.551 52.8924C209.141 54.3944 211.298 55.2381 213.546 55.2381H234.916V56.2665Z" fill="black"/>
<path d="M213.6 17.5182H199.526C196.667 17.5182 194.35 19.7098 194.35 22.4132V35.72C194.35 38.4235 196.667 40.615 199.526 40.615H213.6C216.459 40.615 218.777 38.4235 218.777 35.72V22.4132C218.777 19.7098 216.459 17.5182 213.6 17.5182Z" fill="#407BFF"/>
<path opacity="0.4" d="M213.6 17.5182H199.526C196.667 17.5182 194.35 19.7098 194.35 22.4132V35.72C194.35 38.4235 196.667 40.615 199.526 40.615H213.6C216.459 40.615 218.777 38.4235 218.777 35.72V22.4132C218.777 19.7098 216.459 17.5182 213.6 17.5182Z" fill="white"/>
<path d="M206.563 22.2487C208.738 22.2487 209.826 23.8735 209.826 25.889C209.826 27.9046 208.684 29.5294 206.563 29.5294C204.442 29.5294 203.3 27.8943 203.3 25.889C203.3 23.8837 204.464 22.2487 206.563 22.2487Z" fill="white"/>
<path d="M215.068 35.8949H198.058C197.924 35.8925 197.795 35.8409 197.699 35.7509L198.787 32.9332C199.13 32.049 199.752 31.2858 200.569 30.7469C201.386 30.208 202.359 29.9194 203.355 29.9202H209.772C210.768 29.9179 211.741 30.2059 212.558 30.745C213.376 31.2841 213.998 32.0482 214.339 32.9332L215.427 35.7509C215.331 35.8409 215.203 35.8925 215.068 35.8949Z" fill="white"/>
<path d="M185.519 107.602H184.431V96.5675C184.434 94.1692 185.444 91.8701 187.238 90.1752C189.033 88.4803 191.466 87.5283 194.002 87.5283H245.249V88.5567H194.002C191.754 88.5567 189.598 89.4003 188.007 90.9024C186.417 92.4044 185.522 94.442 185.519 96.5675V107.602Z" fill="black"/>
<path d="M192.436 99.4469H178.363C175.504 99.4469 173.186 101.638 173.186 104.342V117.649C173.186 120.352 175.504 122.544 178.363 122.544H192.436C195.295 122.544 197.613 120.352 197.613 117.649V104.342C197.613 101.638 195.295 99.4469 192.436 99.4469Z" fill="#407BFF"/>
<path opacity="0.4" d="M192.436 99.4469H178.363C175.504 99.4469 173.186 101.638 173.186 104.342V117.649C173.186 120.352 175.504 122.544 178.363 122.544H192.436C195.295 122.544 197.613 120.352 197.613 117.649V104.342C197.613 101.638 195.295 99.4469 192.436 99.4469Z" fill="white"/>
<path opacity="0.6" d="M180.375 113.103H177.34V118.626H180.375V113.103Z" fill="white"/>
<path opacity="0.6" d="M188.977 111.242H185.943V118.626H188.977V111.242Z" fill="white"/>
<path d="M184.518 109.381H181.484V118.626H184.518V109.381Z" fill="white"/>
<path d="M193.295 107.519H190.261V118.626H193.295V107.519Z" fill="white"/>
<path d="M249.349 70.0052H183.746V71.0335H249.349V70.0052Z" fill="black"/>
<path d="M185.845 52.0707H171.761C170.388 52.0707 169.071 52.5865 168.1 53.5044C167.129 54.4224 166.584 55.6675 166.584 56.9657V70.2828C166.584 71.581 167.129 72.8261 168.1 73.7441C169.071 74.6621 170.388 75.1778 171.761 75.1778H185.845C186.524 75.1778 187.197 75.0511 187.824 74.805C188.452 74.5588 189.022 74.1981 189.502 73.7435C189.982 73.2888 190.362 72.7491 190.621 72.1553C190.88 71.5614 191.012 70.9252 191.011 70.2828V56.9965C191.017 56.3516 190.887 55.712 190.63 55.1146C190.373 54.5172 189.994 53.9739 189.513 53.5159C189.033 53.058 188.462 52.6945 187.832 52.4465C187.202 52.1984 186.527 52.0707 185.845 52.0707Z" fill="#407BFF"/>
<g opacity="0.4">
<path d="M185.845 52.0707H171.761C170.388 52.0707 169.071 52.5865 168.1 53.5044C167.129 54.4224 166.584 55.6675 166.584 56.9657V70.2828C166.584 71.581 167.129 72.8261 168.1 73.7441C169.071 74.6621 170.388 75.1778 171.761 75.1778H185.845C186.524 75.1778 187.197 75.0511 187.824 74.805C188.452 74.5588 189.022 74.1981 189.502 73.7435C189.982 73.2888 190.362 72.7491 190.621 72.1553C190.88 71.5614 191.012 70.9252 191.011 70.2828V56.9965C191.017 56.3516 190.887 55.712 190.63 55.1146C190.373 54.5172 189.994 53.9739 189.513 53.5159C189.033 53.058 188.462 52.6945 187.832 52.4465C187.202 52.1984 186.527 52.0707 185.845 52.0707Z" fill="white"/>
</g>
<path d="M179.341 55.1558V57.2948C180.755 57.4041 182.098 57.9291 183.18 58.7962L184.779 57.2845C183.27 56.0191 181.355 55.2695 179.341 55.1558Z" fill="#407BFF"/>
<path opacity="0.6" d="M179.341 55.1558V57.2948C180.755 57.4041 182.098 57.9291 183.18 58.7962L184.779 57.2845C183.27 56.0191 181.355 55.2695 179.341 55.1558Z" fill="white"/>
<path d="M178.243 70.036C176.641 69.916 175.137 69.2599 174.001 68.1855C172.864 67.1112 172.171 65.689 172.044 64.1744H169.781C169.916 66.2548 170.85 68.217 172.409 69.6908C173.967 71.1646 176.043 72.0483 178.243 72.175V70.036Z" fill="#407BFF"/>
<path opacity="0.8" d="M178.243 70.036C176.641 69.916 175.137 69.2599 174.001 68.1855C172.864 67.1112 172.171 65.689 172.044 64.1744H169.781C169.916 66.2548 170.85 68.217 172.409 69.6908C173.967 71.1646 176.043 72.0483 178.243 72.175V70.036Z" fill="white"/>
<path d="M172.044 63.1358C172.173 61.622 172.867 60.2009 174.003 59.127C175.139 58.053 176.642 57.3963 178.243 57.2742V55.1558C176.043 55.2825 173.967 56.1661 172.409 57.64C170.85 59.1138 169.916 61.0759 169.781 63.1564L172.044 63.1358Z" fill="#407BFF"/>
<path opacity="0.7" d="M172.044 63.1358C172.173 61.622 172.867 60.2009 174.003 59.127C175.139 58.053 176.642 57.3963 178.243 57.2742V55.1558C176.043 55.2825 173.967 56.1661 172.409 57.64C170.85 59.1138 169.916 61.0759 169.781 63.1564L172.044 63.1358Z" fill="white"/>
<path d="M185.551 57.994L183.953 59.5057C184.759 60.4039 185.287 61.4947 185.48 62.6584C185.673 63.8221 185.523 65.0136 185.047 66.1019C184.57 67.1902 183.785 68.1332 182.779 68.8273C181.772 69.5213 180.583 69.9396 179.341 70.036V72.175C181.031 72.0783 182.658 71.5343 184.036 70.6052C185.414 69.6762 186.488 68.3994 187.136 66.9206C187.784 65.4419 187.978 63.8208 187.698 62.2424C187.418 60.6639 186.674 59.1918 185.551 57.994Z" fill="white"/>
<path d="M236.515 51.1761L239.571 51.0527L243.867 95.899H240.605C238.984 95.7551 238.603 94.0274 238.158 90.7573L235.156 59.444C234.46 52.0707 235.797 51.1761 236.515 51.1761Z" fill="#407BFF"/>
<path opacity="0.3" d="M236.515 51.1761L239.571 51.0527L243.867 95.899H240.605C238.984 95.7551 238.603 94.0274 238.158 90.7573L235.156 59.444C234.46 52.0707 235.797 51.1761 236.515 51.1761Z" fill="black"/>
<path d="M241.442 95.899H305.729C305.906 95.8876 306.078 95.8406 306.235 95.7612C306.391 95.6818 306.528 95.5718 306.636 95.4386C306.744 95.3053 306.821 95.1518 306.862 94.9883C306.902 94.8247 306.905 94.6549 306.871 94.4902L302.857 52.4512C302.838 52.0949 302.683 51.7573 302.421 51.5003C302.16 51.2434 301.809 51.0844 301.433 51.0527H237.092C236.915 51.0629 236.742 51.1086 236.585 51.1868C236.428 51.265 236.291 51.3738 236.182 51.5061C236.073 51.6383 235.995 51.791 235.953 51.954C235.911 52.1169 235.906 52.2864 235.939 52.4512L239.963 94.4902C239.979 94.8573 240.139 95.2055 240.413 95.4662C240.687 95.7269 241.054 95.8813 241.442 95.899Z" fill="#407BFF"/>
<path d="M243.856 90.5825H302.237L298.996 55.5877H240.615L243.856 90.5825Z" fill="#407BFF"/>
<path d="M244.704 93.3282H302.226C302.605 93.3347 302.981 93.2649 303.329 93.1232C303.677 92.9815 303.989 92.7713 304.244 92.5066C304.5 92.2419 304.692 91.9288 304.809 91.5881C304.926 91.2475 304.965 90.8871 304.924 90.5311L301.715 55.7523C301.637 54.9868 301.258 54.2767 300.655 53.7611C300.051 53.2456 299.266 52.9618 298.452 52.9654H240.931C240.552 52.9573 240.177 53.0259 239.829 53.1663C239.481 53.3068 239.168 53.5161 238.913 53.78C238.658 54.0439 238.465 54.3564 238.348 54.6966C238.23 55.0368 238.191 55.3967 238.233 55.7523L241.442 90.5311C241.518 91.2984 241.895 92.011 242.499 92.5287C243.103 93.0463 243.889 93.3315 244.704 93.3282Z" fill="#263238"/>
<path d="M243.856 90.5825H302.237L298.996 55.5877H240.615L243.856 90.5825Z" fill="#407BFF"/>
<path opacity="0.4" d="M243.856 90.5825H302.237L298.996 55.5877H240.615L243.856 90.5825Z" fill="white"/>
<path d="M248.62 71.6916L249.033 70.8278C249.537 71.1622 250.137 71.3418 250.752 71.342C251.47 71.342 251.763 71.1158 251.763 70.8176C251.763 69.892 248.729 70.5296 248.729 68.6991C248.729 67.8559 249.436 67.1566 250.904 67.1566C251.537 67.146 252.161 67.2989 252.709 67.5988L252.34 68.4626C251.9 68.2211 251.402 68.0902 250.893 68.0821C250.175 68.0821 249.903 68.3289 249.903 68.6374C249.903 69.5527 252.938 68.9254 252.938 70.6941C252.938 71.5168 252.209 72.2161 250.763 72.2161C250.009 72.2515 249.261 72.0686 248.62 71.6916Z" fill="white"/>
<path d="M253.46 69.707C253.427 69.1661 253.567 68.6284 253.861 68.1636C254.155 67.6988 254.591 67.3282 255.11 67.1C255.63 66.8717 256.21 66.7962 256.775 66.8833C257.341 66.9705 257.866 67.2161 258.282 67.5885C258.698 67.9609 258.986 68.4429 259.109 68.972C259.232 69.5011 259.184 70.053 258.972 70.556C258.759 71.0591 258.392 71.4903 257.917 71.7936C257.442 72.0969 256.882 72.2584 256.309 72.2573C255.942 72.2769 255.575 72.2254 255.23 72.1061C254.885 71.9867 254.57 71.802 254.303 71.5632C254.036 71.3244 253.824 71.0365 253.679 70.7174C253.534 70.3982 253.459 70.0543 253.46 69.707ZM257.951 69.707C257.945 69.4012 257.843 69.1041 257.659 68.8528C257.475 68.6016 257.216 68.4073 256.915 68.2945C256.615 68.1817 256.286 68.1553 255.969 68.2187C255.653 68.282 255.363 68.4323 255.137 68.6507C254.91 68.869 254.757 69.1457 254.697 69.446C254.636 69.7464 254.67 70.057 254.795 70.3389C254.921 70.6209 255.131 70.8616 255.4 71.0309C255.67 71.2002 255.986 71.2906 256.309 71.2906C256.529 71.2965 256.748 71.2594 256.953 71.1815C257.157 71.1035 257.342 70.9866 257.496 70.8379C257.65 70.6892 257.77 70.512 257.849 70.3174C257.927 70.1228 257.962 69.915 257.951 69.707Z" fill="white"/>
<path d="M261.29 68.1644V69.4602H263.705V70.3857H261.29V72.175H260.083V67.2492H264.02V68.1644H261.29Z" fill="white"/>
<path d="M265.967 68.1747H264.281V67.2492H268.827V68.1747H267.163V72.175H265.956L265.967 68.1747Z" fill="white"/>
<path d="M277.332 67.2492L275.625 72.175H274.33L273.178 68.8431L272.003 72.175H270.709L268.99 67.2492H270.252L271.427 70.7147L272.656 67.2492H273.743L274.929 70.7456L276.147 67.2492H277.332Z" fill="white"/>
<path d="M281.215 71.1158H278.8L278.332 72.1441H277.104L279.42 67.2184H280.595L282.922 72.1441H281.682L281.215 71.1158ZM280.834 70.252L280.007 68.3701L279.181 70.252H280.834Z" fill="white"/>
<path d="M286.816 72.175L285.815 70.8073H284.727V72.175H283.52V67.2492H285.772C287.175 67.2492 288.045 67.9279 288.045 69.0385C288.057 69.3722 287.958 69.7011 287.763 69.9795C287.569 70.2578 287.287 70.4717 286.957 70.5913L288.132 72.175H286.816ZM285.728 68.1747H284.749V69.8921H285.728C286.468 69.8921 286.816 69.5733 286.816 69.0385C286.816 68.5038 286.424 68.1747 285.685 68.1747H285.728Z" fill="white"/>
<path d="M293.015 71.2598V72.175H288.98V67.2492H292.917V68.1644H290.176V69.1928H292.558V70.0772H290.133V71.2186L293.015 71.2598Z" fill="white"/>
<path d="M245.499 75.7228H246.706V80.6589H245.499V75.7228Z" fill="white"/>
<path d="M252.731 75.7228V80.6589H251.741L249.142 77.6664V80.6589H247.967V75.7228H248.968L251.556 78.7256V75.7228H252.731Z" fill="white"/>
<path d="M255.048 76.638H253.405V75.7228H257.951V76.6586H256.276V80.6589H255.069L255.048 76.638Z" fill="white"/>
<path d="M262.617 79.7231V80.6383H258.582V75.7228H262.519V76.6483H259.779V77.6766H262.204V78.561H259.779V79.7025L262.617 79.7231Z" fill="white"/>
<path d="M267.087 78.0983H268.175V80.0933C267.558 80.5065 266.82 80.726 266.065 80.7206C265.344 80.7206 264.652 80.4497 264.142 79.9676C263.632 79.4854 263.346 78.8315 263.346 78.1497C263.346 77.4678 263.632 76.8139 264.142 76.3318C264.652 75.8497 265.344 75.5788 266.065 75.5788C266.471 75.5636 266.876 75.632 267.252 75.7794C267.627 75.9267 267.964 76.1495 268.24 76.4323L267.457 77.1111C267.29 76.9323 267.083 76.7901 266.852 76.6942C266.622 76.5983 266.371 76.5511 266.119 76.5557C265.888 76.5381 265.657 76.5659 265.438 76.6372C265.219 76.7085 265.019 76.8219 264.849 76.9702C264.679 77.1185 264.543 77.2985 264.45 77.4989C264.357 77.6992 264.309 77.9155 264.309 78.1343C264.309 78.353 264.357 78.5693 264.45 78.7697C264.543 78.97 264.679 79.15 264.849 79.2983C265.019 79.4466 265.219 79.56 265.438 79.6313C265.657 79.7027 265.888 79.7304 266.119 79.7128C266.445 79.7173 266.767 79.643 267.054 79.4968L267.087 78.0983Z" fill="white"/>
<path d="M272.645 80.6383L271.633 79.2603H270.546V80.6383H269.338V75.7228H271.601C272.993 75.7228 273.863 76.4118 273.863 77.5121C273.877 77.8475 273.78 78.1787 273.585 78.4591C273.39 78.7395 273.107 78.955 272.775 79.0752L273.95 80.6589L272.645 80.6383ZM271.503 76.638H270.524V78.3554H271.503C272.242 78.3554 272.59 78.0366 272.59 77.4915C272.59 76.9465 272.242 76.638 271.503 76.638Z" fill="white"/>
<path d="M278.235 79.5791H275.81L275.353 80.6074H274.07L276.397 75.6714H277.582L279.921 80.6074H278.648L278.235 79.5791ZM277.854 78.7153L277.028 76.8231L276.201 78.7153H277.854Z" fill="white"/>
<path d="M281.334 76.638H279.659V75.7228H284.205V76.6586H282.531V80.6589H281.334V76.638Z" fill="white"/>
<path d="M284.858 75.7228H286.033V80.6589H284.825L284.858 75.7228Z" fill="white"/>
<path d="M286.979 78.1702C286.948 77.6322 287.089 77.0978 287.383 76.6362C287.677 76.1746 288.111 75.807 288.628 75.5808C289.145 75.3547 289.722 75.2803 290.285 75.3675C290.847 75.4546 291.369 75.6992 291.783 76.0696C292.197 76.44 292.484 76.9193 292.607 77.4454C292.729 77.9716 292.683 78.5205 292.472 79.0213C292.262 79.522 291.897 79.9516 291.426 80.2545C290.955 80.5575 290.398 80.7198 289.828 80.7206C289.461 80.7402 289.094 80.6887 288.749 80.5694C288.404 80.45 288.089 80.2653 287.822 80.0265C287.555 79.7877 287.343 79.4998 287.198 79.1806C287.053 78.8615 286.978 78.5176 286.979 78.1702ZM291.459 78.1702C291.451 77.867 291.348 77.573 291.164 77.3248C290.979 77.0766 290.722 76.8853 290.423 76.7748C290.124 76.6643 289.798 76.6396 289.484 76.7037C289.171 76.7678 288.884 76.9178 288.66 77.1351C288.436 77.3524 288.285 77.6272 288.226 77.9253C288.166 78.2233 288.201 78.5313 288.326 78.8108C288.45 79.0903 288.659 79.3288 288.926 79.4965C289.194 79.6643 289.507 79.7538 289.828 79.7539C290.049 79.7614 290.269 79.7253 290.474 79.6479C290.679 79.5706 290.864 79.4536 291.019 79.3046C291.173 79.1556 291.293 78.9778 291.371 78.7824C291.449 78.5871 291.483 78.3786 291.47 78.1702H291.459Z" fill="white"/>
<path d="M298.377 75.7228V80.6589H297.387L294.788 77.6664V80.6589H293.646V75.7228H294.646L297.246 78.7256V75.7228H298.377Z" fill="white"/>
<path opacity="0.1" d="M260.649 52.9757L249.251 93.3076H253.09L264.368 52.9757H260.649Z" fill="white"/>
<path opacity="0.1" d="M266.576 52.9757L255.167 93.3076H262.78L274.058 52.9757H266.576Z" fill="white"/>
<path d="M240.615 55.5877L240.909 58.7242H299.29L298.996 55.5877H240.615Z" fill="#407BFF"/>
<path d="M243.302 56.9862C243.311 57.0664 243.302 57.1475 243.276 57.2242C243.249 57.3008 243.205 57.3712 243.148 57.4306C243.09 57.49 243.02 57.5371 242.941 57.5686C242.863 57.6002 242.778 57.6155 242.693 57.6135C242.511 57.6119 242.336 57.5471 242.202 57.4314C242.067 57.3157 241.983 57.1572 241.964 56.9862C241.955 56.9056 241.964 56.824 241.99 56.7469C242.017 56.6697 242.06 56.5987 242.118 56.5385C242.175 56.4783 242.245 56.4303 242.324 56.3976C242.402 56.3649 242.487 56.3482 242.573 56.3487C242.756 56.3528 242.931 56.4198 243.065 56.5372C243.199 56.6546 243.283 56.8143 243.302 56.9862Z" fill="white"/>
<path d="M245.064 56.9862C245.073 57.0664 245.064 57.1475 245.037 57.2242C245.011 57.3008 244.967 57.3712 244.91 57.4306C244.852 57.49 244.782 57.5371 244.703 57.5686C244.625 57.6002 244.54 57.6155 244.455 57.6135C244.273 57.6119 244.098 57.5471 243.964 57.4314C243.829 57.3157 243.745 57.1572 243.726 56.9862C243.717 56.9056 243.726 56.824 243.752 56.7469C243.779 56.6697 243.822 56.5987 243.879 56.5385C243.937 56.4783 244.007 56.4303 244.086 56.3976C244.164 56.3649 244.249 56.3482 244.335 56.3487C244.518 56.3528 244.693 56.4198 244.827 56.5372C244.961 56.6546 245.045 56.8143 245.064 56.9862Z" fill="white"/>
<path d="M246.88 56.9862C246.889 57.0664 246.88 57.1475 246.854 57.2242C246.827 57.3008 246.784 57.3712 246.726 57.4306C246.668 57.49 246.598 57.5371 246.519 57.5686C246.441 57.6002 246.356 57.6155 246.271 57.6135C246.089 57.6119 245.914 57.5471 245.78 57.4314C245.645 57.3157 245.561 57.1572 245.542 56.9862C245.533 56.9056 245.542 56.824 245.568 56.7469C245.595 56.6697 245.638 56.5987 245.696 56.5385C245.753 56.4783 245.823 56.4303 245.902 56.3976C245.98 56.3649 246.065 56.3482 246.151 56.3487C246.334 56.3528 246.509 56.4198 246.643 56.5372C246.777 56.6546 246.861 56.8143 246.88 56.9862Z" fill="white"/>
<path d="M307.697 96.0224H242.17C241.402 96.0224 240.778 96.6118 240.778 97.3387V98.1305C240.778 98.8575 241.402 99.4468 242.17 99.4468H307.697C308.466 99.4468 309.089 98.8575 309.089 98.1305V97.3387C309.089 96.6118 308.466 96.0224 307.697 96.0224Z" fill="#407BFF"/>
<path d="M266.771 96.0224H334.517V96.804C334.517 97.5049 334.222 98.1771 333.698 98.6728C333.174 99.1684 332.463 99.4468 331.722 99.4468H269.567C268.825 99.4468 268.114 99.1684 267.59 98.6728C267.066 98.1771 266.771 97.5049 266.771 96.804V96.0224Z" fill="#407BFF"/>
<path opacity="0.3" d="M266.771 96.0224H334.517V96.804C334.517 97.5049 334.222 98.1771 333.698 98.6728C333.174 99.1684 332.463 99.4468 331.722 99.4468H269.567C268.825 99.4468 268.114 99.1684 267.59 98.6728C267.066 98.1771 266.771 97.5049 266.771 96.804V96.0224Z" fill="white"/>
<path opacity="0.3" d="M295.125 96.115C295.128 96.5687 295.32 97.0028 295.661 97.3227C296.001 97.6425 296.461 97.8221 296.941 97.8221H305.228C305.707 97.8221 306.166 97.6422 306.505 97.3221C306.844 97.0019 307.034 96.5677 307.034 96.115H295.125Z" fill="black"/>
<path d="M210.206 165.621L203.202 163.698C202.522 163.481 201.818 163.34 201.103 163.277L196.405 163.091L192.566 161.57C192.357 161.456 192.122 161.393 191.881 161.386C191.64 161.379 191.401 161.429 191.186 161.531C190.97 161.632 190.785 161.783 190.646 161.97C190.507 162.156 190.42 162.372 190.391 162.598L190.141 165.045C190.118 165.289 190.163 165.534 190.272 165.756C190.381 165.978 190.549 166.169 190.761 166.31L196.416 170.053L204.323 168.799L211.414 172.038L212.251 166.218L210.206 165.621Z" fill="#B55B52"/>
<path d="M333.581 167.431L340.672 165.796C341.36 165.611 342.068 165.497 342.782 165.457H347.48L351.385 164.099C351.6 163.98 351.844 163.916 352.093 163.912C352.342 163.909 352.588 163.966 352.807 164.079C353.026 164.192 353.21 164.356 353.342 164.556C353.474 164.756 353.549 164.985 353.56 165.22L353.701 167.678C353.716 167.921 353.662 168.163 353.545 168.379C353.429 168.596 353.254 168.78 353.038 168.912L347.208 172.429L339.324 170.855L332.091 173.807L331.526 167.966L333.581 167.431Z" fill="#B55B52"/>
<path d="M254.319 353.83L252.644 368.381L244.237 367.538L245.096 351.67L254.319 353.83Z" fill="#B55B52"/>
<path d="M240.278 367.682C239.383 367.718 238.506 367.436 237.82 366.89C237.74 366.762 237.705 366.615 237.718 366.467C237.732 366.32 237.794 366.18 237.896 366.067C237.974 365.961 238.074 365.871 238.19 365.802C238.306 365.733 238.435 365.687 238.57 365.666C240.017 365.399 242.866 367.209 242.986 367.291C243.022 367.312 243.05 367.343 243.066 367.38C243.081 367.417 243.084 367.458 243.073 367.497C243.062 367.534 243.04 367.568 243.009 367.594C242.978 367.619 242.94 367.636 242.899 367.641C242.029 367.731 241.151 367.745 240.278 367.682ZM239.038 366.026C238.912 366.005 238.783 366.005 238.657 366.026C238.572 366.033 238.49 366.057 238.417 366.098C238.343 366.139 238.281 366.196 238.233 366.263C238.07 366.489 238.114 366.602 238.168 366.674C238.516 367.229 240.659 367.394 242.268 367.322C241.288 366.7 240.192 366.26 239.038 366.026Z" fill="#407BFF"/>
<path d="M242.866 367.641C242.838 367.651 242.807 367.651 242.779 367.641C241.801 367.147 239.886 365.255 240.148 364.36C240.148 364.144 240.376 363.887 240.931 363.877C241.132 363.872 241.332 363.906 241.519 363.976C241.706 364.047 241.876 364.153 242.018 364.288C243.04 365.203 243.106 367.373 243.106 367.497C243.107 367.53 243.098 367.563 243.081 367.592C243.063 367.621 243.038 367.645 243.008 367.661L242.866 367.641ZM241.039 364.226H240.931C240.561 364.226 240.528 364.37 240.506 364.422C240.409 364.957 241.648 366.417 242.682 367.085C242.657 366.166 242.335 365.275 241.757 364.535C241.572 364.365 241.329 364.263 241.072 364.247L241.039 364.226Z" fill="#407BFF"/>
<path d="M243.856 366.571L253.144 367.24C253.315 367.247 253.478 367.311 253.605 367.42C253.732 367.529 253.815 367.676 253.84 367.836L254.928 375.106C254.951 375.262 254.941 375.421 254.898 375.574C254.856 375.726 254.782 375.869 254.681 375.994C254.58 376.12 254.454 376.225 254.309 376.303C254.165 376.382 254.006 376.433 253.84 376.454H253.568C250.23 376.155 247.26 375.775 243.095 375.487C238.168 375.137 239.376 375.785 233.579 375.487C230.088 375.291 229.75 371.497 231.24 371.373C238.07 371.044 238.93 369.163 241.725 367.065C242.345 366.654 243.106 366.478 243.856 366.571Z" fill="#263238"/>
<path opacity="0.2" d="M244.617 360.473L250.893 360.257L253.459 361.265L253.111 364.34L244.422 363.856L244.617 360.473Z" fill="black"/>
<path d="M275.635 207.239L259.506 298.443L255.58 362.396L242.953 362.19C240.306 339.293 239.626 316.23 240.92 293.229C242.888 259.366 251.219 219.764 252.143 208.473L256.809 200.678L266.097 201.778L275.635 207.239Z" fill="#407BFF"/>
<path d="M299.964 370.057L307.142 369.286C307.142 369.286 306.935 366.489 306.577 361.974C306.5 360.946 306.413 359.918 306.326 358.715L298.083 360.103H297.996C297.996 360.278 298.072 360.452 298.104 360.617C298.278 361.532 298.463 362.375 298.616 363.188C299.431 367.435 299.964 370.057 299.964 370.057Z" fill="#B55B52"/>
<path d="M308.502 366.869C308.459 366.867 308.418 366.853 308.383 366.829C308.349 366.805 308.322 366.773 308.306 366.736C308.294 366.699 308.294 366.66 308.306 366.624C308.317 366.587 308.34 366.555 308.371 366.53C308.491 366.437 311.155 364.381 312.634 364.535C312.907 364.56 313.159 364.681 313.341 364.874C313.454 364.979 313.529 365.115 313.556 365.263C313.584 365.41 313.562 365.562 313.493 365.697C313.222 366.18 312.167 366.53 311.123 366.725C310.254 366.84 309.378 366.888 308.502 366.869ZM309.1 366.509C310.709 366.448 312.83 366.108 313.135 365.481C313.135 365.409 313.211 365.286 313.026 365.08C312.974 365.015 312.906 364.963 312.829 364.927C312.751 364.892 312.666 364.874 312.58 364.874C312.45 364.859 312.318 364.859 312.188 364.874C311.06 365.233 310.013 365.788 309.1 366.509Z" fill="#407BFF"/>
<path d="M308.393 366.869C308.359 366.859 308.328 366.838 308.307 366.81C308.286 366.783 308.274 366.749 308.273 366.715C308.273 366.612 308.11 364.422 309.046 363.424C309.179 363.273 309.345 363.151 309.533 363.066C309.72 362.981 309.925 362.935 310.133 362.931C310.699 362.931 310.916 363.126 310.971 363.342C311.308 364.216 309.578 366.263 308.643 366.838C308.619 366.847 308.592 366.847 308.567 366.838C308.544 366.859 308.516 366.873 308.485 366.878C308.454 366.884 308.422 366.881 308.393 366.869ZM310.024 363.301C309.774 363.343 309.547 363.467 309.383 363.651C308.873 364.437 308.631 365.352 308.687 366.273C309.633 365.522 310.72 363.959 310.579 363.435C310.579 363.435 310.503 363.25 310.144 363.28H310.024V363.301Z" fill="#407BFF"/>
<path d="M306.903 366.057L299.573 367.085C299.403 367.113 299.249 367.194 299.134 367.315C299.019 367.437 298.952 367.591 298.942 367.754L298.518 375.096C298.506 375.251 298.527 375.407 298.579 375.554C298.631 375.701 298.714 375.837 298.822 375.953C298.931 376.07 299.062 376.165 299.21 376.234C299.357 376.302 299.518 376.342 299.682 376.351C299.772 376.362 299.863 376.362 299.953 376.351C303.216 375.775 304.304 375.508 308.437 374.87C313.32 374.109 312.178 374.87 317.931 374.037C321.39 373.533 321.379 369.728 319.878 369.769C313.037 370.047 307.621 365.913 306.903 366.057Z" fill="#263238"/>
<path opacity="0.2" d="M298.583 363.198L306.577 361.974C306.5 360.946 306.413 359.918 306.326 358.715L298.083 360.103V360.627C298.246 361.542 298.431 362.386 298.583 363.198Z" fill="black"/>
<path opacity="0.2" d="M271.774 228.423L267.424 252.805C266.13 235.323 267.859 214.519 267.859 214.519L271.774 228.423Z" fill="black"/>
<path d="M289.469 204.966C289.469 204.966 299.714 275.346 303.532 293.455C306.925 309.539 307.545 360.411 307.545 360.411L296.31 361.604C296.31 361.604 289.893 333.613 287.773 313.93C287.033 307.061 287.24 301.302 286.576 297.764C285.695 293.096 257.049 217.717 262.378 205.819L289.469 204.966Z" fill="#407BFF"/>
<path d="M251.708 195.526C252.084 192.481 252.175 189.412 251.98 186.353C249.403 157.25 248.478 155.502 248.718 150.36C248.733 149.905 248.894 149.465 249.179 149.097C249.464 148.73 249.861 148.453 250.316 148.304C271.611 141.455 288.175 144.705 292.982 147.275C299.388 150.69 296.832 154.34 296.756 155.379C296.136 164.007 291.111 179.998 291.002 193.993C291.002 196.05 291.22 200.986 291.361 203.722C291.388 204.259 291.211 204.787 290.862 205.211C290.513 205.636 290.015 205.928 289.458 206.035C284.684 206.971 263.737 207.218 259.811 207.064C256.059 206.94 253.59 206.724 252.013 206.529C251.687 206.487 251.375 206.381 251.095 206.219C250.815 206.056 250.574 205.84 250.387 205.585C250.2 205.33 250.071 205.041 250.008 204.736C249.945 204.431 249.95 204.117 250.023 203.814C250.632 201.356 251.523 197.346 251.708 195.526Z" fill="#263238"/>
<path d="M277.332 130.626C276.527 135.131 276.853 141.743 280.257 144.674C280.257 144.674 280.192 149.26 266.88 154.525C261.855 148.067 265.423 145.013 265.423 145.013C270.719 143.697 269.436 141.65 268.424 138.175L277.332 130.626Z" fill="#B55B52"/>
<path opacity="0.2" d="M273.71 133.66L268.468 138.175C268.718 138.978 268.892 139.8 268.99 140.632C271.024 140.313 274.167 138.576 274.547 136.519C274.523 135.515 274.235 134.533 273.71 133.66Z" fill="black"/>
<path d="M283.335 122.77C281.399 130.184 280.736 133.352 275.983 136.498C268.827 141.249 259.67 137.362 259.18 129.547C258.789 122.513 262.051 111.53 270.393 109.936C272.231 109.57 274.138 109.655 275.932 110.181C277.726 110.708 279.349 111.659 280.645 112.944C281.941 114.23 282.869 115.807 283.34 117.527C283.811 119.246 283.809 121.051 283.335 122.77Z" fill="#B55B52"/>
<path d="M269.719 121.813C269.588 122.42 269.153 122.842 268.74 122.842C268.327 122.842 268.066 122.204 268.185 121.598C268.305 120.991 268.751 120.569 269.164 120.621C269.577 120.672 269.817 121.227 269.719 121.813Z" fill="#263238"/>
<path d="M262.497 120.621C262.378 121.238 261.932 121.649 261.518 121.649C261.105 121.649 260.844 121.011 260.964 120.405C261.083 119.798 261.529 119.376 261.943 119.438C262.356 119.5 262.617 120.004 262.497 120.621Z" fill="#263238"/>
<path d="M265.053 122.77C264.205 124.063 263.173 125.239 261.986 126.266C262.273 126.547 262.621 126.765 263.006 126.905C263.391 127.045 263.804 127.105 264.215 127.079L265.053 122.77Z" fill="#A02724"/>
<path d="M267.261 130.081C266.936 130.073 266.612 130.038 266.293 129.979C266.268 129.975 266.245 129.967 266.224 129.954C266.203 129.942 266.185 129.925 266.171 129.906C266.156 129.887 266.146 129.865 266.141 129.842C266.136 129.82 266.136 129.796 266.141 129.773C266.144 129.749 266.153 129.726 266.167 129.705C266.181 129.684 266.199 129.667 266.221 129.653C266.242 129.639 266.267 129.63 266.292 129.626C266.318 129.622 266.344 129.623 266.369 129.629C267.169 129.782 267.996 129.755 268.784 129.552C269.571 129.348 270.297 128.973 270.904 128.457C270.94 128.421 270.99 128.401 271.042 128.4C271.094 128.399 271.144 128.417 271.181 128.451C271.219 128.486 271.241 128.532 271.242 128.582C271.243 128.631 271.223 128.678 271.187 128.714C270.66 129.176 270.042 129.534 269.369 129.769C268.695 130.004 267.978 130.11 267.261 130.081Z" fill="#263238"/>
<path d="M273.166 120.878C273.086 120.892 273.003 120.88 272.93 120.845C272.857 120.81 272.799 120.752 272.764 120.682C272.421 120.184 271.972 119.759 271.446 119.433C270.92 119.108 270.328 118.889 269.708 118.79C269.606 118.775 269.514 118.722 269.453 118.643C269.392 118.564 269.366 118.465 269.382 118.369C269.398 118.274 269.453 118.19 269.534 118.134C269.616 118.079 269.717 118.055 269.817 118.07C270.561 118.182 271.272 118.445 271.899 118.84C272.526 119.236 273.055 119.756 273.449 120.364C273.491 120.45 273.497 120.548 273.464 120.638C273.432 120.728 273.364 120.803 273.275 120.847C273.242 120.865 273.205 120.875 273.166 120.878Z" fill="#263238"/>
<path d="M261.225 118.245C261.156 118.26 261.085 118.258 261.018 118.238C260.951 118.218 260.891 118.181 260.844 118.132C260.808 118.098 260.779 118.058 260.759 118.014C260.74 117.97 260.73 117.923 260.73 117.875C260.73 117.827 260.74 117.78 260.759 117.735C260.779 117.691 260.808 117.651 260.844 117.618C261.285 117.207 261.827 116.905 262.42 116.739C263.014 116.572 263.641 116.545 264.248 116.661C264.296 116.67 264.341 116.687 264.381 116.713C264.422 116.739 264.456 116.772 264.482 116.81C264.509 116.848 264.527 116.892 264.535 116.937C264.543 116.982 264.542 117.028 264.531 117.073C264.508 117.165 264.446 117.246 264.361 117.296C264.275 117.346 264.172 117.362 264.074 117.34C263.595 117.262 263.104 117.294 262.641 117.431C262.177 117.569 261.755 117.809 261.41 118.132C261.361 118.187 261.297 118.226 261.225 118.245Z" fill="#263238"/>
<path d="M281.682 144.221L280.279 143.995L272.481 148.016L270.067 148.098L265.434 144.375L263.878 144.725C262.435 148.946 262.158 153.445 263.074 157.795L265.695 170.238L268.435 183.864L269.023 182.61L271.198 177.92L274.178 172.573L279.616 159.492L281.16 154.104C282.075 150.885 282.235 147.515 281.628 144.232L281.682 144.221Z" fill="#263238"/>
<path opacity="0.2" d="M273.275 148.108C264.912 148.18 263.987 145.27 263.987 145.27V144.622C263.987 144.622 261.464 149.116 268.718 149.908C275.972 150.7 280.812 147.45 281.845 145.496C281.04 146.484 278.876 148.067 273.275 148.108Z" fill="black"/>
<path d="M283.03 112.579C282.763 111.38 282.158 110.271 281.279 109.37C280.825 108.937 280.211 108.687 279.566 108.674C278.92 108.661 278.295 108.884 277.821 109.298C277.112 108.539 276.226 107.945 275.234 107.563C274.241 107.181 273.169 107.022 272.1 107.098C271.086 107.182 270.108 107.5 269.253 108.023C268.398 108.546 267.692 109.26 267.195 110.101C266.227 111.797 263.171 112.394 261.148 112.589C262.475 113.854 265.76 114.646 267.402 113.792C267 114.389 265.162 114.708 264.411 114.821C265.619 115.509 266.962 115.96 268.359 116.147C269.06 116.229 269.77 116.11 270.398 115.806C271.027 115.502 271.544 115.026 271.883 114.44C271.581 114.922 271.452 115.483 271.517 116.039C271.582 116.596 271.836 117.117 272.242 117.525C272.657 117.929 273.198 118.195 273.786 118.284C274.374 118.373 274.977 118.28 275.504 118.019C275.169 117.92 274.879 117.717 274.682 117.442C274.485 117.168 274.391 116.838 274.417 116.507C274.428 116.152 274.556 115.809 274.782 115.526C275.007 115.242 275.321 115.032 275.678 114.924C275.784 115.875 276.28 116.75 277.06 117.361C277.777 117.885 278.408 118.101 278.854 118.852C279.3 119.603 278.767 121.423 277.342 121.299C277.984 121.947 280.605 121.711 280.899 120.867C280.668 121.931 280.197 122.935 279.517 123.81C278.838 124.685 277.966 125.411 276.962 125.937C277.483 125.965 277.997 126.069 278.484 126.246C278.769 126.306 279.038 126.42 279.276 126.581C279.513 126.742 279.714 126.946 279.866 127.181C280.006 127.543 280.069 127.927 280.053 128.312C280.036 128.696 279.939 129.074 279.768 129.423C279.112 131.334 278.328 133.202 277.419 135.018C278.719 134.687 279.922 134.081 280.938 133.245C281.953 132.409 282.754 131.366 283.281 130.195C284.523 129.79 285.589 129.01 286.315 127.974C287.04 126.939 287.384 125.706 287.294 124.467C288.581 123.394 289.453 121.947 289.773 120.353C289.881 119.585 289.685 118.805 289.224 118.164C288.762 117.523 288.068 117.065 287.272 116.877C287.537 116.268 287.622 115.602 287.518 114.95C287.415 114.298 287.127 113.685 286.685 113.175C286.486 112.909 286.234 112.683 285.943 112.509C285.652 112.335 285.328 112.216 284.988 112.161C284.649 112.106 284.301 112.114 283.965 112.186C283.629 112.257 283.312 112.391 283.03 112.579Z" fill="#263238"/>
<path d="M283.009 128.169C282.299 129.346 281.127 130.211 279.746 130.575C277.908 131.038 277.005 129.464 277.571 127.819C278.06 126.349 279.605 124.333 281.454 124.569C281.771 124.62 282.074 124.73 282.347 124.892C282.619 125.054 282.855 125.266 283.041 125.514C283.227 125.762 283.359 126.043 283.43 126.34C283.501 126.636 283.509 126.943 283.455 127.243C283.384 127.58 283.232 127.897 283.009 128.169Z" fill="#B55B52"/>
<path d="M279.507 122.832L274.156 121.968C273.71 120.672 271.774 120.364 270.959 120.23C270.143 120.096 268.066 119.767 267.239 121.011L265.379 120.703C265.031 119.284 262.987 118.944 262.117 118.811C261.247 118.677 258.473 118.225 258.082 120.364C258.028 121.227 258.312 122.08 258.881 122.758C259.45 123.435 260.263 123.891 261.165 124.037C262.067 124.184 262.995 124.011 263.77 123.551C264.546 123.091 265.115 122.378 265.368 121.546C265.379 121.43 265.379 121.313 265.368 121.196L266.967 121.454C266.931 121.565 266.902 121.678 266.88 121.793C266.83 122.656 267.117 123.506 267.686 124.181C268.256 124.857 269.069 125.31 269.97 125.455C270.871 125.6 271.797 125.426 272.571 124.967C273.345 124.508 273.913 123.795 274.167 122.965C274.183 122.798 274.183 122.629 274.167 122.461L279.344 123.305C280.05 123.416 280.693 123.758 281.16 124.271L281.541 123.963C281.018 123.379 280.301 122.98 279.507 122.832ZM261.279 123.572C260.496 123.489 259.778 123.12 259.278 122.544C258.778 121.967 258.536 121.229 258.604 120.487C258.821 119.315 259.844 118.965 262.051 119.315C264.259 119.664 265.107 120.343 264.89 121.505C264.692 122.231 264.2 122.855 263.521 123.241C262.842 123.628 262.029 123.747 261.257 123.572H261.279ZM270.099 124.991C269.317 124.908 268.6 124.539 268.102 123.962C267.604 123.386 267.365 122.648 267.435 121.906C267.641 120.734 268.675 120.384 270.882 120.744C273.09 121.104 273.928 121.772 273.721 122.924C273.523 123.652 273.03 124.278 272.348 124.665C271.666 125.052 270.85 125.169 270.078 124.991H270.099Z" fill="#263238"/>
<path d="M208.814 164.634C216.833 166.594 225.167 167.131 233.394 166.218C237.659 159.165 243.438 153.035 250.36 148.222L253.405 159.019C253.405 159.019 244.335 172.645 236.993 175.781C231.175 178.27 213.719 173.838 206.715 171.884C206.82 169.347 207.538 166.867 208.814 164.634Z" fill="#263238"/>
<path d="M335.441 165.847C327.388 167.619 319.059 167.967 310.872 166.876C306.777 159.733 301.142 153.483 294.33 148.53L291.068 159.256C291.068 159.256 299.823 173.077 307.098 176.357C312.852 178.959 330.405 174.887 337.453 173.087C337.37 170.561 336.682 168.085 335.441 165.847Z" fill="#263238"/>
<path d="M264.02 142.35V145.27C264.02 145.27 264.672 148.437 273.036 148.355C281.399 148.273 282.378 144.54 282.378 144.54V142.422C282.383 142.065 282.304 141.711 282.147 141.386C281.989 141.062 281.758 140.774 281.468 140.545C281.179 140.315 280.839 140.15 280.473 140.06C280.108 139.97 279.726 139.958 279.355 140.026C275.225 140.639 271.02 140.639 266.891 140.026C266.538 139.982 266.179 140.01 265.837 140.106C265.496 140.202 265.179 140.365 264.909 140.584C264.638 140.803 264.419 141.073 264.266 141.378C264.113 141.682 264.029 142.013 264.02 142.35Z" fill="#263238"/>
</svg>
